<?xml version="1.0" standalone="no"?>
<!DOCTYPE svg PUBLIC "-//W3C//DTD SVG 20010904//EN"
 "http://www.w3.org/TR/2001/REC-SVG-20010904/DTD/svg10.dtd">
<svg version="1.0" xmlns="http://www.w3.org/2000/svg"
 width="933.000000pt" height="933.000000pt" viewBox="0 0 933.000000 933.000000"
 preserveAspectRatio="xMidYMid meet">
<metadata>
Created by potrace 1.11, written by Peter Selinger 2001-2013
</metadata>
<g transform="translate(0.000000,933.000000) scale(0.100000,-0.100000)"
fill="#000000" stroke="none">
<path d="M3738 7702 c-54 -2 -68 -6 -73 -21 -5 -15 -18 -19 -88 -20 -180 -5
-224 -10 -307 -34 -30 -9 -66 -19 -80 -21 -102 -21 -120 -28 -292 -112 -38
-18 -68 -30 -68 -28 0 7 -85 -49 -131 -86 -57 -47 -78 -66 -190 -175 -74 -73
-105 -96 -135 -103 -43 -9 -100 1 -125 24 -18 16 -69 19 -69 4 0 -5 -7 -10
-15 -10 -8 0 -15 8 -15 18 0 32 -15 45 -38 33 -17 -9 -27 -7 -55 12 -29 18
-34 26 -30 50 5 22 2 27 -15 27 -12 0 -24 -4 -27 -10 -12 -20 -31 -9 -40 22
-20 66 -222 167 -310 155 -50 -7 -67 -27 -75 -87 -13 -103 71 -241 265 -435
92 -92 172 -148 248 -174 52 -18 55 -18 127 1 56 15 116 20 240 23 91 1 174 5
185 8 11 3 40 8 65 11 38 5 104 21 170 41 59 18 200 52 200 49 0 -15 93 48
143 96 82 81 171 126 312 159 52 13 149 59 268 129 70 41 145 70 372 143 146
46 228 53 305 26 49 -18 110 -22 110 -8 0 5 -19 16 -42 26 -24 9 -64 32 -89
50 -25 18 -55 36 -66 39 -12 4 -43 27 -69 52 -57 54 -116 95 -160 113 -31 12
-259 20 -406 13z m-340 -173 c29 -13 52 -30 52 -36 0 -20 -81 -16 -125 7 -22
11 -45 20 -52 20 -23 0 -24 20 -1 29 33 12 68 7 126 -20z m-233 -43 c6 -2 33
-6 60 -11 28 -4 59 -12 69 -18 18 -9 18 -10 3 -22 -33 -24 -217 11 -217 41 0
23 19 25 85 10z m-49 -96 c24 0 16 -30 -8 -31 -31 -2 -62 2 -68 8 -9 8 34 34
48 28 8 -3 20 -5 28 -5z"/>
<path d="M4708 7195 c-2 -1 -43 -6 -93 -9 -49 -4 -101 -9 -115 -11 -14 -2 -28
-4 -32 -4 -13 -2 -9 -28 7 -41 22 -18 19 -43 -4 -35 -11 3 -26 -1 -36 -12 -17
-16 -16 -17 1 -23 26 -9 72 5 156 47 104 52 120 55 186 34 57 -19 99 -23 201
-22 53 1 70 5 59 16 -5 5 -121 39 -173 51 -22 6 -153 12 -157 9z"/>
<path d="M4385 7159 c-11 -17 1 -21 15 -4 8 9 8 15 2 15 -6 0 -14 -5 -17 -11z"/>
<path d="M6155 7087 c-11 -7 -31 -20 -44 -29 -13 -10 -32 -18 -41 -18 -19 0
-80 -52 -80 -68 0 -5 6 -15 14 -21 20 -16 4 -59 -34 -96 -38 -36 -29 -55 25
-55 36 0 43 -3 41 -17 -4 -22 13 -73 24 -73 4 0 13 -15 20 -32 7 -18 16 -42
20 -53 4 -11 18 -47 31 -80 13 -33 40 -91 61 -130 54 -101 79 -153 83 -177 3
-12 19 -44 38 -72 65 -101 74 -150 30 -167 l-26 -10 39 -42 c21 -23 42 -44 47
-47 90 -71 148 -140 117 -140 -5 0 -10 -4 -10 -10 0 -6 9 -6 26 0 47 18 83 12
96 -15 6 -14 25 -33 43 -44 28 -16 83 -106 91 -148 4 -23 -24 -35 -65 -28 -46
8 -161 60 -161 74 0 5 -8 8 -17 6 -10 -2 -21 -4 -25 -4 -16 -2 -7 -22 15 -32
36 -16 62 -33 81 -52 10 -9 28 -17 42 -17 15 0 24 -6 24 -15 0 -25 -29 -29
-53 -8 -12 11 -37 25 -56 31 -18 7 -54 27 -80 45 -25 18 -66 43 -91 55 -25 12
-53 35 -64 52 l-18 31 -24 -33 c-22 -29 -23 -33 -8 -37 10 -2 24 -9 32 -17 7
-8 21 -14 31 -14 10 0 28 -11 41 -25 13 -14 32 -25 41 -25 10 0 28 -11 41 -23
13 -13 39 -34 58 -47 43 -30 52 -42 37 -52 -24 -15 -65 -8 -91 17 -14 13 -26
29 -26 34 0 6 -15 14 -32 19 -18 5 -57 19 -85 31 -43 17 -57 19 -78 9 -14 -6
-25 -15 -25 -20 0 -5 -4 -7 -8 -4 -5 3 -24 -8 -43 -24 -20 -18 -46 -29 -64
-30 -38 0 -21 -19 24 -26 38 -6 78 16 91 52 12 31 44 31 73 0 14 -14 33 -24
52 -24 16 0 31 -4 33 -10 2 -6 19 -14 38 -18 47 -9 51 -21 15 -42 -17 -9 -31
-22 -31 -28 0 -6 20 -20 44 -32 58 -29 71 -45 51 -62 -24 -20 -17 -38 18 -45
17 -4 41 -12 52 -18 11 -6 27 -12 35 -14 8 -1 26 -4 40 -7 14 -2 28 -5 33 -5
21 -2 2 -21 -30 -30 -47 -13 -66 -14 -58 -1 8 12 -32 37 -70 43 -36 6 -88 32
-104 51 -10 11 -7 16 11 22 13 4 26 7 31 6 4 -1 7 5 7 13 0 8 -12 18 -26 21
-19 5 -32 0 -52 -18 -15 -13 -40 -32 -55 -42 l-29 -18 6 29 c8 37 -5 55 -35
49 -36 -6 -130 -53 -127 -62 2 -4 23 -9 48 -10 80 -4 237 -55 225 -73 -3 -5
-20 -13 -38 -16 -17 -4 -41 -12 -52 -18 -11 -6 -31 -13 -45 -15 -50 -7 -31
-12 37 -9 54 1 73 -2 86 -15 34 -34 12 -48 -121 -73 -61 -12 -22 -21 122 -29
70 -3 109 -16 94 -31 -3 -3 -65 -8 -137 -10 -185 -6 -198 -18 -61 -59 30 -9
62 -21 70 -27 13 -9 13 -12 -4 -22 -86 -55 -110 -73 -106 -82 5 -10 12 -10 68
1 29 6 32 4 32 -19 0 -19 -8 -28 -37 -40 -37 -14 -78 -15 -190 -4 -29 3 -55 1
-58 -4 -4 -5 -3 -9 2 -10 42 -2 101 -13 116 -21 10 -5 39 -12 65 -15 31 -4 61
-16 90 -39 l44 -33 -35 -15 c-19 -7 -38 -19 -42 -26 -9 -14 10 -35 32 -35 28
0 24 -19 -7 -37 -36 -21 -52 -55 -36 -80 6 -10 16 -18 23 -18 18 0 4 -28 -17
-35 -39 -13 -67 -16 -117 -17 -38 0 -53 -4 -53 -14 0 -12 56 -34 88 -34 8 0
41 -15 75 -34 34 -19 91 -43 127 -53 36 -9 74 -25 84 -35 29 -27 79 -27 109
-1 15 15 17 15 17 -1 0 -9 -9 -34 -19 -55 -11 -20 -28 -69 -38 -107 -15 -57
-26 -77 -65 -116 -47 -46 -48 -46 -100 -42 -102 10 -299 11 -304 3 -6 -11 -12
-10 126 -14 131 -4 180 -11 180 -27 0 -32 -25 -88 -39 -88 -9 0 -34 -10 -56
-21 -23 -13 -66 -24 -102 -27 -59 -4 -63 -3 -63 16 0 12 9 26 20 32 46 25 10
33 -45 10 -11 -4 -34 -13 -52 -20 -33 -12 -36 -40 -4 -40 9 0 21 -4 27 -9 8
-7 72 -27 114 -35 109 -21 82 -54 -47 -57 -55 -1 -69 2 -82 19 -27 34 -56 36
-85 6 -20 -23 -36 -28 -85 -32 -52 -4 -69 0 -127 27 -36 17 -72 31 -80 31 -8
0 -14 3 -14 8 0 8 -49 36 -92 51 -22 8 -29 7 -37 -6 -5 -10 -24 -17 -47 -18
-52 -3 -54 -3 -54 -15 0 -5 7 -10 15 -10 29 0 53 -57 50 -118 -3 -89 -3 -90
-35 -122 -17 -17 -28 -35 -26 -39 3 -5 -11 -27 -31 -50 -33 -39 -35 -44 -23
-67 18 -32 0 -55 -26 -34 -19 16 -44 22 -44 10 0 -4 7 -13 15 -20 8 -7 15 -19
15 -26 0 -8 6 -14 14 -14 8 0 16 -6 19 -14 7 -17 -25 -27 -44 -15 -8 5 -26 9
-42 9 -31 0 -41 -18 -50 -92 -8 -62 -22 -87 -46 -81 -15 4 -66 -30 -101 -67
-13 -14 -97 -78 -110 -84 -8 -3 -28 -15 -45 -25 -16 -11 -50 -30 -75 -42 -25
-13 -47 -25 -50 -28 -3 -3 -12 -10 -21 -16 -10 -5 -82 -53 -160 -106 -248
-165 -367 -276 -332 -309 4 -5 35 -11 68 -14 33 -3 89 -8 125 -11 204 -19 278
-6 410 73 25 14 47 27 50 27 8 0 72 46 100 70 14 13 36 26 49 30 14 4 33 16
44 26 11 10 39 27 62 38 23 11 45 27 48 35 3 8 23 18 44 22 21 4 41 12 45 18
4 6 11 11 15 12 4 0 16 4 26 9 20 8 89 8 157 -1 l45 -5 -35 22 c-19 12 -43 31
-53 42 -22 26 -10 35 57 38 43 3 53 8 104 59 62 61 131 104 196 121 22 6 46
14 51 18 6 4 28 13 50 20 64 20 125 50 201 97 39 24 75 44 81 44 6 0 16 7 23
15 23 28 23 7 0 -27 -32 -47 -149 -158 -166 -158 -8 0 -14 -7 -14 -15 0 -20
22 -19 51 3 13 10 32 21 41 25 64 23 -8 -104 -136 -240 -55 -59 -75 -92 -70
-119 4 -22 3 -23 -27 -10 -55 23 -92 -6 -56 -43 10 -11 8 -12 -13 -6 -53 15
-80 17 -80 6 0 -6 11 -16 24 -21 30 -11 40 -26 24 -37 -24 -14 -59 -10 -69 9
-12 22 -76 25 -104 4 -17 -12 -17 -13 8 -20 44 -11 32 -33 -23 -45 -61 -13
-94 -30 -140 -71 -36 -33 -113 -85 -162 -109 -16 -8 -28 -18 -28 -23 0 -4 -5
-8 -11 -8 -5 0 -67 -38 -136 -85 -69 -47 -147 -95 -172 -106 -59 -26 -183 -90
-258 -132 -102 -58 -108 -62 -113 -68 -11 -12 -109 -53 -166 -69 -43 -12 -89
-17 -150 -16 -100 3 -136 17 -179 68 -31 36 -116 208 -109 219 2 4 -3 13 -12
20 -12 10 -29 9 -92 -6 -42 -10 -81 -20 -87 -21 -37 -7 -93 -15 -147 -19 -59
-5 -66 -3 -106 26 -45 33 -50 50 -15 55 12 2 39 21 60 42 59 58 123 107 183
140 175 94 230 129 230 146 0 7 -86 -1 -99 -8 -4 -3 -18 -7 -32 -9 -13 -3 -49
-12 -79 -21 -30 -8 -84 -18 -120 -21 -36 -4 -68 -9 -72 -11 -5 -3 -8 -1 -8 4
0 5 53 34 118 65 64 30 144 74 177 97 146 99 256 170 330 210 81 45 120 80
273 245 59 65 112 109 187 159 117 76 154 113 190 189 l25 51 -29 61 c-34 73
-76 119 -102 112 -11 -3 -24 2 -32 12 -6 9 -23 17 -37 17 -58 3 -122 22 -340
104 -47 17 -106 38 -132 45 -81 22 -178 59 -178 67 0 12 -38 10 -45 -2 -9 -15
-50 -12 -113 9 -54 19 -101 26 -146 22 -29 -2 -2 -28 30 -28 14 0 35 -9 47
-20 12 -11 58 -35 102 -53 78 -32 129 -63 139 -86 2 -7 -4 -21 -15 -32 -17
-19 -17 -22 -3 -37 9 -9 15 -18 12 -20 -10 -10 -161 -75 -183 -79 -14 -3 -30
-8 -36 -11 -6 -4 -29 -9 -52 -11 -22 -2 -45 -9 -52 -14 -22 -19 -162 -45 -284
-54 -18 -1 -39 -10 -46 -19 -14 -20 -69 -44 -116 -52 -19 -3 -43 -8 -54 -12
-41 -12 -170 -10 -197 4 -24 12 -28 12 -28 -1 0 -8 5 -18 10 -21 23 -14 7 -25
-36 -25 -25 0 -55 -5 -66 -11 -11 -6 -44 -13 -73 -16 -55 -5 -88 6 -134 46
-20 17 -22 23 -11 36 7 8 16 12 21 9 17 -10 49 7 49 27 0 13 -16 30 -45 47
-50 30 -70 59 -33 47 29 -10 86 -11 95 -2 11 11 -17 54 -45 68 -14 8 -36 23
-49 35 -26 24 -131 77 -187 95 -22 6 -49 21 -61 33 -12 11 -33 30 -48 41 -26
19 -36 45 -18 45 6 0 36 -16 68 -35 67 -41 73 -42 73 -15 0 11 -4 20 -8 20 -5
0 -18 14 -30 30 -13 17 -18 30 -12 30 15 0 90 -70 90 -85 0 -7 15 -19 33 -26
17 -7 59 -38 91 -69 32 -30 76 -71 96 -90 21 -19 74 -70 119 -112 44 -43 85
-78 91 -78 15 0 12 22 -6 48 -14 21 -13 23 11 46 l27 25 -36 48 c-67 92 -76
101 -120 123 -42 20 -72 28 -123 34 -25 4 -56 22 -95 59 -35 33 -36 50 -2 32
15 -7 33 -11 41 -8 12 5 12 8 0 27 -8 11 -29 46 -48 76 -18 30 -44 65 -59 78
-22 20 -197 126 -210 127 -3 1 -18 8 -35 17 -16 8 -41 19 -55 23 -33 11 -91
49 -174 115 -38 30 -88 70 -112 88 -24 17 -67 55 -95 83 -50 49 -51 53 -46 96
3 25 9 48 15 52 5 3 19 24 30 47 13 26 32 46 52 54 42 17 125 15 179 -4 24 -9
46 -16 49 -16 14 0 -56 63 -87 80 l-35 17 25 16 c13 9 41 17 62 19 l38 2 -26
19 c-47 35 -125 117 -125 133 0 8 4 13 9 10 12 -7 81 -18 81 -13 0 12 -121 77
-141 76 -82 -3 -209 71 -209 122 0 19 -55 79 -73 79 -7 0 -20 9 -30 20 -9 11
-23 20 -31 20 -17 0 -15 22 2 43 19 22 -3 31 -30 13 -31 -22 -38 -20 -38 9 0
44 -144 96 -310 111 l-65 6 24 -26 c14 -15 48 -38 75 -51 67 -33 89 -47 142
-90 18 -14 39 -25 48 -25 52 0 159 -89 246 -204 23 -31 57 -65 76 -77 62 -38
41 -61 -75 -81 l-71 -12 -45 44 c-25 24 -45 48 -45 52 0 30 -207 308 -229 308
-4 0 -25 16 -46 35 -22 19 -41 32 -43 30 -4 -3 -41 11 -132 53 -226 102 -307
110 -436 44 -115 -59 -191 -203 -185 -352 4 -102 2 -115 -24 -193 -40 -122
-37 -254 11 -377 17 -45 19 -95 10 -232 -5 -73 16 -175 53 -261 22 -51 21 -53
-28 -59 -14 -2 -26 -9 -29 -16 -2 -7 35 -50 84 -95 175 -164 217 -208 205
-220 -8 -8 -22 -2 -50 21 -22 18 -44 32 -50 32 -6 0 -18 9 -28 19 -10 10 -34
28 -53 38 -68 37 -71 36 -37 -20 18 -29 46 -81 62 -117 25 -56 66 -119 125
-193 24 -30 121 -127 186 -185 32 -30 89 -83 125 -118 37 -35 70 -64 73 -64 9
0 0 44 -33 171 -16 60 -26 111 -22 113 9 6 101 -125 146 -209 57 -106 97 -150
168 -184 34 -17 76 -32 92 -35 17 -2 48 -7 71 -11 75 -12 114 -65 114 -155 0
-37 -6 -55 -23 -74 -21 -24 -23 -25 -62 -11 -46 17 -75 19 -75 6 0 -8 31 -24
50 -26 3 0 16 -10 30 -23 13 -12 26 -22 29 -23 3 0 15 -2 26 -5 45 -9 71 6 94
54 47 97 180 256 229 273 57 20 81 -45 60 -161 -5 -25 -11 -61 -14 -80 -13
-80 -75 -146 -144 -154 -61 -7 -345 -7 -400 0 -25 3 -81 21 -125 39 -82 35
-131 50 -197 60 -21 3 -38 10 -38 15 0 6 -6 10 -13 10 -13 0 -94 87 -114 123
-28 51 -2 105 54 109 39 3 56 -11 82 -66 11 -24 35 -53 53 -64 18 -12 43 -29
55 -37 12 -9 34 -15 50 -13 27 4 26 5 -19 25 -57 26 -121 92 -138 142 -6 20
-23 44 -36 54 -24 18 -25 17 -117 -29 -96 -50 -142 -89 -149 -129 -6 -28 -2
-185 6 -233 17 -111 69 -195 206 -332 75 -75 71 -72 215 -169 61 -40 115 -79
120 -86 18 -20 117 -85 134 -87 29 -2 35 -4 87 -21 34 -12 84 -18 155 -18 108
-1 123 1 174 21 17 6 39 14 50 16 109 21 174 34 195 38 187 31 239 45 375 101
11 5 22 9 25 9 3 1 10 4 15 8 6 3 44 24 86 46 42 22 107 60 145 85 39 26 110
59 164 77 52 18 100 37 107 42 14 12 25 6 76 -41 72 -66 102 -82 159 -86 71
-4 117 -14 145 -32 13 -9 23 -12 23 -8 0 5 9 0 21 -11 28 -25 71 -113 97 -194
11 -36 29 -90 40 -120 32 -88 84 -319 80 -351 -6 -39 13 -54 38 -31 34 32 53
34 80 7 13 -13 24 -29 24 -35 0 -7 97 -10 295 -10 l295 0 -6 28 c-4 15 -13 42
-22 60 -39 85 -2 139 108 157 72 12 208 68 258 106 12 9 40 20 62 24 21 4 44
13 51 21 6 8 20 14 29 14 35 0 140 -55 140 -74 0 -3 -22 -20 -50 -37 -62 -38
-110 -94 -146 -168 -15 -31 -38 -69 -51 -84 -12 -16 -23 -33 -23 -38 0 -5 119
-9 289 -9 l289 0 0 41 c1 34 9 49 47 92 25 29 57 65 71 81 17 19 29 25 36 18
10 -10 -10 -58 -36 -85 -34 -33 -66 -92 -66 -118 l0 -29 394 0 c222 0 397 4
400 9 3 5 59 44 123 86 65 43 120 81 123 85 3 4 38 24 78 45 40 21 80 46 90
56 10 9 29 22 42 29 13 7 40 28 59 46 68 62 86 76 123 95 20 10 40 23 43 29
13 22 85 60 124 66 44 7 53 19 21 27 -11 3 -20 10 -20 15 0 16 36 24 57 13 10
-5 26 -12 37 -15 17 -6 17 -8 3 -29 -8 -12 -23 -24 -33 -26 -22 -4 -98 -35
-133 -55 -29 -16 -241 -225 -241 -237 0 -5 -9 -18 -21 -30 -17 -17 -19 -26
-11 -43 9 -22 -3 -76 -18 -76 -12 0 -18 -44 -9 -68 12 -32 43 -27 73 12 27 37
34 72 14 78 -21 7 0 38 27 38 28 0 32 15 10 43 -16 22 -12 38 28 94 35 49 60
61 83 39 14 -15 20 -12 62 28 131 125 212 204 212 210 0 4 -16 20 -35 37 -39
35 -44 49 -16 49 11 0 32 10 48 23 15 13 73 45 128 72 55 27 116 62 136 77 20
15 41 28 46 28 4 0 14 9 21 20 8 14 9 20 1 20 -14 0 -69 -30 -88 -49 -8 -7
-27 -18 -43 -23 -15 -6 -28 -16 -28 -23 0 -8 -23 -20 -54 -29 -89 -26 -351
-169 -364 -198 -2 -5 -8 -8 -13 -8 -6 0 -19 -8 -30 -19 -11 -10 -82 -61 -157
-112 -75 -51 -162 -111 -192 -133 -125 -93 -248 -162 -262 -148 -6 6 31 34
103 78 62 38 130 85 151 105 20 19 48 41 60 48 13 6 43 30 68 53 25 22 68 55
97 74 28 19 55 38 58 44 4 6 25 20 48 30 41 20 88 55 137 105 14 14 30 25 36
25 6 0 23 13 39 30 47 50 7 36 -91 -31 -49 -34 -91 -64 -94 -68 -3 -4 -20 -16
-37 -26 -18 -11 -33 -23 -33 -28 0 -4 -4 -6 -9 -2 -5 3 -12 1 -16 -5 -3 -5
-52 -39 -108 -76 -56 -37 -114 -75 -129 -85 -15 -11 -30 -19 -33 -19 -3 0 -54
-31 -113 -69 -59 -37 -127 -78 -151 -90 -42 -22 -90 -37 -77 -24 3 3 -12 14
-34 24 -47 21 -52 46 -11 60 30 10 68 55 57 67 -4 3 -19 -7 -34 -21 -16 -15
-33 -27 -39 -27 -6 0 -13 -6 -16 -14 -3 -7 -16 -13 -29 -13 -14 0 -37 -12 -52
-26 -16 -15 -38 -29 -50 -33 -11 -3 -28 -12 -36 -19 -8 -7 -32 -18 -52 -25
-21 -6 -38 -15 -38 -20 0 -7 -82 -50 -95 -50 -3 0 6 16 21 35 14 19 32 35 40
35 14 0 54 38 54 51 0 5 -16 1 -35 -7 -19 -7 -42 -14 -51 -14 -15 0 -15 2 2
21 21 23 169 139 178 139 7 0 109 71 116 81 10 13 162 99 291 164 73 37 141
76 151 88 47 56 85 89 156 138 77 52 183 129 192 140 3 3 34 29 69 58 35 29
70 58 76 64 24 24 217 163 275 199 38 23 68 34 81 31 47 -13 173 -169 224
-278 26 -57 21 -85 -23 -122 -20 -17 -34 -35 -29 -39 11 -11 175 -12 217 -1
57 14 96 15 134 2 39 -14 41 -10 37 51 -3 27 24 38 44 18 23 -24 33 -46 40
-94 7 -50 12 -60 26 -60 29 0 -8 145 -55 215 -21 30 -23 40 -14 60 6 13 24 29
39 36 36 14 36 20 -1 41 -39 22 -32 36 35 76 30 18 60 42 65 53 6 10 26 26 45
34 21 8 39 25 45 40 11 29 20 34 75 38 47 4 61 31 21 41 -25 6 -37 36 -16 36
6 0 10 7 10 16 0 23 -8 17 -109 -75 -50 -46 -104 -92 -120 -102 -36 -22 -129
-127 -161 -183 -46 -79 -105 -134 -137 -128 -18 4 -58 43 -73 72 -7 14 -46 69
-87 122 -40 54 -73 102 -73 108 0 5 -4 10 -9 10 -4 0 -25 26 -46 57 l-38 57
19 35 c21 40 113 101 152 101 31 0 76 24 144 76 31 24 61 44 67 44 6 0 11 4
11 9 0 15 82 44 130 46 45 1 108 -18 227 -69 74 -31 90 -32 122 -6 33 28 22
59 -40 112 -62 52 -99 90 -99 101 0 22 -69 101 -104 119 -28 14 -35 23 -27 31
14 14 15 47 1 47 -5 0 -12 -11 -16 -25 -8 -31 -11 -31 -36 0 -26 34 -34 32
-45 -12 -10 -42 -43 -60 -43 -24 0 11 -4 22 -9 26 -11 6 -34 -31 -27 -44 3 -4
-2 -18 -10 -30 -15 -20 -18 -21 -33 -7 -9 8 -18 28 -19 45 -1 16 -9 42 -17 58
-8 15 -15 33 -15 40 0 6 -7 19 -16 27 -8 9 -16 26 -17 37 -1 12 -10 24 -20 27
-10 3 -21 17 -24 33 -3 16 -10 29 -14 29 -14 0 2 -51 28 -91 17 -26 24 -51 25
-90 1 -86 -1 -97 -20 -103 -10 -4 -72 -58 -138 -121 -65 -63 -124 -114 -129
-115 -6 0 -33 -20 -61 -45 -43 -37 -75 -84 -95 -140 -2 -5 10 -12 26 -15 53
-10 37 -38 -100 -175 -102 -103 -161 -155 -175 -155 -5 0 -10 -4 -10 -9 0 -5
-17 -20 -37 -32 -21 -13 -40 -26 -43 -29 -14 -18 -104 -71 -175 -105 -44 -21
-92 -49 -107 -63 l-28 -25 -13 33 -14 32 -12 -32 c-6 -18 -22 -44 -36 -59 -14
-14 -35 -36 -46 -48 -18 -18 -25 -20 -45 -11 -13 6 -25 9 -27 7 -2 -2 -18 -27
-36 -56 -38 -62 -58 -72 -67 -37 -6 25 -7 25 -24 -13 -22 -47 -57 -85 -92
-100 -23 -10 -31 -9 -60 10 -22 15 -34 32 -36 51 -2 18 -8 26 -17 23 -7 -3
-26 11 -43 33 l-31 38 25 38 c14 22 36 47 49 56 21 16 25 16 38 3 13 -12 19
-10 46 20 17 19 41 35 52 35 11 0 31 7 44 16 27 18 65 11 65 -12 0 -22 19 -16
31 10 11 24 59 54 59 36 0 -5 -4 -12 -10 -15 -12 -7 -14 -45 -2 -45 4 0 13 9
20 20 16 26 38 25 53 -1 9 -17 13 -19 20 -8 5 8 2 20 -8 32 -11 12 -13 21 -6
28 7 7 14 5 23 -6 18 -21 29 -19 52 11 l20 25 20 -32 c16 -26 22 -30 28 -18 5
9 4 33 -2 56 -12 49 -4 60 89 118 32 21 83 58 113 84 30 26 81 67 113 91 54
40 137 132 137 151 0 12 -38 49 -49 49 -16 0 -42 -31 -35 -42 4 -6 -2 -8 -12
-6 -26 5 -31 48 -8 65 10 7 19 23 21 35 5 35 12 34 46 -5 18 -20 40 -37 50
-37 10 0 16 4 12 9 -3 6 4 19 16 30 22 20 22 46 3 134 -3 12 -7 36 -9 52 -3
17 -7 43 -11 59 -6 29 -7 29 -21 10 -15 -20 -12 -79 7 -144 5 -19 10 -46 10
-60 0 -23 -3 -22 -45 20 -38 37 -47 42 -55 30 -5 -8 -10 -18 -10 -22 0 -4 -12
-11 -27 -14 -43 -10 -45 -14 -24 -40 21 -27 18 -54 -5 -54 -8 0 -14 -7 -14
-15 0 -8 -4 -15 -10 -15 -5 0 -10 -7 -10 -15 0 -18 -40 -75 -52 -75 -16 0 -8
47 12 70 11 13 20 27 20 32 0 5 9 18 20 30 20 22 18 38 -6 38 -8 0 -14 -7 -14
-15 0 -8 -4 -15 -9 -15 -4 0 -28 -18 -53 -40 -41 -35 -58 -41 -58 -19 0 4 14
23 30 41 17 18 30 38 30 45 0 24 -19 22 -38 -3 -10 -15 -22 -23 -25 -17 -3 5
12 29 34 52 39 41 40 43 23 62 -13 14 -14 23 -7 30 8 8 13 5 17 -9 7 -21 29
-23 48 -4 8 8 8 15 -1 25 -9 12 -1 30 42 93 83 124 130 184 148 189 10 3 16
13 14 23 -2 9 -4 23 -4 30 -2 20 -29 14 -36 -9 -4 -12 -65 -80 -135 -151 -119
-120 -130 -128 -149 -116 -18 11 -23 10 -38 -11 -10 -13 -36 -44 -58 -70 -22
-26 -55 -65 -74 -87 -18 -21 -42 -58 -54 -80 -33 -68 -177 -149 -177 -100 0 8
5 18 11 21 13 8 29 50 36 90 3 17 10 39 15 50 33 62 149 254 167 274 12 13 21
27 21 31 0 14 33 21 41 8 5 -8 11 -3 19 17 25 71 36 93 65 140 77 124 93 179
99 343 2 50 8 98 13 105 5 6 11 35 12 62 3 65 80 224 156 320 55 70 97 124
138 179 12 17 33 39 46 50 55 47 62 60 57 92 -4 17 -3 34 1 37 7 8 103 -91
103 -106 0 -11 70 -114 140 -207 56 -74 74 -95 169 -195 134 -142 239 -210
242 -157 1 9 2 40 4 67 1 28 3 60 4 72 0 12 8 28 16 37 8 8 15 18 15 22 0 8
80 103 135 160 118 123 174 185 271 300 61 72 135 166 165 208 30 42 81 112
114 155 33 43 69 91 80 107 11 15 32 42 48 60 15 17 27 36 27 41 0 6 32 61 71
123 39 62 74 121 77 129 3 9 16 29 30 45 36 44 27 96 -33 187 -27 40 -52 78
-57 84 -43 53 -78 102 -78 112 0 6 -12 25 -26 42 -14 17 -22 31 -18 31 5 0 0
6 -11 14 -49 34 -99 56 -138 62 -37 6 -40 5 -27 -8 8 -8 35 -20 60 -27 41 -12
69 -35 136 -112 7 -8 15 -24 17 -35 3 -22 26 -56 79 -115 20 -23 40 -55 43
-70 4 -16 11 -31 16 -34 12 -8 12 -65 0 -65 -14 0 -45 47 -81 123 -21 45 -46
80 -75 104 -24 20 -49 49 -56 65 -6 16 -25 38 -41 49 -25 18 -31 19 -51 7 -19
-12 -29 -14 -54 -9 -3 0 2 10 13 22 15 17 16 22 4 29 -8 5 -24 7 -35 5 -11 -2
-23 -4 -28 -4 -15 -2 -27 -52 -17 -71 8 -16 4 -23 -27 -42 -45 -27 -50 -46
-22 -76 11 -13 20 -33 20 -45 1 -62 11 -87 39 -104 37 -21 38 -40 4 -53 -27
-11 -27 -10 18 -77 15 -23 28 -44 28 -48 0 -7 -32 1 -75 20 -57 24 -75 27 -75
12 0 -8 7 -20 15 -27 8 -7 12 -16 9 -21 -9 -15 -42 -10 -54 9 -9 16 -11 15
-29 -5 -21 -25 -66 -31 -78 -9 -4 7 -19 19 -31 25 -13 7 -40 28 -61 46 -20 18
-45 35 -55 37 -34 6 -29 -21 10 -55 21 -17 58 -51 83 -74 25 -24 51 -43 58
-43 7 0 13 -4 13 -10 0 -5 11 -10 25 -10 20 0 25 -5 25 -25 0 -32 -31 -34 -57
-2 -10 12 -29 29 -43 38 -26 17 -193 182 -222 221 -35 44 -19 52 21 9 38 -41
65 -44 69 -9 2 15 -4 38 -12 50 -9 12 -16 32 -16 43 0 19 -38 84 -66 113 -11
10 -9 19 7 47 23 39 38 44 46 16 7 -26 32 -35 40 -14 8 20 -43 66 -99 91 -21
9 -38 20 -38 24 0 5 -4 8 -10 8 -12 0 -56 44 -70 70 -13 24 -13 60 0 60 21 0
8 30 -22 51 -18 13 -35 26 -38 30 -3 3 -16 10 -30 14 -14 4 -32 13 -40 20 -8
8 -27 18 -43 24 -15 6 -27 15 -27 20 0 5 35 -4 78 -21 122 -49 140 -58 144
-68 2 -5 30 -17 63 -25 33 -9 62 -19 65 -23 12 -16 84 -42 101 -37 38 12 17
41 -40 54 -24 5 -57 19 -72 30 -16 12 -33 21 -38 21 -5 0 -34 13 -63 29 -29
16 -71 34 -92 41 -22 7 -53 21 -70 31 -17 9 -48 21 -68 24 -36 7 -38 6 -38
-19 0 -17 -5 -26 -17 -26 -28 0 -116 48 -158 86 -42 39 -59 32 -30 -12 9 -14
19 -37 21 -51 3 -14 12 -39 20 -55 8 -16 27 -64 41 -106 14 -41 40 -108 58
-146 18 -39 38 -89 46 -111 7 -22 22 -50 33 -62 11 -13 16 -23 12 -23 -4 0 18
-21 49 -46 62 -50 93 -81 205 -204 41 -45 95 -93 119 -108 42 -24 43 -26 23
-35 -30 -13 -28 -22 8 -37 17 -7 34 -18 38 -24 4 -6 28 -22 53 -34 48 -24 109
-77 109 -94 0 -12 -37 -1 -70 21 -14 9 -37 18 -52 20 -22 2 -28 -2 -28 -17 0
-11 -7 -22 -15 -26 -20 -7 -19 -43 1 -54 15 -8 14 -12 -6 -32 l-22 -22 23 -24
c12 -13 21 -26 18 -28 -11 -10 -148 83 -172 116 -15 21 -32 38 -38 38 -13 0
-3 -51 19 -97 9 -18 12 -36 7 -40 -4 -5 -10 -2 -12 5 -3 6 -11 12 -19 12 -7 0
-25 17 -38 38 -13 20 -38 55 -56 77 l-33 40 7 -39 c4 -21 11 -46 16 -55 13
-25 40 -88 40 -94 0 -3 -9 -3 -20 0 -11 3 -20 9 -20 14 0 5 -5 9 -11 9 -6 0
-25 10 -42 22 l-30 22 6 -60 c4 -32 9 -70 12 -84 10 -45 15 -84 16 -134 1 -27
7 -59 14 -72 16 -31 12 -68 -8 -72 -11 -2 -21 8 -30 30 -12 28 -16 30 -22 15
-4 -11 -1 -33 9 -55 9 -20 18 -48 21 -61 7 -36 14 -38 40 -7 25 30 29 26 25
-24 -1 -14 -6 -26 -11 -28 -16 -6 -9 -50 20 -124 16 -40 34 -96 39 -124 9 -51
8 -160 -2 -199 -2 -11 -5 -23 -5 -27 -1 -5 -5 -8 -10 -8 -5 0 -14 23 -20 51
-30 140 -198 391 -272 406 -18 3 -25 11 -25 26 1 17 -4 21 -21 20 -13 -2 -24
3 -24 10 -1 6 -2 17 -3 23 0 5 -18 25 -40 44 -21 19 -55 57 -76 85 -20 27 -64
77 -97 110 -70 70 -113 126 -136 175 -19 42 -50 80 -65 80 -21 0 -23 20 -7 67
9 27 16 62 16 78 -1 49 -9 116 -14 121 -8 8 -26 -58 -25 -91 2 -53 -2 -75 -12
-75 -14 0 -28 40 -34 97 -2 26 -10 62 -17 78 -7 19 -13 106 -15 235 -5 284
-10 357 -27 415 -9 28 -18 77 -21 109 -5 53 -21 86 -57 116 -20 16 -17 47 6
72 14 15 25 30 25 33 0 12 -33 4 -58 -15 -31 -23 -72 -34 -72 -19 0 6 19 30
42 55 36 39 65 55 103 59 15 2 45 -26 45 -41 0 -8 13 -41 29 -74 40 -82 54
-126 57 -180 1 -25 11 -72 22 -105 27 -83 23 -238 -8 -295 -6 -11 -8 -25 -5
-30 3 -6 1 -10 -5 -10 -6 0 -9 -4 -6 -9 3 -5 8 -30 11 -57 3 -27 12 -74 21
-104 28 -100 35 -134 38 -187 2 -48 6 -55 39 -77 20 -14 37 -24 37 -22 0 2 -7
19 -15 39 -8 19 -12 37 -9 39 2 3 5 22 6 42 1 20 5 39 10 42 21 13 29 66 29
176 -1 110 8 150 24 110 4 -9 9 -42 10 -73 4 -67 12 -85 74 -159 55 -66 63
-72 73 -58 6 11 -7 47 -22 58 -13 9 -70 93 -70 102 0 5 10 8 23 6 27 -4 27 15
0 87 -14 38 -27 54 -53 66 l-35 17 -1 288 c-1 272 -2 293 -23 354 -12 36 -29
76 -38 89 -8 13 -17 44 -20 68 -6 55 -108 273 -161 345 -63 84 -272 278 -301
278 -6 0 -11 4 -11 8 0 9 -51 29 -95 36 -16 3 -93 8 -169 11 -146 5 -196 14
-258 46 -43 22 -46 22 -73 6z m901 -530 c30 -32 74 -104 74 -122 0 -23 -13
-18 -50 20 -19 19 -30 35 -26 35 5 0 -3 15 -18 34 -14 19 -26 39 -26 45 0 18
24 12 46 -12z m-220 -90 c3 -3 -11 -14 -33 -24 -21 -11 -48 -25 -59 -33 -25
-16 -56 -7 -48 14 12 31 119 64 140 43z m-2 -82 c3 -9 -1 -18 -10 -22 -19 -7
-26 0 -18 21 8 20 20 21 28 1z m108 -26 c30 -16 21 -51 -21 -81 -22 -16 -44
-28 -49 -28 -6 0 -12 -5 -14 -10 -2 -6 -20 -13 -40 -16 -41 -7 -46 1 -40 68 3
29 8 38 23 38 10 0 19 3 19 8 0 23 90 38 122 21z m313 -409 c13 -238 9 -385
-9 -413 -17 -26 -23 -45 -32 -112 -5 -41 -10 -52 -19 -43 -23 23 -18 208 9
353 3 18 10 83 21 200 9 95 17 156 20 153 2 -2 7 -64 10 -138z m1415 -285 c0
-9 -9 -15 -21 -15 -18 0 -19 2 -9 15 7 8 16 15 21 15 5 0 9 -7 9 -15z m90 -57
c13 -10 21 -21 17 -24 -4 -4 -15 0 -25 9 -10 10 -23 17 -29 17 -6 0 -13 7 -16
14 -7 18 15 11 53 -16z m-2155 -228 c3 -5 -1 -10 -10 -10 -8 0 -19 -8 -22 -17
-9 -24 -23 -33 -54 -33 -25 0 -58 25 -47 35 7 8 90 33 110 34 9 1 20 -3 23 -9z
m1966 -156 c12 -14 11 -16 -5 -13 -11 2 -21 10 -24 17 -5 17 13 15 29 -4z
m-2041 -109 c23 -14 7 -24 -31 -20 -47 6 -59 12 -59 26 0 10 72 5 90 -6z m-14
-80 c10 -8 17 -15 14 -15 -3 0 -21 -3 -41 -6 -37 -5 -56 6 -44 26 9 15 48 12
71 -5z m-5107 -69 c28 -33 4 -38 -32 -6 -45 40 -52 72 -9 41 16 -11 34 -27 41
-35z m-109 -6 c0 -5 -9 -10 -20 -10 -11 0 -20 5 -20 10 0 6 9 10 20 10 11 0
20 -4 20 -10z m67 -45 c9 -25 -2 -27 -28 -6 l-24 20 23 1 c12 0 25 -7 29 -15z
m6908 -6 c10 -14 1 -21 -19 -13 -9 3 -13 10 -10 15 7 12 21 11 29 -2z m-185
-90 c0 -6 -4 -7 -10 -4 -5 3 -10 11 -10 16 0 6 5 7 10 4 6 -3 10 -11 10 -16z
m-1696 -495 c23 -9 20 -23 -4 -21 -11 1 -20 7 -20 14 0 15 2 15 24 7z m-5181
-41 c15 -9 -15 -23 -50 -23 -33 0 -53 15 -31 23 20 6 71 6 81 0z m645 -18 c73
-64 186 -145 202 -145 5 0 10 -4 10 -8 0 -5 18 -19 40 -31 49 -28 118 -96 159
-158 38 -57 42 -85 9 -57 -13 10 -25 21 -28 24 -18 18 -100 40 -100 26 0 -3
12 -18 28 -34 15 -16 37 -47 50 -68 13 -22 61 -80 108 -129 46 -50 84 -93 84
-97 0 -14 -15 -8 -61 21 -87 57 -150 126 -219 239 -17 28 -25 33 -91 54 -75
24 -123 -4 -89 -51 34 -48 314 -321 329 -321 11 0 44 -50 37 -57 -11 -11 -98
41 -122 73 -15 19 -30 34 -35 34 -11 0 -48 31 -113 96 -97 97 -137 153 -150
207 -7 31 -23 27 -36 -9 -6 -15 -15 -22 -25 -18 -8 3 -15 10 -15 16 0 12 -73
120 -126 185 -31 37 -41 58 -37 73 5 17 11 20 32 15 38 -10 51 -24 51 -56 0
-23 4 -29 21 -29 20 0 21 4 15 46 -3 25 -13 52 -21 60 -19 19 -19 54 -1 80 14
18 15 18 25 -9 6 -16 11 -33 11 -38 0 -5 4 -9 9 -9 5 0 11 -8 14 -19 4 -17
144 -141 160 -141 13 0 8 16 -13 38 -11 12 -20 25 -20 30 0 12 -82 82 -96 82
-15 0 -24 23 -24 66 0 38 3 40 28 19z m4710 -24 c26 -2 11 -21 -17 -21 -34 0
-61 9 -61 20 0 6 19 6 78 1z m-4908 -252 c0 -6 -4 -7 -10 -4 -5 3 -10 11 -10
16 0 6 5 7 10 4 6 -3 10 -11 10 -16z m386 -124 c9 -14 15 -28 12 -30 -8 -9
-59 36 -53 46 10 15 24 10 41 -16z m404 8 c0 -7 -9 -13 -20 -13 -11 0 -20 6
-20 14 0 9 9 14 20 13 11 -1 20 -7 20 -14z m50 -44 c0 -6 -4 -7 -10 -4 -5 3
-10 11 -10 16 0 6 5 7 10 4 6 -3 10 -11 10 -16z m-663 -39 c5 0 25 -19 43 -42
19 -23 52 -57 73 -77 22 -20 45 -41 51 -47 6 -6 32 -23 56 -39 25 -15 58 -39
74 -52 l29 -24 -29 7 c-16 4 -40 12 -54 19 -14 7 -36 15 -50 18 -36 9 -101 67
-134 120 -16 25 -39 51 -52 57 -12 7 -25 23 -28 35 -3 13 -9 31 -12 42 -5 17
-5 17 9 1 8 -10 19 -18 24 -18z m663 -81 c0 -6 -4 -7 -10 -4 -5 3 -10 11 -10
16 0 6 5 7 10 4 6 -3 10 -11 10 -16z m-637 -82 c-3 -5 -10 -4 -15 1 -6 6 -7
16 -3 22 6 9 9 9 16 -1 4 -7 5 -17 2 -22z m485 -47 c40 -38 72 -51 72 -30 0 6
7 10 15 10 18 0 19 -4 3 -30 -11 -17 -9 -22 11 -36 16 -12 20 -19 11 -24 -7
-5 -30 4 -55 21 -24 16 -47 29 -52 29 -14 0 -83 71 -83 86 0 26 35 14 78 -26z
m4062 -1 c0 -6 -4 -7 -10 -4 -5 3 -10 11 -10 16 0 6 5 7 10 4 6 -3 10 -11 10
-16z m465 -61 c-8 -38 -16 -58 -26 -58 -5 0 -9 -9 -9 -20 0 -30 -83 -160 -102
-160 -14 0 -9 37 7 50 8 7 15 18 15 26 0 17 58 142 83 177 21 31 39 22 32 -15z
m-805 -8 c0 -9 -14 -14 -67 -25 -36 -7 -45 7 -13 21 28 12 80 15 80 4z m205
-22 c11 0 30 3 43 7 21 7 22 6 12 -17 -14 -30 -284 -298 -300 -298 -7 0 -35
-13 -62 -30 -26 -16 -50 -30 -53 -30 -3 0 -5 12 -5 27 0 14 -7 34 -15 43 -13
14 -12 20 7 50 30 48 32 71 8 77 -19 5 -19 5 1 44 22 44 43 49 69 17 l17 -22
12 21 c10 20 19 52 20 80 2 21 113 43 186 35 22 -2 49 -4 60 -4z m-5374 -44
c12 -14 11 -16 -5 -13 -11 2 -21 10 -24 17 -5 17 13 15 29 -4z m1598 -14 c-7
-5 -19 -6 -26 -3 -11 5 -12 8 -2 13 7 5 19 6 26 3 11 -5 12 -8 2 -13z m158
-156 c-3 -3 -12 -4 -19 -1 -8 3 -5 6 6 6 11 1 17 -2 13 -5z m3679 -66 c-7 -37
-43 -85 -125 -171 -71 -73 -106 -97 -144 -97 -13 0 -27 -3 -31 -7 -7 -7 -12
-9 -61 -18 -93 -17 -163 -6 -88 14 22 6 51 20 64 30 14 10 45 24 69 31 25 6
53 16 62 21 10 5 22 9 28 9 5 0 36 18 67 40 32 22 64 40 71 40 20 0 14 31 -8
37 -28 8 -25 24 13 60 62 59 94 63 83 11z m-841 -84 c12 -5 14 -9 4 -14 -14
-9 -39 -2 -39 11 0 11 12 11 35 3z m669 -38 c-16 -12 -30 -20 -32 -18 -1 2
-17 -8 -33 -23 -32 -26 -60 -25 -37 2 13 16 82 64 108 74 27 11 23 -14 -6 -35z
m-2730 -67 c-3 -5 -10 -7 -15 -3 -5 3 -7 10 -3 15 3 5 10 7 15 3 5 -3 7 -10 3
-15z m-794 -86 c0 -4 -16 -21 -35 -39 -30 -27 -35 -37 -30 -63 5 -32 -3 -39
-22 -20 -29 29 -106 4 -232 -75 -51 -32 -91 -43 -91 -25 1 32 58 79 135 112
44 19 116 53 160 75 75 39 115 51 115 35z m358 -19 l34 -27 -48 -23 c-26 -13
-52 -20 -56 -17 -9 5 -9 69 -1 86 8 14 37 7 71 -19z m652 -117 c0 -2 -9 -14
-20 -27 -15 -18 -20 -19 -20 -7 0 9 8 21 18 26 19 12 22 13 22 8z m3390 -158
c0 -5 -10 -9 -21 -9 -18 0 -19 2 -9 15 12 15 30 12 30 -6z m-3800 -34 c0 -15
-8 -17 -55 -17 -45 0 -48 1 -35 17 7 9 29 15 51 15 28 0 39 -4 39 -15z m3650
-59 c0 -19 -49 -76 -50 -58 0 11 39 72 47 72 2 0 3 -6 3 -14z m-5819 -72 c7
-9 47 -39 88 -66 60 -41 71 -52 57 -60 -37 -21 -158 60 -172 116 -7 29 6 35
27 10z m2439 -197 c0 -7 -24 -22 -52 -35 -98 -43 -143 -65 -170 -84 -16 -11
-29 -14 -33 -9 -3 6 7 18 22 28 15 10 30 21 33 24 4 6 73 39 93 44 4 2 10 4
15 5 4 1 10 2 13 2 4 -1 14 7 22 16 19 21 57 26 57 9z m-1731 -32 c23 -8 56
-21 74 -28 17 -8 44 -19 60 -25 16 -7 27 -19 27 -31 0 -26 -27 -21 -145 29
-51 22 -102 40 -113 40 -27 0 -38 17 -15 23 35 9 71 7 112 -8z m428 -82 c22
-15 52 -18 158 -20 112 -1 135 1 163 18 34 20 92 26 92 10 0 -5 -16 -18 -35
-30 -19 -11 -35 -24 -34 -28 5 -32 -24 -46 -47 -23 -11 11 -50 17 -176 25 -63
4 -97 11 -123 26 -19 12 -35 25 -35 30 0 13 7 11 37 -8z m242 -108 c27 -10 -6
-27 -58 -30 -52 -3 -103 18 -71 29 39 13 95 13 129 1z m3241 -294 c0 -5 -29
-41 -65 -79 -36 -38 -75 -83 -87 -98 -13 -16 -28 -35 -35 -42 -6 -6 -15 -21
-18 -32 -3 -11 -10 -20 -14 -20 -4 0 -22 -28 -40 -61 -43 -82 -55 -94 -75 -73
-23 22 -20 34 19 99 19 32 37 67 41 77 3 10 9 18 15 18 5 0 15 15 23 33 12 29
95 120 137 152 39 29 99 44 99 26z"/>
<path d="M1818 4069 c-10 -6 -18 -14 -18 -19 0 -14 37 -12 46 1 10 17 -9 29
-28 18z"/>
<path d="M2010 4010 c0 -5 7 -10 15 -10 8 0 15 5 15 10 0 6 -7 10 -15 10 -8 0
-15 -4 -15 -10z"/>
<path d="M1815 3980 c8 -16 15 -36 15 -44 0 -21 18 -30 35 -16 12 10 11 17
-11 45 -14 18 -32 36 -40 39 -12 5 -12 1 1 -24z"/>
<path d="M1910 3984 c0 -8 5 -12 10 -9 6 4 8 11 5 16 -9 14 -15 11 -15 -7z"/>
<path d="M2098 3973 c-20 -5 -23 -18 -7 -29 6 -3 18 0 26 9 17 16 7 26 -19 20z"/>
<path d="M1937 3939 c-10 -11 -16 -23 -13 -26 9 -9 57 27 51 37 -9 15 -19 12
-38 -11z"/>
<path d="M6265 3180 c-3 -5 -3 -15 1 -21 6 -11 23 6 24 24 0 10 -18 9 -25 -3z"/>
<path d="M5530 1650 c0 -5 5 -10 10 -10 6 0 10 5 10 10 0 6 -4 10 -10 10 -5 0
-10 -4 -10 -10z"/>
<path d="M3309 6958 c-51 -18 -75 -78 -54 -138 24 -71 10 -107 -72 -183 -58
-53 -86 -62 -233 -73 -68 -5 -94 -11 -130 -33 -57 -34 -70 -61 -71 -152 -2
-140 0 -159 16 -153 8 4 13 10 10 14 -3 4 13 24 35 44 48 43 76 38 34 -5 -15
-16 -24 -29 -18 -29 5 0 1 -5 -8 -11 -10 -5 -26 -29 -36 -52 -27 -59 -54 -82
-81 -67 -18 9 -23 7 -33 -17 -7 -15 -15 -30 -18 -33 -3 -3 -30 -39 -60 -80
-29 -41 -56 -77 -59 -80 -8 -6 -34 -47 -60 -94 -25 -44 -11 -56 29 -24 38 30
320 316 390 396 30 35 75 96 100 137 25 41 90 127 145 192 206 242 237 295
211 369 -13 39 -13 43 7 62 20 21 20 21 0 19 -11 0 -31 -5 -44 -9z"/>
<path d="M3750 6950 c-13 -8 -12 -10 3 -10 9 0 17 5 17 10 0 12 -1 12 -20 0z"/>
<path d="M3647 6808 c-20 -19 -69 -64 -109 -99 -93 -83 -158 -151 -158 -166 0
-12 47 -53 61 -53 4 0 10 8 14 18 3 9 26 40 51 67 25 28 62 70 82 95 21 25 43
51 50 58 6 7 12 19 12 26 0 7 9 25 21 40 33 42 17 52 -24 14z"/>
<path d="M3001 6713 c-35 -28 -67 -58 -90 -86 -17 -21 2 -23 23 -2 8 9 30 22
48 30 41 17 90 63 83 76 -10 15 -28 10 -64 -18z"/>
<path d="M5310 6725 c0 -19 18 -19 61 0 l34 14 -47 1 c-36 0 -48 -4 -48 -15z"/>
<path d="M5155 6632 c-3 -3 -49 -10 -74 -11 -11 -1 -12 -4 -5 -11 13 -13 138
-16 172 -6 12 4 22 12 22 17 0 5 -10 10 -22 10 -64 3 -90 4 -93 1z"/>
<path d="M5323 6632 c-56 -9 -9 -32 64 -32 41 0 67 16 41 25 -21 7 -81 11
-105 7z"/>
<path d="M5548 6573 c7 -3 16 -2 19 1 4 3 -2 6 -13 5 -11 0 -14 -3 -6 -6z"/>
<path d="M3663 6363 c-67 -70 -106 -121 -109 -139 -3 -17 39 -31 44 -15 2 6
10 11 17 11 8 0 16 8 19 18 4 10 22 36 42 58 20 21 40 49 45 62 5 12 14 21 21
20 7 -2 12 6 13 17 0 41 -35 28 -92 -32z"/>
<path d="M4687 6303 c-12 -12 -7 -22 8 -17 8 4 15 10 15 15 0 11 -14 12 -23 2z"/>
<path d="M5005 6290 c3 -5 11 -10 16 -10 6 0 7 5 4 10 -3 6 -11 10 -16 10 -6
0 -7 -4 -4 -10z"/>
<path d="M5460 6291 c0 -11 26 -22 34 -14 12 12 5 23 -14 23 -11 0 -20 -4 -20
-9z"/>
<path d="M7730 6290 c0 -5 16 -10 35 -10 19 0 35 5 35 10 0 6 -16 10 -35 10
-19 0 -35 -4 -35 -10z"/>
<path d="M4637 6265 c-9 -8 -20 -15 -26 -15 -5 0 -14 -8 -20 -17 -6 -12 -21
-17 -48 -16 -38 1 -40 -1 -35 -26 l5 -26 -36 28 c-19 15 -45 27 -57 27 -28 0
-210 -181 -235 -232 -9 -21 -21 -38 -25 -38 -5 0 -27 -18 -50 -40 -23 -22 -48
-40 -56 -40 -8 0 -14 -3 -14 -7 0 -5 -19 -17 -42 -28 -47 -23 -138 -108 -138
-130 0 -8 -4 -15 -10 -15 -5 0 -10 -7 -10 -15 0 -30 -113 -127 -132 -113 -7 4
-48 -24 -48 -33 0 -5 11 -14 25 -19 19 -7 25 -17 25 -38 0 -21 13 -43 41 -73
59 -65 79 -108 27 -59 -22 20 -98 29 -98 11 0 -4 17 -20 38 -34 20 -14 57 -44
82 -66 52 -47 56 -48 65 -21 7 22 25 27 25 7 0 -7 20 -25 44 -41 55 -34 178
-158 211 -211 13 -22 25 -54 25 -71 0 -29 66 -144 91 -159 5 -4 9 -23 9 -44 0
-21 6 -51 14 -66 17 -32 12 -52 -15 -60 -42 -14 -19 -51 146 -232 59 -65 112
-103 177 -128 26 -10 53 -24 59 -31 6 -8 20 -14 31 -14 11 0 54 -17 96 -37 71
-34 84 -37 163 -36 48 0 95 5 105 11 17 10 16 11 -8 12 -42 0 -34 25 12 40 22
7 45 19 51 26 6 7 26 18 44 24 44 14 81 59 96 113 6 23 20 52 31 64 20 21 17
46 -5 41 -20 -4 -67 12 -67 23 0 5 16 17 35 25 19 8 35 18 35 24 0 29 -72 29
-128 1 -42 -22 -59 -16 -22 7 11 7 20 16 20 22 0 11 -33 30 -62 35 -12 3 -24
9 -28 15 -4 6 -33 15 -65 20 -32 5 -61 14 -65 19 -3 6 -28 15 -55 21 -28 6
-75 26 -105 44 -123 74 -149 80 -117 25 16 -29 25 -87 9 -63 -4 7 -24 17 -45
22 -56 16 -203 134 -191 153 3 5 -3 12 -13 16 -20 7 -63 51 -63 65 0 4 5 8 10
8 6 0 10 -4 10 -9 0 -5 10 -13 22 -17 13 -4 28 -14 34 -22 6 -8 16 -12 22 -8
15 9 16 36 2 36 -5 0 -10 5 -10 11 0 7 10 9 24 5 14 -3 36 -1 50 5 20 10 34 9
69 -5 42 -16 77 -21 77 -11 0 3 -9 14 -20 25 -20 20 -19 40 0 40 5 0 31 -23
59 -51 54 -54 75 -58 61 -10 -9 33 -5 41 22 41 19 0 95 21 149 42 15 5 36 18
47 28 26 24 142 99 227 146 78 42 120 46 204 19 83 -28 149 -5 190 65 6 11 4
27 -7 49 -22 47 -157 179 -170 167 -2 -2 6 -22 18 -45 11 -23 16 -41 12 -41
-15 0 -61 50 -68 74 -4 11 -15 27 -25 34 -11 7 -19 22 -19 33 0 11 -13 40 -30
64 -16 24 -30 51 -30 60 0 8 -12 21 -27 27 -16 7 -35 20 -44 30 -22 24 -31 11
-15 -21 29 -56 70 -201 60 -211 -12 -12 -105 74 -161 150 -43 59 -64 80 -85
84 -7 1 -30 10 -51 19 -43 18 -106 37 -152 44 -16 3 -48 13 -70 23 -22 10 -55
20 -73 23 -44 7 -48 12 -34 42 11 23 28 31 77 38 36 5 27 22 -15 30 -45 9 -50
28 -8 33 51 5 101 14 110 21 14 8 -16 24 -55 29 -94 12 -110 16 -132 30 -42
27 -39 43 15 93 45 41 50 50 42 71 -7 18 -5 31 5 47 17 26 1 40 -20 18z m-47
-274 c0 -12 -20 -25 -27 -18 -7 7 6 27 18 27 5 0 9 -4 9 -9z m386 -338 c-10
-10 -19 5 -10 18 6 11 8 11 12 0 2 -7 1 -15 -2 -18z m-178 -101 c55 -27 135
-74 151 -90 8 -8 25 -18 38 -23 34 -13 28 -28 -11 -24 -19 1 -61 21 -96 45
-92 63 -112 66 -188 30 -72 -33 -92 -37 -92 -15 0 17 11 27 70 63 55 34 81 37
128 14z m-232 -108 c-3 -8 -10 -14 -16 -14 -14 0 -13 57 3 83 11 21 12 20 15
-17 2 -21 1 -44 -2 -52z m30 -229 c3 -17 -12 -20 -21 -5 -7 12 4 34 13 25 3
-3 7 -12 8 -20z m73 -57 c21 -13 28 -28 12 -28 -37 0 -71 15 -71 31 0 20 24
19 59 -3z m-315 -493 c3 -8 1 -15 -4 -15 -6 0 -10 7 -10 15 0 8 2 15 4 15 2 0
6 -7 10 -15z m346 -31 c0 -8 -4 -12 -10 -9 -5 3 -10 10 -10 16 0 5 5 9 10 9 6
0 10 -7 10 -16z m-373 -79 c20 -14 38 -55 23 -55 -4 0 -19 12 -34 26 -39 40
-33 60 11 29z m80 -101 c-9 -10 -38 16 -31 28 4 6 13 4 22 -6 9 -8 13 -19 9
-22z"/>
<path d="M4760 6271 c-22 -6 -23 -8 -7 -14 31 -12 79 -8 75 6 -5 14 -34 18
-68 8z"/>
<path d="M4701 6231 c-9 -6 -10 -11 -2 -15 13 -8 31 1 31 15 0 11 -11 11 -29
0z"/>
<path d="M5360 6230 c0 -5 15 -24 33 -41 70 -68 113 -79 56 -15 -34 39 -89 74
-89 56z"/>
<path d="M7756 6233 c-3 -3 -3 -10 0 -14 7 -12 34 -11 34 0 0 11 -26 22 -34
14z"/>
<path d="M2717 6203 c-4 -3 -7 -17 -7 -30 0 -33 24 -24 28 10 3 26 -7 35 -21
20z"/>
<path d="M8122 6183 c-6 -3 -10 -9 -6 -14 7 -12 44 -12 44 0 0 11 -21 19 -38
14z"/>
<path d="M4780 6171 c0 -15 39 -19 51 -5 9 11 6 14 -20 14 -17 0 -31 -4 -31
-9z"/>
<path d="M5116 6121 c-4 -7 -5 -15 -2 -18 9 -9 19 4 14 18 -4 11 -6 11 -12 0z"/>
<path d="M4775 6110 c3 -5 8 -10 11 -10 2 0 4 5 4 10 0 6 -5 10 -11 10 -5 0
-7 -4 -4 -10z"/>
<path d="M5382 6113 c-10 -4 -10 -8 -1 -19 16 -19 41 -18 37 3 -3 18 -16 24
-36 16z"/>
<path d="M5510 6104 c0 -8 5 -12 10 -9 6 3 10 10 10 16 0 5 -4 9 -10 9 -5 0
-10 -7 -10 -16z"/>
<path d="M5630 6105 c0 -8 4 -15 10 -15 5 0 7 7 4 15 -4 8 -8 15 -10 15 -2 0
-4 -7 -4 -15z"/>
<path d="M5846 6111 c-3 -5 1 -11 9 -15 8 -3 15 -1 15 4 0 13 -18 22 -24 11z"/>
<path d="M8262 6108 c-19 -19 -14 -28 14 -28 18 0 25 5 22 17 -4 21 -21 26
-36 11z"/>
<path d="M5160 6086 c0 -27 113 -106 124 -87 6 9 -32 46 -81 79 -37 26 -43 27
-43 8z"/>
<path d="M4896 6082 c-3 -6 1 -15 8 -21 8 -7 17 -8 20 -3 3 6 -1 15 -8 21 -8
7 -17 8 -20 3z"/>
<path d="M4830 6066 c0 -9 5 -16 10 -16 6 0 10 4 10 9 0 6 -4 13 -10 16 -5 3
-10 -1 -10 -9z"/>
<path d="M5440 6046 c0 -14 49 -36 79 -36 11 1 7 8 -14 25 -33 27 -65 33 -65
11z"/>
<path d="M5770 6020 c0 -5 9 -10 21 -10 11 0 17 5 14 10 -3 6 -13 10 -21 10
-8 0 -14 -4 -14 -10z"/>
<path d="M8271 6009 c9 -13 36 -31 60 -39 50 -17 109 -51 109 -62 0 -4 5 -8
11 -8 19 0 -31 59 -77 91 -24 17 -61 33 -82 36 l-37 6 16 -24z"/>
<path d="M5550 5968 c-24 -32 -20 -49 6 -27 9 7 25 18 36 24 26 12 25 30 -1
31 -11 1 -29 -12 -41 -28z"/>
<path d="M5699 6000 c0 -3 -2 -13 -4 -22 -4 -20 10 -24 21 -7 3 6 1 16 -5 22
-6 6 -11 9 -12 7z"/>
<path d="M5854 5989 c-8 -13 25 -24 37 -12 7 7 3 12 -10 16 -12 3 -24 1 -27
-4z"/>
<path d="M4910 5969 c0 -5 5 -7 10 -4 6 3 10 8 10 11 0 2 -4 4 -10 4 -5 0 -10
-5 -10 -11z"/>
<path d="M4960 5933 c0 -12 92 -93 100 -88 5 3 10 -3 12 -12 2 -12 6 -14 11
-7 8 13 -89 114 -109 114 -8 0 -14 -3 -14 -7z"/>
<path d="M5579 5910 c-10 -7 -11 -12 -2 -21 15 -15 47 -8 51 11 3 18 -26 23
-49 10z"/>
<path d="M8290 5891 c-22 -18 -30 -30 -22 -35 13 -8 58 18 66 39 10 26 -10 24
-44 -4z"/>
<path d="M5840 5900 c0 -5 5 -10 11 -10 5 0 7 5 4 10 -3 6 -8 10 -11 10 -2 0
-4 -4 -4 -10z"/>
<path d="M7369 5884 c0 -10 -3 -28 -5 -39 -6 -23 -6 -187 0 -225 2 -14 4 -29
5 -34 0 -6 5 -6 11 0 12 12 18 52 26 184 6 88 5 96 -15 114 -21 19 -21 19 -22
0z"/>
<path d="M8030 5874 c0 -8 5 -12 10 -9 6 3 10 10 10 16 0 5 -4 9 -10 9 -5 0
-10 -7 -10 -16z"/>
<path d="M5662 5862 c4 -20 34 -24 49 -6 6 8 8 15 3 15 -45 7 -55 5 -52 -9z"/>
<path d="M6215 5871 c-3 -5 -1 -12 5 -16 5 -3 10 1 10 9 0 18 -6 21 -15 7z"/>
<path d="M8392 5864 c5 -26 53 -58 75 -49 16 6 16 8 -6 16 -14 5 -31 19 -38
29 -17 24 -36 26 -31 4z"/>
<path d="M6030 5849 c0 -8 16 -30 35 -49 19 -19 35 -31 35 -27 0 18 -25 57
-36 57 -7 0 -18 8 -23 18 -9 14 -10 14 -11 1z"/>
<path d="M5740 5824 c0 -8 5 -12 10 -9 6 4 8 11 5 16 -9 14 -15 11 -15 -7z"/>
<path d="M8511 5816 c-13 -14 -20 -29 -16 -35 10 -17 40 -13 60 9 15 16 15 22
5 35 -17 20 -23 19 -49 -9z"/>
<path d="M5110 5796 c0 -8 5 -18 10 -21 6 -3 10 1 10 9 0 8 -4 18 -10 21 -5 3
-10 -1 -10 -9z"/>
<path d="M5640 5785 c0 -8 4 -15 10 -15 5 0 7 7 4 15 -4 8 -8 15 -10 15 -2 0
-4 -7 -4 -15z"/>
<path d="M8160 5785 c0 -8 5 -15 10 -15 6 0 10 7 10 15 0 8 -4 15 -10 15 -5 0
-10 -7 -10 -15z"/>
<path d="M8265 5790 c-9 -15 -1 -23 21 -18 15 3 16 4 1 16 -11 9 -17 10 -22 2z"/>
<path d="M5810 5780 c0 -5 5 -10 10 -10 6 0 10 5 10 10 0 6 -4 10 -10 10 -5 0
-10 -4 -10 -10z"/>
<path d="M6267 5764 c15 -12 32 -19 37 -14 13 13 -1 27 -34 32 l-31 5 28 -23z"/>
<path d="M8390 5777 c0 -18 94 -107 113 -107 8 0 21 8 30 18 16 17 14 19 -26
37 -23 10 -44 21 -47 24 -3 3 -20 14 -37 24 -27 15 -33 15 -33 4z"/>
<path d="M6164 5766 c-10 -8 -16 -17 -13 -20 3 -4 17 2 30 13 27 23 13 28 -17
7z"/>
<path d="M5140 5745 c0 -8 4 -15 10 -15 5 0 7 7 4 15 -4 8 -8 15 -10 15 -2 0
-4 -7 -4 -15z"/>
<path d="M5980 5750 c-12 -8 -12 -10 3 -16 21 -8 35 2 21 16 -5 5 -15 6 -24 0z"/>
<path d="M6064 5708 c-3 -4 6 -8 20 -8 14 0 26 4 26 9 0 11 -39 10 -46 -1z"/>
<path d="M6182 5690 c-30 -28 -28 -38 8 -36 34 2 35 3 44 34 10 29 -21 30 -52
2z"/>
<path d="M6496 5675 c-4 -10 6 -18 34 -26 22 -7 40 -16 40 -20 0 -5 15 -11 34
-14 19 -4 43 -14 53 -24 19 -17 46 -22 51 -8 6 18 0 27 -17 27 -11 0 -22 4
-25 8 -8 13 -131 72 -149 72 -8 0 -17 -7 -21 -15z"/>
<path d="M2246 5671 c-24 -9 -10 -19 27 -19 30 1 36 12 11 22 -9 3 -16 6 -17
5 -1 0 -11 -4 -21 -8z"/>
<path d="M5980 5670 c-8 -5 -13 -10 -10 -11 3 0 14 -2 24 -4 26 -5 42 5 25 16
-18 11 -21 11 -39 -1z"/>
<path d="M7686 5671 c-4 -7 -5 -15 -2 -18 9 -9 19 4 14 18 -4 11 -6 11 -12 0z"/>
<path d="M8320 5665 c0 -16 16 -20 24 -6 3 5 -1 11 -9 15 -9 3 -15 0 -15 -9z"/>
<path d="M8111 5630 c-9 -5 -8 -9 5 -14 9 -4 21 -3 26 2 12 12 -15 23 -31 12z"/>
<path d="M8240 5632 c0 -29 103 -83 122 -64 13 13 2 32 -18 32 -8 0 -32 9 -54
20 -44 22 -50 24 -50 12z"/>
<path d="M2028 5613 c7 -3 16 -2 19 1 4 3 -2 6 -13 5 -11 0 -14 -3 -6 -6z"/>
<path d="M8153 5599 c-14 -14 -6 -39 13 -39 7 0 19 -8 26 -19 7 -10 22 -21 34
-25 20 -6 25 -30 10 -54 -13 -21 9 -13 32 11 l22 24 -55 56 c-60 61 -65 63
-82 46z"/>
<path d="M5765 5590 c-3 -5 -1 -10 4 -10 6 0 11 5 11 10 0 6 -2 10 -4 10 -3 0
-8 -4 -11 -10z"/>
<path d="M6158 5571 c-1 -6 -16 -12 -33 -14 -37 -5 -49 -37 -13 -37 29 0 68
26 68 46 0 16 -16 19 -22 5z"/>
<path d="M5830 5542 c0 -16 32 -12 37 5 3 7 -4 11 -16 10 -12 -1 -21 -7 -21
-15z"/>
<path d="M8388 5538 c9 -9 15 -9 24 0 9 9 7 12 -12 12 -19 0 -21 -3 -12 -12z"/>
<path d="M2236 5472 c-3 -4 4 -9 15 -9 23 -2 25 3 4 10 -8 4 -16 3 -19 -1z"/>
<path d="M8470 5466 c0 -9 5 -16 10 -16 6 0 10 4 10 9 0 6 -4 13 -10 16 -5 3
-10 -1 -10 -9z"/>
<path d="M8510 5431 c0 -12 29 -23 42 -15 6 4 5 10 -3 15 -18 11 -39 11 -39 0z"/>
<path d="M6175 5369 c-20 -13 -44 -19 -72 -17 -23 1 -45 -1 -49 -5 -8 -8 58
-37 90 -40 33 -3 83 19 96 42 22 43 -13 54 -65 20z"/>
<path d="M8312 5353 c5 -25 28 -28 28 -4 0 12 -6 21 -16 21 -9 0 -14 -7 -12
-17z"/>
<path d="M8390 5300 c0 -5 5 -10 10 -10 6 0 10 5 10 10 0 6 -4 10 -10 10 -5 0
-10 -4 -10 -10z"/>
<path d="M7317 5283 c-13 -12 -7 -42 17 -85 13 -24 24 -47 24 -51 -1 -14 76
-126 90 -132 45 -17 11 79 -71 202 -52 78 -50 76 -60 66z"/>
<path d="M5736 5271 c-3 -4 9 -8 25 -9 16 -1 50 -14 75 -28 64 -36 122 -39
146 -9 34 44 20 57 -34 29 -28 -15 -35 -15 -82 0 -59 19 -124 27 -130 17z"/>
<path d="M7571 5204 c0 -11 3 -14 6 -6 3 7 2 16 -1 19 -3 4 -6 -2 -5 -13z"/>
<path d="M7670 5200 c0 -11 5 -20 10 -20 6 0 10 9 10 20 0 11 -4 20 -10 20 -5
0 -10 -9 -10 -20z"/>
<path d="M7480 5197 c0 -14 33 -67 42 -67 4 0 8 3 8 8 0 10 -49 69 -50 59z"/>
<path d="M5999 5169 c-3 -47 -8 -63 -24 -75 -10 -8 -16 -17 -12 -20 7 -7 74
-8 190 -4 66 2 77 5 72 19 -3 10 6 23 25 36 48 32 37 36 -162 51 -71 5 -88 4
-89 -7z"/>
<path d="M8098 5093 c-10 -2 -18 -6 -18 -8 0 -4 48 -76 55 -83 6 -7 65 52 62
62 -2 5 -19 10 -38 11 -21 0 -33 5 -31 13 2 12 -1 13 -30 5z"/>
<path d="M7750 5071 c0 -5 5 -13 10 -16 6 -3 10 -2 10 4 0 5 -4 13 -10 16 -5
3 -10 2 -10 -4z"/>
<path d="M7960 5040 c0 -11 2 -20 5 -20 2 0 9 9 15 20 9 16 8 20 -5 20 -8 0
-15 -9 -15 -20z"/>
<path d="M7200 4991 c0 -12 5 -21 10 -21 6 0 10 6 10 14 0 8 -4 18 -10 21 -5
3 -10 -3 -10 -14z"/>
<path d="M5953 4981 c-17 -11 -59 -22 -93 -26 -62 -6 -123 -23 -87 -24 27 -1
20 -27 -10 -40 -18 -7 -36 -29 -50 -57 l-22 -45 26 -10 c43 -16 185 -9 208 11
11 10 36 22 55 29 49 16 109 45 110 52 0 3 -19 5 -42 4 -67 -2 -91 8 -104 42
-13 30 -13 30 29 43 76 23 74 21 52 30 -30 13 -37 12 -72 -9z"/>
<path d="M3945 4961 c-6 -11 9 -23 19 -14 9 9 7 23 -3 23 -6 0 -12 -4 -16 -9z"/>
<path d="M8145 4950 c-3 -5 -2 -10 4 -10 5 0 13 5 16 10 3 6 2 10 -4 10 -5 0
-13 -4 -16 -10z"/>
<path d="M7240 4934 c0 -20 78 -141 114 -177 15 -15 24 -27 21 -27 -3 0 4 -9
16 -21 11 -11 23 -18 26 -16 11 11 -10 47 -82 142 -41 55 -75 103 -75 107 0 5
-4 8 -10 8 -5 0 -10 -7 -10 -16z"/>
<path d="M2323 4917 c2 -7 14 -14 28 -15 19 -3 22 -1 12 9 -17 17 -45 21 -40
6z"/>
<path d="M4510 4874 c0 -8 5 -12 10 -9 6 4 8 11 5 16 -9 14 -15 11 -15 -7z"/>
<path d="M4460 4836 c0 -9 5 -16 10 -16 6 0 10 4 10 9 0 6 -4 13 -10 16 -5 3
-10 -1 -10 -9z"/>
<path d="M4785 4830 c3 -5 8 -10 11 -10 2 0 4 5 4 10 0 6 -5 10 -11 10 -5 0
-7 -4 -4 -10z"/>
<path d="M5135 4830 c-8 -13 15 -24 27 -12 6 6 4 11 -6 15 -8 3 -18 2 -21 -3z"/>
<path d="M4690 4820 c0 -5 4 -10 9 -10 6 0 13 5 16 10 3 6 -1 10 -9 10 -9 0
-16 -4 -16 -10z"/>
<path d="M6160 4805 c-47 -25 -42 -29 29 -27 38 2 68 23 57 41 -10 16 -35 12
-86 -14z"/>
<path d="M5963 4750 c-39 -16 -57 -70 -23 -70 11 0 20 7 20 15 0 9 12 27 26
40 27 26 18 31 -23 15z"/>
<path d="M5180 4740 c0 -5 7 -10 15 -10 8 0 15 5 15 10 0 6 -7 10 -15 10 -8 0
-15 -4 -15 -10z"/>
<path d="M2240 4727 c0 -19 16 -31 24 -18 3 5 -1 14 -9 21 -12 10 -15 10 -15
-3z"/>
<path d="M5825 4730 c-4 -6 -10 -8 -14 -6 -11 7 -34 -11 -28 -21 9 -14 104
-16 112 -3 9 14 4 19 -21 23 -10 1 -24 6 -31 10 -6 4 -14 3 -18 -3z"/>
<path d="M4193 4723 c-7 -3 -13 -16 -13 -29 0 -17 6 -24 20 -24 15 0 20 7 20
24 0 27 -8 36 -27 29z"/>
<path d="M4847 4713 c-14 -13 -6 -23 16 -19 12 3 24 5 27 5 6 2 -23 21 -31 21
-3 0 -9 -3 -12 -7z"/>
<path d="M7655 4710 c3 -5 11 -10 16 -10 6 0 7 5 4 10 -3 6 -11 10 -16 10 -6
0 -7 -4 -4 -10z"/>
<path d="M4981 4671 c-9 -6 -6 -10 11 -16 39 -13 108 -17 108 -7 0 17 -98 36
-119 23z"/>
<path d="M4225 4628 c1 -13 6 -23 11 -23 5 0 10 10 12 23 2 14 -2 22 -11 22
-8 0 -13 -9 -12 -22z"/>
<path d="M5985 4640 c-3 -5 -2 -10 4 -10 5 0 13 5 16 10 3 6 2 10 -4 10 -5 0
-13 -4 -16 -10z"/>
<path d="M5162 4594 c2 -8 6 -15 11 -15 4 1 18 1 32 1 16 0 25 6 25 15 0 11
-11 15 -36 15 -27 0 -35 -4 -32 -16z"/>
<path d="M6090 4590 c-17 -11 21 -19 45 -9 11 4 18 8 15 10 -15 6 -50 5 -60
-1z"/>
<path d="M6247 4549 c7 -7 15 -10 18 -7 3 3 -2 9 -12 12 -14 6 -15 5 -6 -5z"/>
<path d="M5850 4520 c0 -13 12 -18 58 -24 39 -5 63 6 43 19 -17 10 -101 15
-101 5z"/>
<path d="M2030 4474 c0 -8 5 -12 10 -9 6 3 10 10 10 16 0 5 -4 9 -10 9 -5 0
-10 -7 -10 -16z"/>
<path d="M6226 4471 c-7 -10 52 -26 61 -17 9 9 -1 16 -30 22 -14 2 -28 0 -31
-5z"/>
<path d="M1960 4326 c0 -17 14 -29 23 -20 8 8 -3 34 -14 34 -5 0 -9 -6 -9 -14z"/>
<path d="M3833 4276 c5 -43 1 -49 -25 -35 -30 16 -33 4 -13 -43 21 -49 62 -98
82 -98 7 0 13 -4 13 -8 0 -5 12 -14 26 -21 22 -9 31 -9 49 3 20 13 25 13 35 1
9 -10 7 -16 -7 -23 -16 -9 -14 -12 12 -22 17 -7 48 -21 71 -31 23 -11 46 -19
51 -19 11 0 96 -32 153 -58 19 -9 37 -17 40 -17 29 -4 222 -109 325 -177 140
-92 285 -171 349 -190 54 -16 116 -76 117 -114 5 -96 1 -120 -30 -207 -21 -63
-97 -161 -138 -180 -12 -5 -23 -14 -23 -18 0 -4 -8 -10 -17 -13 -10 -3 -38
-25 -62 -48 -32 -31 -40 -44 -28 -46 14 -3 55 18 84 43 6 5 26 21 44 35 71 54
209 203 209 226 0 4 16 47 36 96 46 114 42 138 -29 210 -82 84 -131 117 -160
110 -4 -1 -12 9 -17 22 -13 34 -27 40 -54 23 -30 -20 -53 -16 -72 11 -8 12
-22 22 -30 22 -8 0 -15 6 -15 13 -1 6 -2 19 -3 27 -1 10 -10 14 -29 12 -18 -2
-40 7 -65 27 -20 16 -54 35 -74 42 -21 7 -38 19 -38 25 0 10 -89 77 -158 119
-10 6 -19 12 -22 15 -11 12 -68 46 -110 67 -25 12 -54 31 -64 42 -11 12 -25
21 -33 21 -7 0 -13 6 -13 13 0 7 -16 21 -35 30 -19 9 -35 21 -35 27 0 5 -7 10
-16 10 -8 0 -13 -4 -9 -9 3 -5 1 -12 -5 -16 -9 -6 -178 78 -190 94 -4 5 -17
12 -73 39 -4 2 -6 -12 -4 -32z"/>
<path d="M2000 4281 c0 -6 5 -13 10 -16 6 -3 10 1 10 9 0 9 -4 16 -10 16 -5 0
-10 -4 -10 -9z"/>
<path d="M4044 4255 c11 -24 34 -40 44 -30 6 6 -17 34 -39 45 -15 9 -16 7 -5
-15z"/>
<path d="M5610 4189 c0 -5 5 -7 10 -4 6 3 10 8 10 11 0 2 -4 4 -10 4 -5 0 -10
-5 -10 -11z"/>
<path d="M6262 4164 c4 -21 22 -23 26 -1 2 10 -3 17 -13 17 -10 0 -15 -6 -13
-16z"/>
<path d="M5260 4080 c0 -13 32 -17 120 -14 120 3 118 2 100 14 -17 10 -220 11
-220 0z"/>
<path d="M2577 4039 c16 -16 35 -23 73 -24 27 -2 52 1 55 5 5 8 -67 30 -120
37 l-30 4 22 -22z"/>
<path d="M2740 4011 c0 -16 21 -24 62 -26 41 -2 60 11 37 26 -19 12 -99 11
-99 0z"/>
<path d="M6238 4014 c-2 -1 -17 -5 -33 -8 -17 -2 -32 -5 -35 -6 -12 -5 127
-35 143 -32 24 6 21 29 -4 37 -25 8 -67 13 -71 9z"/>
<path d="M5378 3997 c-23 -8 -23 -9 -3 -23 27 -20 10 -30 -64 -39 -76 -9 -141
-26 -141 -36 0 -20 135 -81 255 -115 33 -9 69 -25 81 -35 26 -24 30 -24 59 7
23 25 24 25 55 9 36 -19 90 -28 90 -15 0 11 -70 60 -86 60 -7 0 -14 6 -17 14
-3 8 -23 20 -44 26 -21 7 -48 24 -61 37 -12 13 -27 21 -32 18 -6 -3 -10 1 -10
9 0 18 31 21 47 5 6 -6 26 -13 44 -15 19 -3 41 -14 49 -24 16 -20 51 -21 58
-2 2 7 -8 17 -22 23 -14 7 -26 16 -26 21 0 14 -27 38 -42 38 -7 0 -18 10 -23
23 -9 20 -17 22 -77 22 -37 1 -77 -3 -90 -8z"/>
<path d="M5840 4000 c0 -5 7 -10 16 -10 8 0 12 5 9 10 -3 6 -10 10 -16 10 -5
0 -9 -4 -9 -10z"/>
<path d="M2880 3959 c0 -5 5 -10 10 -10 32 -4 40 -3 43 6 1 5 -10 11 -25 12
-16 1 -28 -2 -28 -8z"/>
<path d="M5634 3958 c-6 -9 2 -10 63 -12 45 -1 57 8 24 19 -24 7 -81 3 -87 -7z"/>
<path d="M5962 3957 c-8 -10 -6 -13 9 -14 19 -2 26 11 10 21 -5 3 -14 0 -19
-7z"/>
<path d="M7093 3958 c-8 -14 -7 -151 3 -180 6 -19 29 -24 39 -9 3 6 8 44 12
86 5 64 3 78 -12 95 -21 23 -31 25 -42 8z"/>
<path d="M2975 3910 c3 -5 12 -10 19 -10 7 0 23 -9 36 -20 13 -11 26 -17 29
-14 3 3 -7 15 -23 27 -32 23 -71 34 -61 17z"/>
<path d="M6440 3910 c-6 -4 -100 -8 -209 -9 -108 -1 -207 -3 -219 -6 -39 -7
-46 -17 -21 -30 17 -9 70 -12 194 -9 93 2 181 5 195 8 60 10 111 28 108 38 -5
14 -31 18 -48 8z"/>
<path d="M7213 3862 c-5 -15 -8 -34 -8 -42 1 -8 3 -26 4 -40 2 -39 17 -6 19
41 1 23 4 45 7 49 3 5 1 11 -4 14 -5 3 -13 -6 -18 -22z"/>
<path d="M6989 3878 c-15 -51 -22 -119 -24 -258 -2 -119 1 -160 11 -177 13
-21 21 -50 23 -80 1 -18 31 -16 32 2 1 8 2 21 3 28 1 6 -3 23 -10 37 -14 30
-12 107 5 138 6 12 12 41 13 64 2 80 -27 248 -43 248 -5 0 -9 -1 -10 -2z"/>
<path d="M3103 3838 c3 -12 13 -13 47 -9 25 3 7 21 -21 21 -20 0 -29 -4 -26
-12z"/>
<path d="M2720 3800 c0 -15 110 -98 168 -127 49 -24 92 -64 92 -85 0 -4 -12
-13 -27 -19 -24 -9 -25 -11 -11 -25 12 -13 20 -14 37 -5 12 7 21 8 21 2 0 -13
54 -39 96 -47 46 -8 45 13 -1 60 -19 20 -42 47 -51 61 -9 14 -22 25 -28 25
-15 0 -36 56 -36 94 0 28 0 28 -26 11 -24 -16 -26 -15 -50 8 -22 22 -39 28
-166 52 -10 2 -18 0 -18 -5z"/>
<path d="M7440 3801 c0 -6 5 -13 10 -16 6 -3 10 1 10 9 0 9 -4 16 -10 16 -5 0
-10 -4 -10 -9z"/>
<path d="M3311 3772 c-24 -8 -9 -31 27 -43 20 -6 42 -15 47 -19 6 -5 32 -11
59 -15 68 -10 58 11 -24 52 -59 29 -80 35 -109 25z"/>
<path d="M7840 3761 c0 -5 5 -13 10 -16 6 -3 10 -2 10 4 0 5 -4 13 -10 16 -5
3 -10 2 -10 -4z"/>
<path d="M7166 3732 c-6 -11 -3 -33 9 -52 5 -8 16 -29 25 -48 l17 -33 25 33
c32 42 39 73 23 95 -11 15 -15 15 -29 4 -9 -7 -16 -20 -16 -27 0 -24 -17 -15
-24 11 -6 25 -20 33 -30 17z"/>
<path d="M7986 3724 c-19 -19 -12 -34 15 -34 12 0 19 7 19 19 0 27 -15 34 -34
15z"/>
<path d="M7875 3704 c-18 -18 -9 -44 15 -44 10 0 21 -9 25 -19 6 -19 71 -97
158 -191 62 -65 66 -76 51 -119 -7 -20 -9 -42 -4 -51 16 -30 212 -240 224
-240 15 0 2 27 -44 98 -27 42 -50 83 -50 92 0 9 -9 33 -20 55 -11 22 -20 50
-20 62 0 15 -9 27 -25 35 -22 10 -30 26 -26 51 0 4 -3 7 -9 7 -15 0 -60 77
-64 109 -3 29 -34 91 -51 103 -5 4 -14 3 -19 -2 -20 -20 -50 -9 -88 29 -33 35
-40 38 -53 25z"/>
<path d="M7640 3690 c0 -5 5 -10 10 -10 6 0 10 5 10 10 0 6 -4 10 -10 10 -5 0
-10 -4 -10 -10z"/>
<path d="M510 3681 c0 -5 5 -13 10 -16 6 -3 10 -2 10 4 0 5 -4 13 -10 16 -5 3
-10 2 -10 -4z"/>
<path d="M3056 3681 c-3 -5 0 -11 8 -14 15 -6 26 1 26 15 0 11 -27 10 -34 -1z"/>
<path d="M3546 3675 c-3 -9 0 -15 9 -15 8 0 15 7 15 15 0 8 -4 15 -9 15 -5 0
-11 -7 -15 -15z"/>
<path d="M5642 3679 c2 -7 12 -13 22 -15 23 -3 15 20 -8 24 -11 3 -17 -1 -14
-9z"/>
<path d="M5830 3674 c0 -14 3 -14 15 -4 8 7 15 14 15 16 0 2 -7 4 -15 4 -8 0
-15 -7 -15 -16z"/>
<path d="M7352 3679 c2 -6 8 -10 13 -10 5 0 11 4 13 10 2 6 -4 11 -13 11 -9 0
-15 -5 -13 -11z"/>
<path d="M3136 3641 c-7 -10 66 -51 89 -51 18 0 20 16 3 23 -7 3 -30 12 -50
21 -20 9 -39 12 -42 7z"/>
<path d="M7840 3640 c0 -5 7 -10 16 -10 8 0 12 5 9 10 -3 6 -10 10 -16 10 -5
0 -9 -4 -9 -10z"/>
<path d="M550 3630 c19 -13 30 -13 30 0 0 6 -10 10 -22 10 -19 0 -20 -2 -8
-10z"/>
<path d="M2802 3632 c-30 -5 -23 -26 9 -29 13 -1 37 -8 53 -17 29 -15 46 -13
46 4 0 5 -17 17 -37 26 -47 22 -44 21 -71 16z"/>
<path d="M5730 3629 c0 -5 5 -7 10 -4 6 3 10 8 10 11 0 2 -4 4 -10 4 -5 0 -10
-5 -10 -11z"/>
<path d="M7275 3621 c4 -7 -2 -22 -13 -34 -30 -34 -43 -64 -34 -84 9 -24 31
-27 51 -9 22 20 23 127 2 134 -9 3 -11 0 -6 -7z"/>
<path d="M7117 3570 c-6 -24 8 -36 17 -14 8 22 7 34 -3 34 -5 0 -11 -9 -14
-20z"/>
<path d="M7557 3584 c-8 -8 3 -34 14 -34 11 0 12 27 0 34 -4 3 -11 3 -14 0z"/>
<path d="M5855 3570 c-9 -14 18 -51 35 -48 23 5 18 40 -7 49 -13 5 -25 4 -28
-1z"/>
<path d="M3310 3554 c0 -8 5 -12 10 -9 6 3 10 10 10 16 0 5 -4 9 -10 9 -5 0
-10 -7 -10 -16z"/>
<path d="M7562 3443 c5 -24 25 -27 31 -3 4 15 0 20 -15 20 -13 0 -18 -6 -16
-17z"/>
<path d="M3195 3440 c-3 -5 -1 -10 4 -10 6 0 11 5 11 10 0 6 -2 10 -4 10 -3 0
-8 -4 -11 -10z"/>
<path d="M7896 3435 c4 -8 10 -12 15 -9 11 6 2 24 -11 24 -5 0 -7 -7 -4 -15z"/>
<path d="M3070 3430 c0 -5 6 -13 13 -17 8 -4 18 -16 24 -27 8 -15 11 -16 16
-3 7 18 -19 57 -39 57 -8 0 -14 -4 -14 -10z"/>
<path d="M7438 3397 c-3 -13 0 -35 5 -48 l9 -24 10 22 c11 23 3 73 -11 73 -5
0 -11 -11 -13 -23z"/>
<path d="M6918 3388 c-24 -44 -46 -96 -53 -127 -3 -17 -11 -33 -16 -36 -5 -4
-9 -13 -9 -22 0 -29 37 15 57 66 10 25 28 56 40 69 23 23 26 63 5 70 -6 2 -16
-7 -24 -20z"/>
<path d="M7940 3401 c0 -14 18 -23 31 -15 8 4 7 9 -2 15 -18 11 -29 11 -29 0z"/>
<path d="M7984 3362 c-6 -4 -16 -17 -22 -29 -15 -27 5 -37 30 -15 15 12 20 12
33 2 9 -7 19 -10 22 -6 4 4 1 11 -7 16 -8 5 -15 15 -15 22 0 15 -25 21 -41 10z"/>
<path d="M8070 3355 c0 -8 9 -15 20 -15 11 0 20 7 20 15 0 8 -9 15 -20 15 -11
0 -20 -7 -20 -15z"/>
<path d="M3310 3345 c0 -8 5 -15 10 -15 6 0 10 7 10 15 0 8 -4 15 -10 15 -5 0
-10 -7 -10 -15z"/>
<path d="M7366 3251 c-8 -13 4 -43 16 -39 5 2 9 7 9 11 -1 4 -1 14 -1 22 0 17
-16 20 -24 6z"/>
<path d="M7472 3218 c-7 -22 -22 -48 -32 -57 -20 -16 -24 -31 -35 -136 -4 -33
-13 -67 -21 -76 -17 -18 -18 -39 -3 -39 5 0 21 24 35 54 20 44 29 54 50 54 13
0 28 2 31 5 3 4 5 48 4 99 -2 141 -9 162 -29 96z"/>
<path d="M7565 3229 c-11 -33 -12 -159 -2 -159 5 0 5 -4 2 -10 -3 -5 -1 -10 4
-10 12 0 12 3 17 106 3 76 -8 114 -21 73z"/>
<path d="M6929 3220 c0 -3 -2 -13 -4 -22 -2 -10 1 -18 5 -18 15 0 19 15 9 30
-5 8 -9 13 -10 10z"/>
<path d="M7242 3151 c-17 -10 -19 -68 -4 -83 15 -15 28 -2 36 38 8 34 -10 59
-32 45z"/>
<path d="M6807 3133 c-13 -13 -7 -32 8 -27 8 4 15 12 15 20 0 15 -12 19 -23 7z"/>
<path d="M8390 3026 c0 -9 5 -16 10 -16 6 0 10 4 10 9 0 6 -4 13 -10 16 -5 3
-10 -1 -10 -9z"/>
<path d="M7030 3010 c0 -5 7 -10 15 -10 8 0 15 5 15 10 0 6 -7 10 -15 10 -8 0
-15 -4 -15 -10z"/>
<path d="M6931 2851 c-8 -5 -10 -14 -6 -21 6 -9 10 -8 17 4 12 21 7 28 -11 17z"/>
<path d="M160 2810 c0 -5 12 -10 26 -10 14 0 23 4 19 10 -3 6 -15 10 -26 10
-10 0 -19 -4 -19 -10z"/>
<path d="M6010 2797 c0 -12 14 -14 63 -8 5 1 5 6 2 11 -9 15 -65 12 -65 -3z"/>
<path d="M300 2765 c7 -8 16 -13 20 -10 4 3 20 -5 34 -16 30 -24 86 -36 86
-19 0 6 -12 15 -27 20 -16 5 -41 16 -56 25 -16 8 -38 15 -49 15 -17 0 -18 -3
-8 -15z"/>
<path d="M7240 2756 c0 -17 14 -29 23 -20 8 8 -3 34 -14 34 -5 0 -9 -6 -9 -14z"/>
<path d="M470 2690 c0 -15 33 -28 64 -24 36 4 45 12 26 24 -20 13 -90 13 -90
0z"/>
<path d="M605 2650 c3 -5 18 -10 33 -9 24 0 25 1 7 9 -28 12 -47 12 -40 0z"/>
<path d="M8510 2641 c0 -12 29 -23 42 -15 6 4 5 10 -3 15 -18 11 -39 11 -39 0z"/>
<path d="M710 2610 c0 -5 9 -10 20 -10 11 0 20 5 20 10 0 6 -9 10 -20 10 -11
0 -20 -4 -20 -10z"/>
<path d="M355 2600 c-4 -7 -1 -16 6 -21 22 -14 49 -10 49 6 0 8 -4 15 -9 15
-5 0 -16 3 -24 6 -8 3 -18 0 -22 -6z"/>
<path d="M8610 2601 c0 -11 26 -22 34 -14 3 3 3 10 0 14 -7 12 -34 11 -34 0z"/>
<path d="M0 2585 c0 -8 5 -15 10 -15 6 0 10 7 10 15 0 8 -4 15 -10 15 -5 0
-10 -7 -10 -15z"/>
<path d="M8689 2556 c-2 -2 -42 -7 -89 -9 -120 -8 -153 -19 -163 -56 -7 -29 2
-32 32 -10 37 27 76 36 153 34 54 -1 73 -6 105 -28 22 -15 45 -27 52 -27 7 0
10 -4 7 -9 -3 -5 1 -11 9 -15 33 -12 26 19 -11 52 -51 45 -90 72 -95 68z"/>
<path d="M566 2521 c-7 -10 33 -23 46 -15 5 3 6 10 3 15 -8 12 -42 12 -49 0z"/>
<path d="M1400 2490 c0 -5 5 -10 12 -10 6 0 21 -9 32 -19 21 -19 36 -24 69
-22 29 2 18 15 -32 39 -51 24 -81 28 -81 12z"/>
<path d="M37 2466 c-16 -12 -13 -14 27 -20 25 -4 55 -15 68 -25 27 -21 58 -23
58 -5 0 7 -9 16 -20 19 -11 3 -26 12 -33 20 -20 20 -79 26 -100 11z"/>
<path d="M8820 2431 c0 -14 51 -52 61 -45 16 10 9 23 -21 39 -34 17 -40 18
-40 6z"/>
<path d="M8170 2405 c0 -8 5 -16 10 -16 6 -1 16 -2 23 -3 6 -1 18 2 25 8 11 7
11 11 0 17 -22 14 -58 10 -58 -6z"/>
<path d="M8645 2400 c-3 -5 3 -10 14 -10 11 0 23 5 26 10 3 6 -3 10 -14 10
-11 0 -23 -4 -26 -10z"/>
<path d="M8910 2360 c0 -5 5 -10 10 -10 6 0 10 5 10 10 0 6 -4 10 -10 10 -5 0
-10 -4 -10 -10z"/>
<path d="M76 2321 c-14 -5 -16 -10 -7 -15 15 -9 41 -1 41 14 0 11 -7 12 -34 1z"/>
<path d="M8146 2291 c-3 -5 0 -13 7 -19 11 -9 22 -10 56 -3 2 1 -2 8 -9 16
-14 16 -46 20 -54 6z"/>
<path d="M8453 2288 c3 -20 20 -28 34 -16 20 16 15 28 -12 28 -15 0 -24 -5
-22 -12z"/>
<path d="M8747 2285 c-8 -18 11 -31 25 -17 11 11 3 32 -12 32 -4 0 -10 -7 -13
-15z"/>
<path d="M8880 2290 c0 -5 10 -18 22 -30 38 -35 53 -21 19 18 -19 23 -41 29
-41 12z"/>
<path d="M8240 2239 c0 -6 9 -13 19 -16 11 -3 22 -12 25 -20 6 -14 26 -10 26
5 0 8 -53 42 -64 42 -3 0 -6 -5 -6 -11z"/>
<path d="M5 2220 c3 -5 16 -10 28 -10 18 0 19 2 7 10 -20 13 -43 13 -35 0z"/>
<path d="M9020 2214 c0 -12 -5 -14 -17 -9 -10 4 -29 10 -43 12 -21 4 -23 2
-10 -9 8 -7 27 -30 42 -51 53 -78 241 -277 293 -311 13 -9 29 -16 35 -16 11 0
-8 21 -155 174 -122 127 -158 181 -130 192 19 8 19 20 0 28 -9 3 -15 0 -15
-10z"/>
<path d="M8613 2207 c-4 -7 -19 -21 -33 -30 l-24 -17 27 0 c15 0 27 4 27 8 0
5 12 14 26 20 14 7 22 17 19 22 -9 14 -33 12 -42 -3z"/>
<path d="M98 2192 c-20 -4 -25 -22 -5 -21 6 0 21 4 31 8 15 6 16 9 5 12 -8 3
-22 4 -31 1z"/>
<path d="M8400 2161 c0 -14 18 -23 31 -15 8 4 7 9 -2 15 -18 11 -29 11 -29 0z"/>
<path d="M8730 2160 c0 -6 10 -15 23 -19 12 -5 34 -21 49 -35 30 -29 81 -38
58 -11 -7 8 -19 15 -27 15 -8 0 -25 11 -38 24 -28 28 -65 43 -65 26z"/>
<path d="M4576 2142 c-2 -4 6 -8 20 -8 13 0 24 4 24 8 0 4 -9 8 -19 8 -11 0
-22 -4 -25 -8z"/>
<path d="M8240 2131 c0 -12 40 -51 52 -51 16 0 7 15 -23 38 -16 13 -29 19 -29
13z"/>
<path d="M6286 2095 c4 -8 7 -15 9 -15 2 0 5 7 9 15 3 9 0 15 -9 15 -9 0 -12
-6 -9 -15z"/>
<path d="M6530 2081 c0 -11 4 -21 9 -21 18 0 21 18 6 30 -13 10 -15 9 -15 -9z"/>
<path d="M9150 2090 c0 -5 7 -10 16 -10 8 0 12 5 9 10 -3 6 -10 10 -16 10 -5
0 -9 -4 -9 -10z"/>
<path d="M8169 2065 c-7 -25 5 -77 12 -55 3 8 3 29 -1 45 -5 25 -7 26 -11 10z"/>
<path d="M6160 2040 c0 -13 5 -18 15 -14 8 4 15 12 15 20 0 8 -7 14 -15 14 -8
0 -15 -9 -15 -20z"/>
<path d="M8885 2050 c-4 -6 7 -10 25 -10 18 0 29 4 25 10 -3 6 -15 10 -25 10
-10 0 -22 -4 -25 -10z"/>
<path d="M9200 2050 c0 -18 109 -122 120 -115 23 14 6 42 -48 80 -68 48 -72
50 -72 35z"/>
<path d="M7999 2038 c-2 -18 1 -41 7 -58 5 -11 8 -9 15 8 6 15 5 31 -1 43 -12
22 -19 24 -21 7z"/>
<path d="M8822 1985 c56 -55 70 -59 106 -32 20 16 14 27 -17 27 -17 0 -50 13
-74 30 -70 47 -77 35 -15 -25z"/>
<path d="M8480 2016 c0 -9 5 -16 10 -16 6 0 10 4 10 9 0 6 -4 13 -10 16 -5 3
-10 -1 -10 -9z"/>
<path d="M8950 2010 c0 -5 9 -10 21 -10 11 0 17 5 14 10 -3 6 -13 10 -21 10
-8 0 -14 -4 -14 -10z"/>
<path d="M8525 1991 c-3 -5 -1 -12 5 -16 5 -3 10 1 10 9 0 18 -6 21 -15 7z"/>
<path d="M9006 1984 c-25 -24 3 -68 64 -98 67 -34 77 -14 25 49 -47 58 -69 70
-89 49z"/>
<path d="M6290 1970 c0 -5 5 -10 10 -10 6 0 10 5 10 10 0 6 -4 10 -10 10 -5 0
-10 -4 -10 -10z"/>
<path d="M7170 1970 c0 -5 7 -10 15 -10 8 0 15 5 15 10 0 6 -7 10 -15 10 -8 0
-15 -4 -15 -10z"/>
<path d="M8455 1930 c22 -42 56 -91 88 -125 15 -16 27 -37 27 -47 0 -9 5 -20
10 -23 6 -4 21 -23 34 -43 45 -71 62 -84 95 -77 41 9 39 26 -10 77 -23 24 -58
66 -79 93 -38 50 -162 175 -174 175 -4 0 0 -13 9 -30z"/>
<path d="M7560 1930 c0 -5 5 -10 10 -10 6 0 10 5 10 10 0 6 -4 10 -10 10 -5 0
-10 -4 -10 -10z"/>
<path d="M8620 1933 c0 -17 46 -71 87 -103 25 -19 92 -79 150 -135 109 -104
147 -132 158 -115 11 17 -126 157 -215 220 -30 21 -79 61 -109 89 -50 48 -71
60 -71 44z"/>
<path d="M8931 1853 c32 -38 137 -115 150 -111 21 7 -133 138 -162 138 -6 0 0
-12 12 -27z"/>
<path d="M7494 1843 c-15 -15 -45 -66 -67 -113 -22 -47 -51 -97 -63 -113 -13
-15 -21 -33 -18 -41 3 -7 -2 -19 -12 -26 -14 -12 -17 -11 -26 4 -8 15 -12 16
-19 5 -4 -8 -3 -19 3 -26 8 -10 4 -13 -16 -13 -19 0 -37 -14 -71 -57 -44 -55
-112 -173 -100 -173 3 0 1 -8 -4 -19 -8 -14 -5 -23 10 -40 12 -12 24 -20 27
-16 3 3 0 11 -6 17 -18 18 -15 40 6 35 21 -5 71 24 119 69 20 19 38 32 40 30
6 -5 -21 -82 -41 -121 -20 -37 -20 -45 -1 -45 8 0 17 11 21 25 3 14 11 29 18
33 12 7 78 95 111 147 23 37 86 94 103 95 16 0 -5 -42 -43 -85 -38 -43 -105
-148 -105 -163 0 -16 45 14 100 66 19 18 42 31 51 30 19 -3 93 55 162 126 46
47 127 161 127 178 0 20 -42 5 -72 -25 -50 -51 -87 -72 -101 -58 -17 17 -25
13 -29 -16 -4 -34 -19 -38 -46 -15 -27 24 -28 41 -2 89 32 64 46 129 30 147
-16 21 -22 15 -25 -24 -2 -17 -12 -41 -23 -53 -24 -26 -51 -78 -55 -106 -2
-10 -16 -33 -32 -49 -17 -17 -41 -42 -54 -57 -12 -14 -26 -24 -29 -21 -3 3 2
14 10 23 24 27 59 103 53 112 -3 5 15 47 40 93 77 146 91 217 29 151z m-150
-425 c-10 -16 -22 -7 -17 13 4 15 8 17 14 8 4 -7 5 -17 3 -21z"/>
<path d="M256 1847 c6 -16 114 -87 132 -87 22 0 13 18 -15 28 -16 5 -45 24
-67 41 -41 33 -59 39 -50 18z"/>
<path d="M6680 1835 c0 -9 6 -12 15 -9 8 4 15 10 15 15 0 5 -7 9 -15 9 -8 0
-15 -7 -15 -15z"/>
<path d="M8287 1822 c-9 -10 -22 -32 -28 -49 -12 -37 -37 -51 -45 -25 -22 72
-55 64 -67 -16 -7 -44 -13 -49 -34 -30 -37 32 -58 -9 -29 -55 8 -12 24 -64 35
-116 12 -52 27 -101 35 -110 16 -19 26 -48 32 -99 5 -40 25 -67 55 -75 17 -5
19 -2 13 16 -8 24 -14 148 -8 159 6 9 54 -15 54 -27 0 -6 15 -26 33 -46 17
-19 43 -51 57 -72 23 -34 60 -51 60 -27 0 6 -4 10 -9 10 -5 0 -15 15 -22 32
-7 18 -26 46 -42 63 -58 60 -78 118 -47 135 11 6 19 14 19 18 -3 19 2 33 10
28 5 -4 7 -20 4 -37 -6 -41 3 -67 19 -51 7 7 18 12 25 12 19 0 16 -27 -3 -34
-13 -5 -14 -9 -4 -21 7 -8 16 -13 20 -10 4 3 20 -5 34 -16 31 -24 43 -20 25 8
-8 13 -9 36 -5 67 7 45 9 47 25 32 10 -9 23 -16 29 -16 7 0 12 -6 12 -14 0 -7
9 -16 20 -19 15 -4 20 0 20 13 0 10 -4 20 -8 22 -5 2 -23 32 -40 67 l-32 65
21 22 c24 26 19 58 -11 74 -16 9 -18 15 -10 36 14 35 13 36 -12 32 -21 -3 -23
-7 -20 -60 3 -63 -1 -70 -19 -36 -15 29 -18 66 -8 95 10 28 2 53 -18 53 -29 0
-44 -30 -50 -101 -8 -92 -22 -64 -37 72 -6 51 -22 61 -49 31z m-65 -163 c2
-39 -8 -81 -29 -121 -15 -32 -29 -36 -30 -10 -1 23 26 132 39 155 13 24 18 18
20 -24z m82 5 c9 -23 7 -97 -3 -112 -15 -25 -33 13 -27 60 3 24 5 49 5 56 1
17 18 15 25 -4z"/>
<path d="M7760 1770 c-12 -23 2 -27 19 -6 8 9 8 16 2 20 -6 4 -15 -3 -21 -14z"/>
<path d="M9271 1781 c-17 -11 -7 -41 13 -41 8 0 18 -9 21 -20 7 -22 25 -18 25
5 0 25 -43 66 -59 56z"/>
<path d="M6565 1770 c-9 -15 3 -30 20 -24 23 9 27 34 5 34 -10 0 -22 -4 -25
-10z"/>
<path d="M7999 1765 c0 -6 -2 -24 -3 -41 -1 -18 -14 -46 -29 -64 -15 -17 -27
-37 -27 -45 0 -7 -6 -18 -14 -24 -7 -6 -16 -25 -20 -41 -3 -17 -12 -30 -21
-30 -8 0 -18 -12 -21 -27 -4 -16 -17 -48 -30 -72 -13 -25 -21 -47 -19 -49 8
-8 84 47 101 73 36 55 74 12 55 -63 -5 -20 -10 -53 -10 -72 -1 -19 -2 -52 -3
-72 -2 -38 6 -62 10 -30 6 52 24 106 53 151 27 44 27 44 39 20 7 -12 14 -39
15 -58 4 -52 4 -51 14 -51 13 0 31 57 31 96 0 23 -7 38 -25 51 -18 13 -27 30
-31 58 -2 22 -7 56 -10 75 -3 19 -6 42 -6 50 -1 8 -4 20 -9 25 -4 6 -11 38
-14 70 -4 33 -11 64 -16 70 -6 6 -9 6 -10 0z m14 -260 c3 -38 -15 -42 -31 -6
-16 36 -6 69 15 49 7 -8 15 -27 16 -43z"/>
<path d="M8704 1739 c-10 -17 13 -36 27 -22 12 12 4 33 -11 33 -5 0 -12 -5
-16 -11z"/>
<path d="M7720 1720 c-9 -16 -8 -20 5 -20 8 0 15 9 15 20 0 11 -2 20 -5 20 -2
0 -9 -9 -15 -20z"/>
<path d="M6483 1710 c-13 -10 -23 -21 -23 -24 0 -13 27 -5 53 17 24 19 26 23
10 24 -10 1 -28 -7 -40 -17z"/>
<path d="M7862 1656 c-32 -37 -91 -151 -98 -191 -7 -37 15 -40 44 -5 43 50
111 187 105 210 -7 28 -16 25 -51 -14z"/>
<path d="M9270 1660 c0 -13 28 -25 38 -16 3 4 0 11 -8 16 -20 13 -30 12 -30 0z"/>
<path d="M6393 1645 c-7 -20 0 -27 20 -19 25 9 30 34 6 34 -11 0 -22 -7 -26
-15z"/>
<path d="M7680 1650 c0 -5 5 -10 10 -10 6 0 10 5 10 10 0 6 -4 10 -10 10 -5 0
-10 -4 -10 -10z"/>
<path d="M6340 1602 c0 -7 -6 -12 -14 -12 -19 0 -48 -29 -41 -40 3 -5 12 -7
20 -4 17 7 49 54 41 62 -3 3 -6 0 -6 -6z"/>
<path d="M8710 1575 c0 -8 7 -15 15 -15 8 0 15 4 15 9 0 5 -7 11 -15 15 -9 3
-15 0 -15 -9z"/>
<path d="M2710 1556 c-11 -31 -1 -54 19 -42 13 9 14 36 1 56 -7 11 -11 8 -20
-14z"/>
<path d="M9050 1572 c0 -15 48 -54 61 -50 8 3 3 13 -13 31 -25 26 -48 35 -48
19z"/>
<path d="M3315 1561 c-3 -5 -1 -12 5 -16 5 -3 10 1 10 9 0 18 -6 21 -15 7z"/>
<path d="M8750 1534 c1 -23 45 -72 125 -139 77 -64 115 -86 115 -67 0 11 -90
102 -151 151 -30 25 -62 51 -71 59 -16 14 -18 13 -18 -4z"/>
<path d="M8590 1530 c0 -5 5 -10 10 -10 6 0 10 5 10 10 0 6 -4 10 -10 10 -5 0
-10 -4 -10 -10z"/>
<path d="M9140 1498 c0 -7 17 -23 38 -36 20 -12 60 -40 87 -62 28 -22 54 -40
58 -40 4 0 7 21 5 47 l-3 46 -90 28 c-49 16 -91 29 -92 29 -2 0 -3 -6 -3 -12z"/>
<path d="M6920 1446 c0 -18 13 -27 25 -18 18 13 15 32 -5 32 -11 0 -20 -6 -20
-14z"/>
<path d="M7063 1392 c-57 -60 -73 -92 -65 -124 5 -23 15 -23 27 1 6 10 25 46
43 81 18 34 31 64 28 67 -3 3 -18 -8 -33 -25z"/>
<path d="M8630 1408 c0 -7 17 -24 38 -38 20 -14 41 -30 45 -37 8 -13 57 -19
57 -7 0 9 -48 45 -93 72 -45 26 -47 26 -47 10z"/>
<path d="M6884 1389 c-3 -6 -1 -16 5 -22 8 -8 11 -5 11 11 0 24 -5 28 -16 11z"/>
<path d="M6960 1385 c0 -7 -6 -18 -14 -22 -15 -9 -40 -53 -30 -53 3 0 -6 -16
-20 -35 -15 -19 -24 -35 -20 -35 4 0 -3 -11 -15 -24 -13 -14 -20 -29 -16 -35
25 -41 106 44 113 117 2 25 10 55 18 67 13 21 10 35 -8 35 -4 0 -8 -7 -8 -15z"/>
<path d="M9070 1370 c0 -5 5 -10 10 -10 6 0 10 5 10 10 0 6 -4 10 -10 10 -5 0
-10 -4 -10 -10z"/>
<path d="M8272 1333 c-12 -22 -5 -43 14 -43 8 0 14 10 14 24 0 31 -16 42 -28
19z"/>
<path d="M8507 1326 c-3 -8 -3 -17 0 -20 7 -7 33 13 33 25 0 15 -27 10 -33 -5z"/>
<path d="M8845 1312 c65 -61 225 -158 225 -137 0 12 -44 44 -123 90 -43 26
-81 53 -84 61 -3 8 -15 14 -27 14 -19 0 -19 -2 9 -28z"/>
<path d="M9138 1334 c-12 -11 4 -34 24 -34 13 0 18 6 16 17 -3 18 -29 29 -40
17z"/>
<path d="M6695 1320 c-3 -5 1 -10 10 -10 9 0 13 5 10 10 -3 6 -8 10 -10 10 -2
0 -7 -4 -10 -10z"/>
<path d="M7879 1293 c-2 -39 3 -89 12 -103 9 -17 11 -10 11 45 0 63 -2 75 -12
75 -5 0 -10 -8 -11 -17z"/>
<path d="M9200 1266 c0 -9 5 -16 10 -16 6 0 10 4 10 9 0 6 -4 13 -10 16 -5 3
-10 -1 -10 -9z"/>
<path d="M8316 1263 c-9 -9 56 -64 70 -59 8 3 11 11 8 18 -6 16 -70 49 -78 41z"/>
<path d="M7053 1233 c-18 -6 -16 -33 1 -33 8 0 17 4 20 8 7 12 -7 30 -21 25z"/>
<path d="M7320 1216 c0 -9 5 -16 10 -16 6 0 10 4 10 9 0 6 -4 13 -10 16 -5 3
-10 -1 -10 -9z"/>
<path d="M7437 1216 c-6 -16 2 -28 14 -20 12 7 11 34 0 34 -5 0 -11 -6 -14
-14z"/>
<path d="M8120 1210 c0 -5 5 -10 10 -10 6 0 10 5 10 10 0 6 -4 10 -10 10 -5 0
-10 -4 -10 -10z"/>
<path d="M8280 1210 c0 -5 5 -10 10 -10 6 0 10 5 10 10 0 6 -4 10 -10 10 -5 0
-10 -4 -10 -10z"/>
<path d="M8750 1205 c7 -8 16 -13 20 -10 4 2 16 -2 26 -10 21 -16 44 -19 44
-7 0 10 -65 42 -87 42 -12 0 -13 -3 -3 -15z"/>
<path d="M7590 1185 c0 -8 5 -15 10 -15 6 0 10 7 10 15 0 8 -4 15 -10 15 -5 0
-10 -7 -10 -15z"/>
<path d="M8670 1180 c0 -5 5 -10 10 -10 6 0 10 5 10 10 0 6 -4 10 -10 10 -5 0
-10 -4 -10 -10z"/>
</g>
</svg>
