 <svg version="1.0" xmlns="http://www.w3.org/2000/svg" width="700.000000pt" height="525.000000pt" viewBox="0 0 700.000000 525.000000" preserveAspectRatio="xMidYMid meet">
<metadata>
Created by potrace 1.12, written by Peter Selinger 2001-2015
</metadata>
<g transform="translate(0.000000,525.000000) scale(0.100000,-0.100000)" fill="#000000" stroke="none">
<path d="M2749 4893 c-1 -5 -1 -11 0 -15 1 -9 12 -8 -124 -12 -60 -1 -121 -7
-135 -13 -14 -6 -61 -19 -105 -28 -44 -9 -87 -20 -95 -26 -8 -5 -22 -12 -30
-15 -8 -3 -41 -18 -72 -35 -32 -16 -62 -29 -67 -29 -24 0 -145 -97 -218 -175
-44 -46 -92 -89 -106 -94 -31 -12 -93 -3 -108 15 -13 16 -45 18 -54 4 -11 -18
-25 -10 -25 15 0 28 -9 32 -29 13 -10 -11 -15 -10 -24 3 -7 8 -20 18 -31 22
-15 6 -16 10 -6 22 10 12 9 16 -6 22 -10 4 -19 2 -22 -5 -7 -21 -35 -14 -29 8
9 37 -149 126 -221 124 -63 -1 -76 -19 -73 -104 3 -88 217 -339 343 -402 63
-32 101 -35 159 -12 31 13 59 15 121 11 100 -8 272 15 358 48 19 7 71 21 115
30 76 17 83 21 135 76 43 44 72 64 130 88 41 17 85 31 98 31 13 0 38 7 55 16
18 9 39 20 47 24 31 14 106 55 120 66 20 15 147 65 190 75 19 4 67 19 105 33
80 29 150 33 202 11 40 -17 83 -20 83 -5 0 5 -12 13 -27 16 -16 4 -44 19 -63
33 -19 14 -51 34 -71 44 -20 11 -46 32 -58 48 -12 16 -44 40 -71 54 -47 24
-58 25 -220 25 -93 0 -171 -3 -171 -7z m94 -40 c-7 -2 -21 -2 -30 0 -10 3 -4
5 12 5 17 0 24 -2 18 -5z m-307 -78 c9 -8 24 -15 35 -15 10 0 19 -7 19 -15 0
-11 -11 -15 -39 -15 -22 0 -44 6 -51 15 -7 8 -23 15 -36 15 -13 0 -24 4 -24 9
0 23 75 28 96 6z m-151 -40 c11 -2 37 -7 58 -10 50 -8 51 -35 1 -35 -43 0
-122 19 -130 31 -10 16 8 31 30 24 11 -4 30 -8 41 -10z m-48 -71 c33 -9 18
-24 -23 -24 -32 0 -42 8 -27 23 8 8 21 9 50 1z"></path>
<path d="M3427 4510 c-43 -4 -81 -11 -85 -15 -4 -4 3 -15 16 -25 22 -18 14
-39 -9 -24 -11 6 -29 -12 -29 -29 0 -9 53 0 80 13 8 4 38 20 66 34 60 30 78
32 127 11 40 -17 182 -21 192 -6 3 6 -11 13 -32 16 -21 4 -55 13 -76 21 -40
15 -121 16 -250 4z"></path>
<path d="M3285 4490 c-3 -5 -2 -10 4 -10 5 0 13 5 16 10 3 6 2 10 -4 10 -5 0
-13 -4 -16 -10z"></path>
<path d="M4600 4425 c-19 -13 -42 -24 -51 -24 -8 -1 -26 -13 -40 -27 -21 -23
-22 -26 -7 -35 21 -12 13 -40 -18 -70 -36 -34 -32 -52 11 -47 34 4 35 3 35
-28 0 -18 6 -34 14 -37 8 -3 24 -36 36 -74 24 -71 70 -170 100 -213 10 -14 21
-41 25 -60 4 -19 19 -50 34 -69 49 -65 56 -121 14 -121 -7 0 -13 -2 -13 -5 0
-7 124 -126 143 -136 19 -11 23 -39 5 -39 -6 0 -8 -3 -5 -7 4 -3 18 -1 31 6
27 15 66 1 66 -24 0 -8 6 -15 13 -15 17 0 57 -42 57 -58 0 -7 7 -24 17 -38 15
-23 15 -27 0 -41 -14 -14 -21 -14 -82 8 -37 13 -70 29 -72 36 -6 16 -43 17
-43 2 0 -6 9 -13 20 -16 11 -3 20 -9 20 -14 0 -5 7 -9 15 -9 9 0 18 -7 21 -15
4 -8 17 -15 30 -15 15 0 24 -6 24 -15 0 -8 -9 -15 -20 -15 -11 0 -23 7 -26 15
-4 8 -15 15 -25 15 -11 0 -44 18 -74 40 -30 22 -58 39 -62 38 -13 -4 -49 25
-56 46 -7 19 -8 18 -27 -2 -24 -25 -25 -32 -5 -32 8 0 15 -4 15 -10 0 -5 9
-10 20 -10 11 0 28 -9 37 -20 10 -11 25 -20 35 -20 9 0 21 -6 25 -13 4 -7 25
-23 45 -37 41 -27 46 -38 23 -46 -26 -10 -61 5 -73 31 -6 14 -19 25 -29 25 -9
0 -37 10 -61 22 -35 17 -48 19 -61 10 -9 -7 -25 -16 -36 -21 -12 -5 -27 -16
-34 -25 -7 -9 -25 -16 -40 -16 -20 0 -23 -2 -11 -10 36 -23 100 1 100 38 0 21
51 14 57 -8 4 -15 11 -18 27 -14 14 3 28 -1 35 -10 8 -9 24 -16 37 -16 31 0
31 -18 -1 -30 -31 -12 -32 -26 -2 -36 12 -4 32 -15 44 -24 20 -15 21 -19 8
-30 -23 -19 -18 -29 20 -36 19 -3 38 -10 41 -15 3 -5 17 -9 32 -9 30 0 59 -15
46 -23 -5 -2 -23 -8 -40 -11 -26 -6 -32 -4 -37 13 -4 16 -13 21 -41 21 -20 0
-36 4 -36 8 0 4 -14 13 -31 19 -32 12 -32 33 1 33 30 0 33 19 4 26 -18 5 -31
2 -38 -7 -6 -8 -24 -23 -40 -33 l-29 -18 7 26 c9 35 -16 45 -58 24 -17 -9 -44
-22 -61 -29 -30 -14 -29 -14 35 -17 36 -2 69 -7 74 -13 6 -5 18 -9 28 -9 22 0
68 -21 68 -31 0 -5 -16 -11 -35 -15 -19 -3 -38 -10 -41 -15 -3 -5 -22 -9 -42
-9 l-37 0 30 24 30 24 -35 6 c-19 3 -68 7 -107 10 l-73 5 0 -30 c0 -17 -6 -32
-15 -35 -8 -4 -15 -11 -15 -16 0 -11 168 -5 265 8 27 4 46 0 60 -10 18 -13 19
-16 4 -31 -8 -8 -39 -18 -67 -22 -80 -9 -62 -23 31 -23 79 0 120 -11 104 -27
-4 -4 -56 -7 -114 -8 -69 0 -108 -4 -110 -11 -2 -6 11 -14 30 -17 42 -7 107
-33 107 -44 0 -5 -20 -17 -44 -28 -28 -13 -46 -28 -49 -41 -3 -20 -2 -20 25
-6 34 16 61 9 56 -15 -4 -22 -91 -45 -125 -32 -34 13 -113 12 -93 -1 8 -5 32
-10 52 -10 20 0 40 -4 43 -10 3 -5 23 -10 43 -10 23 0 44 -7 53 -17 9 -10 25
-23 35 -29 17 -10 16 -12 -13 -18 -38 -9 -48 -46 -14 -46 29 0 34 -17 8 -24
-13 -3 -29 -18 -36 -32 -12 -27 -9 -33 24 -48 6 -3 1 -12 -9 -20 -17 -14 -80
-22 -123 -17 -6 1 -14 -3 -17 -8 -6 -10 5 -15 61 -26 18 -3 42 -14 55 -24 25
-19 111 -51 139 -51 9 0 19 -6 22 -14 8 -21 66 -29 84 -10 25 24 27 9 5 -33
-11 -21 -26 -62 -32 -90 -9 -40 -21 -60 -47 -84 l-36 -31 -132 7 c-94 5 -134
4 -139 -4 -5 -8 26 -11 109 -11 122 0 138 -6 119 -47 -4 -10 -8 -22 -8 -28 -1
-5 -12 -12 -26 -13 -14 -2 -32 -10 -41 -18 -16 -14 -103 -24 -114 -13 -10 10
6 38 23 41 15 3 15 4 2 10 -15 5 -109 -31 -110 -42 0 -8 96 -40 144 -48 80
-14 37 -42 -66 -42 -27 0 -40 5 -48 20 -14 25 -46 26 -60 1 -20 -39 -131 -35
-181 6 -8 7 -23 13 -32 13 -9 0 -19 5 -22 10 -6 10 -70 40 -86 40 -5 0 -9 -6
-9 -13 0 -9 -11 -12 -35 -9 -38 4 -51 -16 -16 -25 39 -10 39 -166 0 -176 -11
-3 -19 -14 -19 -27 0 -12 -11 -31 -25 -42 -25 -19 -34 -48 -15 -48 6 0 10 -7
10 -15 0 -17 -25 -20 -35 -5 -3 6 -14 10 -23 10 -16 -1 -16 -2 1 -14 9 -7 17
-18 17 -24 0 -6 8 -15 17 -21 29 -16 5 -25 -34 -13 -48 15 -55 7 -61 -62 -4
-52 -20 -75 -42 -61 -5 3 -32 -18 -62 -47 -32 -32 -87 -70 -138 -97 -47 -24
-101 -56 -120 -71 -19 -15 -60 -42 -90 -61 -79 -47 -203 -143 -234 -179 -25
-30 -34 -59 -18 -61 24 -3 223 -20 252 -21 52 -2 145 26 188 56 21 14 42 26
46 26 9 0 80 52 84 63 2 4 9 7 16 7 7 0 30 13 52 29 21 16 49 32 62 35 12 4
20 11 17 16 -6 9 18 20 45 20 10 0 20 5 22 11 6 17 96 31 119 18 11 -6 30 -9
42 -6 22 3 21 4 -3 14 -14 6 -33 20 -43 31 -17 19 -17 20 5 26 13 3 37 6 54 6
23 0 34 6 42 24 12 27 126 106 152 106 10 0 31 6 47 14 15 8 53 22 83 32 30
10 78 35 107 56 29 21 59 38 68 38 8 0 15 5 15 10 0 6 5 10 10 10 6 0 2 -12
-7 -27 -28 -43 -111 -123 -128 -123 -8 0 -15 -4 -15 -10 0 -5 9 -10 20 -10 11
0 20 3 20 8 0 4 11 12 25 19 20 9 25 8 25 -3 0 -28 -39 -90 -92 -146 -78 -83
-83 -90 -79 -118 2 -20 0 -23 -10 -12 -15 14 -55 16 -64 3 -3 -5 2 -17 11 -25
18 -19 2 -21 -25 -4 -10 6 -26 8 -37 3 -17 -6 -16 -8 9 -17 37 -13 35 -38 -3
-38 -20 0 -30 5 -30 15 0 17 -41 19 -75 5 -18 -7 -18 -9 10 -20 36 -14 23 -24
-41 -35 -30 -5 -55 -19 -88 -51 -25 -24 -61 -51 -79 -59 -17 -8 -57 -32 -88
-52 -31 -21 -76 -51 -100 -67 -24 -16 -56 -37 -71 -48 -15 -10 -30 -18 -33
-18 -14 0 -228 -111 -258 -134 -18 -14 -66 -39 -107 -56 -110 -45 -239 -40
-288 13 -27 29 -78 128 -87 167 -5 24 -12 30 -31 30 -14 0 -34 -4 -44 -10 -26
-14 -208 -40 -228 -33 -26 10 -72 50 -65 57 4 3 14 6 22 6 9 0 24 8 32 18 36
39 96 89 124 104 63 32 142 76 179 102 29 19 34 26 19 26 -31 0 -137 -22 -148
-31 -6 -4 -35 -10 -65 -14 -30 -3 -71 -8 -90 -11 -24 -3 -1 11 75 46 60 28
123 61 140 74 83 63 176 123 249 161 71 37 91 54 164 141 59 70 103 112 150
141 128 81 141 93 168 150 l26 55 -21 42 c-34 67 -56 90 -80 83 -14 -3 -21 0
-21 9 0 9 -11 14 -32 14 -17 0 -48 5 -67 12 -54 17 -172 59 -206 73 -16 7 -70
24 -120 39 -49 15 -91 31 -93 36 -5 13 -32 13 -32 0 0 -12 -31 -13 -62 -1 -58
23 -107 33 -128 26 -18 -6 -20 -9 -9 -16 8 -5 24 -9 37 -9 12 0 25 -7 28 -15
4 -8 11 -15 18 -15 6 -1 29 -9 51 -20 22 -11 45 -19 51 -20 6 0 23 -11 39 -26
27 -24 27 -26 9 -45 -18 -20 -18 -21 -1 -31 16 -9 14 -12 -20 -27 -81 -38
-150 -61 -177 -61 -16 0 -37 -6 -45 -13 -16 -14 -148 -37 -208 -37 -21 0 -33
-5 -33 -14 0 -38 -245 -77 -278 -44 -6 6 -15 9 -19 5 -4 -4 -1 -13 5 -19 20
-20 13 -30 -16 -23 -16 3 -43 -1 -65 -10 -53 -22 -93 -19 -133 11 -42 33 -43
42 -2 46 48 4 47 29 -2 57 -22 12 -40 26 -40 32 0 12 7 11 31 -2 21 -11 59 -4
59 12 0 12 -37 49 -50 49 -5 0 -13 6 -17 13 -7 12 -29 25 -115 68 -10 5 -26 9
-36 9 -9 0 -25 8 -34 18 -9 9 -28 25 -42 35 -27 18 -34 37 -15 37 5 0 27 -11
47 -25 61 -42 82 -31 36 18 -14 16 -24 30 -22 33 7 6 78 -60 78 -74 0 -6 9
-12 20 -12 10 0 23 -6 27 -12 4 -7 38 -39 75 -71 37 -32 95 -87 129 -122 34
-36 65 -62 70 -59 9 5 0 36 -14 45 -5 4 1 16 14 28 l23 21 -26 27 c-14 16 -28
35 -31 44 -11 33 -73 69 -128 76 -30 3 -57 10 -60 15 -3 4 -20 19 -38 32 -18
13 -28 27 -22 30 5 4 12 2 16 -4 7 -11 49 -14 43 -2 -6 13 -43 74 -63 105 -11
17 -38 40 -60 51 -23 12 -54 31 -71 43 -17 12 -42 25 -57 28 -15 4 -27 11 -27
16 0 5 -11 9 -25 9 -23 0 -117 64 -185 127 -14 13 -28 23 -31 23 -6 0 -42 30
-91 77 -33 31 -36 70 -9 104 10 13 21 33 25 44 12 40 101 54 169 26 16 -6 31
-11 34 -11 14 0 -44 53 -67 62 -24 9 -24 10 -6 24 11 8 33 14 49 14 l30 0 -28
22 c-48 37 -82 72 -88 91 -6 15 -3 16 13 7 10 -5 29 -10 42 -10 21 1 21 2 -7
17 -16 9 -35 22 -43 29 -7 8 -31 14 -53 14 -58 0 -143 50 -144 85 -1 21 -38
65 -55 65 -10 0 -20 7 -24 15 -3 8 -12 15 -21 15 -17 0 -20 16 -5 25 15 9 12
25 -5 25 -8 0 -15 -4 -15 -10 0 -5 -7 -10 -16 -10 -10 0 -14 7 -12 23 2 17 -3
23 -21 25 -13 2 -31 10 -38 18 -8 8 -25 14 -38 14 -13 0 -34 4 -47 9 -26 9
-161 23 -138 14 8 -3 21 -14 28 -25 7 -10 19 -18 26 -18 14 0 136 -77 147 -93
3 -5 12 -7 20 -6 8 1 23 -2 34 -6 31 -14 134 -117 157 -157 12 -21 33 -41 50
-47 36 -13 36 -39 1 -46 -16 -3 -45 -11 -66 -17 -34 -10 -40 -9 -73 18 -20 16
-45 51 -57 80 -12 27 -37 66 -55 85 -18 19 -47 53 -65 76 -18 23 -38 43 -44
43 -7 0 -18 9 -25 20 -7 11 -19 20 -26 20 -7 0 -37 11 -65 24 -197 92 -239
100 -337 67 -83 -29 -142 -99 -162 -192 -10 -45 -13 -82 -8 -105 8 -34 3 -66
-26 -152 -23 -69 -18 -172 11 -244 26 -65 32 -127 14 -145 -20 -20 6 -182 39
-240 19 -33 15 -46 -12 -41 -40 8 -43 -23 -6 -52 43 -33 200 -186 200 -194 0
-15 -33 -4 -58 19 -15 14 -32 25 -39 25 -7 0 -13 4 -13 10 0 5 -19 19 -42 30
-47 23 -60 25 -38 7 16 -13 80 -136 80 -154 0 -5 12 -23 26 -39 14 -16 38 -47
55 -69 16 -22 60 -67 97 -100 37 -33 94 -86 126 -117 33 -32 61 -58 64 -58 6
0 -3 45 -23 115 -10 33 -19 71 -22 85 l-4 25 23 -27 c37 -43 61 -79 91 -137
15 -30 39 -70 53 -88 30 -39 120 -83 171 -83 72 0 112 -41 113 -115 0 -70 -30
-94 -79 -63 -11 6 -26 8 -37 3 -16 -6 -14 -9 14 -17 17 -5 32 -12 32 -17 0
-12 47 -31 76 -31 20 0 29 10 48 53 27 57 101 149 149 184 27 20 33 21 51 9
24 -16 26 -61 5 -165 -10 -50 -21 -72 -47 -98 -33 -33 -33 -33 -140 -35 -217
-6 -241 -3 -323 36 -42 20 -90 36 -108 36 -43 0 -81 21 -120 66 -48 54 -57 79
-41 109 10 19 21 25 47 25 31 0 36 -4 54 -45 11 -25 24 -45 30 -45 5 0 22 -11
37 -25 15 -14 37 -25 49 -25 33 0 28 16 -7 23 -16 4 -39 17 -50 29 -12 13 -27
30 -35 39 -8 9 -15 22 -15 30 -1 18 -35 59 -49 59 -5 0 -45 -18 -88 -41 -97
-50 -104 -65 -96 -199 9 -131 27 -170 147 -302 43 -46 80 -75 201 -154 28 -18
57 -39 65 -47 41 -38 89 -67 111 -67 13 -1 35 -7 49 -15 30 -17 201 -21 231
-5 21 12 78 25 189 45 164 29 205 38 215 46 6 4 33 15 60 24 28 9 71 30 98 46
26 16 51 29 56 29 5 0 33 18 62 40 30 23 65 43 79 46 34 8 68 19 112 38 l38
16 55 -50 c50 -45 60 -50 105 -51 56 -2 54 -1 95 -17 61 -24 63 -26 105 -124
11 -26 20 -56 20 -67 0 -11 4 -22 9 -26 11 -6 36 -90 46 -154 4 -24 14 -60 22
-79 9 -22 12 -48 8 -69 -7 -36 12 -46 35 -18 19 23 49 18 62 -10 l11 -25 219
0 220 0 -7 33 c-4 17 -11 36 -16 42 -11 11 -12 56 -1 71 12 18 44 32 96 39 49
8 179 65 191 85 3 5 19 10 34 10 16 0 34 7 41 15 7 8 17 15 23 15 21 0 107
-44 107 -54 0 -7 -21 -23 -46 -36 -32 -18 -55 -41 -80 -81 -19 -31 -34 -60
-34 -64 0 -5 -11 -23 -26 -42 l-25 -33 220 0 221 0 0 34 c0 26 7 41 30 59 17
14 30 30 30 35 0 10 43 52 53 52 20 0 2 -44 -33 -80 -28 -29 -40 -50 -40 -71
l0 -29 292 0 291 0 33 25 c18 14 35 25 37 25 6 0 110 70 117 78 6 8 32 23 93
54 23 12 46 28 50 35 4 7 13 13 19 13 6 0 37 25 69 55 32 30 64 55 73 55 8 0
19 6 23 14 13 21 101 66 118 60 8 -4 15 -1 15 5 0 6 -7 11 -15 11 -8 0 -15 5
-15 10 0 16 33 26 38 12 2 -7 13 -12 24 -12 34 0 17 -33 -24 -45 -20 -5 -40
-13 -44 -18 -4 -4 -14 -7 -22 -7 -8 0 -31 -15 -50 -32 -99 -92 -162 -158 -162
-172 0 -9 -7 -16 -16 -16 -13 0 -14 -3 -4 -15 13 -16 6 -65 -10 -65 -6 0 -10
-16 -10 -35 0 -31 3 -35 25 -35 16 0 25 6 25 15 0 9 7 18 15 21 18 7 20 41 3
46 -21 7 -1 37 21 31 22 -6 28 6 12 22 -22 23 -15 51 22 90 36 37 40 39 52 22
15 -20 2 -30 149 113 l66 64 -30 24 c-36 28 -38 42 -7 42 12 0 28 9 35 20 7
11 21 20 31 20 10 0 24 7 31 15 7 8 20 15 30 15 10 0 23 7 30 15 7 8 21 15 31
15 11 0 19 3 19 8 0 4 18 18 40 32 39 23 51 40 30 40 -6 0 -29 -14 -52 -30
-22 -17 -47 -30 -55 -30 -7 0 -13 -7 -13 -15 0 -9 -9 -15 -22 -15 -31 0 -206
-89 -270 -137 -100 -74 -131 -96 -233 -164 -56 -38 -108 -75 -115 -84 -7 -8
-17 -15 -22 -15 -6 0 -27 -13 -47 -28 -39 -31 -101 -57 -101 -42 0 5 21 22 47
37 114 67 163 102 170 118 3 8 10 15 17 15 10 0 60 40 107 85 9 8 20 15 26 15
5 0 25 14 43 30 18 17 38 30 42 30 13 0 80 51 96 72 7 10 17 18 22 18 5 0 21
11 36 25 15 14 22 25 15 25 -16 0 -83 -43 -158 -102 -34 -26 -67 -48 -73 -48
-5 0 -10 -4 -10 -8 0 -5 -20 -19 -45 -31 -25 -12 -45 -26 -45 -31 0 -4 -8 -10
-17 -14 -10 -3 -31 -15 -48 -26 -16 -11 -37 -23 -45 -27 -8 -4 -41 -25 -75
-47 -72 -49 -166 -98 -173 -91 -3 3 1 5 8 5 17 0 4 13 -16 16 -48 7 -61 37
-21 48 24 6 53 44 42 54 -4 4 -14 -3 -22 -16 -9 -12 -22 -22 -29 -22 -8 0 -14
-4 -14 -10 0 -5 -11 -10 -25 -10 -14 0 -25 -5 -25 -10 0 -6 -10 -15 -22 -20
-13 -6 -36 -19 -53 -29 -16 -11 -38 -20 -48 -20 -10 -1 -20 -8 -23 -16 -6 -15
-72 -41 -81 -31 -4 3 1 6 10 6 8 0 19 9 22 20 3 11 12 20 19 20 7 0 23 11 36
25 27 29 20 32 -21 8 -28 -17 -47 -14 -35 6 8 12 124 101 132 101 3 0 31 19
62 43 32 24 64 46 72 50 8 4 38 21 65 37 45 26 124 67 165 84 38 17 63 36 74
57 10 21 67 65 161 126 35 23 91 68 175 140 90 78 255 193 276 193 37 0 120
-94 172 -194 34 -65 32 -81 -13 -110 -14 -9 -23 -21 -20 -26 9 -14 172 -13
181 1 7 12 66 8 98 -6 17 -7 18 -5 14 24 -3 18 1 36 8 42 17 14 54 -40 54 -78
0 -15 4 -35 10 -43 8 -12 10 -12 16 3 11 29 -19 121 -50 156 -23 25 -14 54 22
70 l27 13 -28 15 c-24 12 -26 17 -16 29 7 9 30 24 51 35 21 11 38 26 38 33 0
8 16 20 35 26 23 8 35 18 35 30 0 21 19 30 61 30 19 0 29 5 29 15 0 8 -9 15
-20 15 -21 0 -27 15 -10 25 12 7 13 25 3 25 -5 0 -41 -32 -81 -70 -40 -39 -76
-70 -80 -70 -19 0 -121 -113 -127 -140 -7 -30 -75 -100 -98 -100 -14 0 -57 41
-57 54 0 4 -43 63 -95 132 -52 69 -95 130 -95 134 0 43 71 100 132 106 27 3
54 17 93 49 86 70 129 88 189 81 28 -3 84 -22 125 -42 69 -34 77 -36 101 -23
44 25 37 50 -30 102 -33 26 -60 53 -60 60 0 8 -11 27 -25 43 -14 16 -25 32
-25 36 0 3 -14 11 -32 17 -24 9 -29 14 -20 23 14 14 16 38 3 38 -5 0 -12 -10
-15 -22 l-6 -23 -19 22 c-25 30 -29 29 -33 -9 -4 -38 -31 -46 -36 -10 -5 35
-20 26 -24 -15 -2 -30 -7 -38 -23 -38 -16 0 -21 8 -23 35 -2 19 -8 39 -13 44
-5 6 -9 18 -9 27 0 9 -7 22 -15 29 -8 7 -15 21 -15 31 0 11 -7 19 -15 19 -8 0
-15 9 -15 20 0 11 -4 20 -10 20 -5 0 -10 -2 -10 -5 0 -12 35 -75 42 -75 4 0 8
-29 8 -65 0 -51 -3 -65 -15 -65 -9 0 -55 -41 -104 -90 -49 -50 -94 -90 -100
-90 -19 0 -101 -81 -101 -101 0 -10 -4 -21 -10 -24 -17 -11 -11 -22 12 -21 49
2 31 -33 -69 -134 -106 -109 -285 -238 -361 -261 -24 -7 -48 -21 -53 -31 -13
-24 -29 -23 -29 2 0 11 -4 20 -10 20 -5 0 -10 -9 -10 -20 0 -11 -9 -25 -20
-32 -11 -7 -20 -18 -20 -24 0 -7 -11 -19 -25 -28 -14 -9 -25 -12 -25 -6 0 17
-30 11 -37 -7 -9 -24 -45 -73 -54 -73 -4 0 -10 10 -14 23 -8 22 -8 22 -12 -4
-6 -36 -57 -89 -85 -89 -33 1 -70 34 -61 56 5 14 3 16 -11 11 -11 -4 -19 -1
-23 11 -4 9 -13 22 -21 28 -12 9 -12 14 -1 34 8 13 25 34 38 47 21 20 25 21
35 7 10 -13 15 -11 35 16 16 22 29 30 42 27 10 -3 23 1 30 9 15 18 35 18 43
-1 7 -18 26 -20 26 -2 0 15 40 41 48 31 4 -4 1 -9 -5 -11 -16 -6 -17 -33 -3
-33 6 0 13 7 16 15 4 8 12 15 20 15 8 0 14 -7 14 -15 0 -8 5 -15 10 -15 14 0
13 27 -2 32 -7 3 -8 9 -3 18 6 10 11 9 22 -6 14 -18 15 -18 30 3 19 28 29 29
36 3 3 -11 10 -20 16 -20 15 0 14 43 -1 58 -15 15 9 43 71 78 25 15 66 45 91
68 25 23 67 56 94 74 26 18 50 42 53 52 3 10 11 21 19 24 21 8 17 44 -7 57
-21 11 -38 0 -39 -23 0 -5 -7 -8 -15 -8 -9 0 -15 9 -15 25 0 16 6 25 15 25 9
0 15 9 15 25 0 32 6 31 37 -5 27 -33 43 -38 43 -15 0 7 7 18 16 23 13 7 15 17
10 38 -4 16 -11 56 -17 89 -12 80 -14 83 -27 58 -9 -17 -9 -36 3 -85 21 -90
19 -95 -19 -54 -40 42 -42 43 -49 16 -3 -14 -14 -20 -31 -20 -28 0 -35 -14
-11 -24 18 -7 20 -32 2 -39 -7 -2 -23 -25 -35 -51 -13 -25 -28 -46 -33 -46
-15 0 -10 47 6 54 8 3 15 12 15 19 0 8 7 20 15 27 8 7 15 16 15 21 0 5 -7 9
-15 9 -8 0 -15 -7 -15 -15 0 -8 -6 -15 -14 -15 -8 0 -23 -11 -34 -25 -20 -26
-42 -33 -42 -15 0 6 11 21 25 34 28 26 32 46 10 46 -8 0 -15 -7 -15 -15 0 -8
-8 -15 -17 -15 -14 0 -12 5 8 27 13 16 27 29 32 31 12 6 8 30 -5 35 -10 4 -10
7 0 18 10 11 12 10 12 -4 0 -10 8 -17 20 -17 21 0 28 24 10 35 -6 3 1 18 15
33 14 15 25 32 25 39 0 6 3 13 8 15 4 2 24 29 46 61 21 31 45 57 52 57 8 0 14
10 14 25 0 29 -26 34 -34 7 -10 -29 -197 -219 -203 -204 -5 13 -33 17 -33 5 0
-5 -16 -26 -36 -48 -65 -72 -114 -137 -114 -149 0 -22 -81 -76 -115 -76 -20 0
-19 10 5 40 11 14 20 39 20 55 0 17 14 52 33 80 18 28 39 64 47 80 21 42 82
125 92 125 4 0 8 -5 8 -11 0 -5 5 -7 10 -4 6 3 10 14 10 24 0 10 11 38 25 62
14 24 30 51 35 59 46 79 59 127 58 205 -1 45 4 90 10 102 7 12 12 42 12 67 0
25 4 46 9 46 4 0 16 21 26 48 19 50 56 107 102 159 15 17 50 61 76 97 26 36
54 66 62 66 16 0 31 43 20 59 -3 6 -3 15 0 21 7 12 85 -75 85 -95 0 -7 4 -15
8 -17 4 -1 17 -17 27 -35 105 -167 327 -391 366 -367 5 3 9 34 9 68 0 44 5 67
15 76 8 7 15 18 15 24 0 6 55 68 123 138 124 129 278 313 332 397 16 25 40 57
52 71 13 14 40 50 60 80 21 30 43 59 50 63 7 4 13 14 13 21 0 7 25 50 55 96
30 46 55 89 55 95 0 6 10 19 21 29 18 15 20 24 15 59 -4 23 -11 44 -17 48 -5
3 -19 23 -31 45 -11 21 -27 43 -34 47 -8 4 -14 15 -14 22 0 8 -4 15 -9 15 -10
0 -34 38 -47 73 -3 9 -10 17 -15 17 -5 0 -9 7 -9 15 0 19 -106 69 -128 60 -14
-5 -14 -7 -2 -15 8 -6 24 -10 36 -10 28 0 93 -51 94 -72 0 -10 7 -18 15 -18 9
0 15 -9 15 -25 0 -14 5 -25 10 -25 6 0 10 -5 10 -11 0 -6 16 -26 35 -45 19
-18 35 -42 35 -53 0 -11 5 -23 10 -26 11 -7 14 -55 4 -55 -10 0 -33 31 -50 70
-33 74 -41 85 -74 108 -19 13 -34 29 -32 34 4 16 -39 58 -59 58 -9 0 -19 -5
-21 -12 -3 -7 -12 -9 -24 -4 -18 7 -18 8 -1 17 24 14 12 29 -23 29 -24 0 -31
-5 -36 -26 -4 -17 -2 -29 6 -34 9 -6 6 -11 -11 -21 -48 -25 -54 -38 -29 -64
17 -18 21 -32 17 -52 -6 -30 8 -55 36 -66 23 -9 22 -28 -3 -34 -11 -3 -20 -7
-20 -9 0 -2 13 -23 29 -46 16 -24 28 -44 26 -46 -2 -2 -25 6 -50 17 -59 26
-84 28 -61 5 22 -21 20 -34 -4 -34 -11 0 -20 5 -20 10 0 6 -7 10 -15 10 -8 0
-15 -7 -15 -15 0 -9 -9 -15 -24 -15 -13 0 -26 7 -30 15 -3 8 -11 15 -19 15 -7
0 -28 16 -47 35 -40 39 -60 44 -60 15 0 -11 4 -20 10 -20 5 0 22 -12 38 -27
62 -59 95 -83 113 -83 12 0 19 -7 19 -20 0 -11 -4 -20 -9 -20 -21 0 -41 13
-41 26 0 8 -6 14 -14 14 -20 0 -196 179 -196 198 1 12 9 8 30 -15 35 -38 46
-41 55 -12 4 13 0 27 -11 40 -9 10 -14 22 -11 25 8 8 -15 53 -44 83 -12 13
-18 26 -12 30 5 3 12 14 16 24 8 23 22 22 33 -3 6 -14 13 -17 24 -10 12 7 12
12 -4 29 -10 11 -38 30 -63 42 -76 37 -126 103 -93 124 15 9 12 25 -7 32 -9 4
-25 15 -35 25 -10 10 -27 18 -37 18 -10 0 -21 7 -25 15 -3 8 -15 15 -26 15
-11 0 -20 5 -20 10 0 14 7 13 38 -5 15 -8 45 -19 68 -25 22 -5 49 -19 59 -30
10 -11 29 -20 42 -20 13 0 41 -11 63 -25 48 -30 80 -33 80 -6 0 15 -10 20 -46
26 -25 3 -48 13 -51 21 -3 8 -13 14 -22 14 -9 0 -32 11 -52 24 -20 14 -52 28
-72 31 -21 4 -37 11 -37 15 0 9 -55 30 -81 30 -12 0 -16 -6 -12 -20 3 -12 0
-20 -7 -20 -27 0 -123 54 -128 72 -2 10 -11 18 -18 18 -18 0 -17 -10 1 -34 8
-11 15 -29 15 -40 0 -11 6 -27 13 -35 7 -9 19 -38 26 -66 6 -27 31 -88 54
-135 22 -47 40 -93 39 -102 -1 -10 4 -17 11 -15 6 1 11 -6 11 -15 -1 -10 5
-18 12 -18 15 0 109 -92 203 -198 30 -34 63 -62 72 -62 10 0 21 -4 24 -10 3
-5 -1 -10 -9 -10 -9 0 -16 -7 -16 -15 0 -8 9 -15 20 -15 11 0 20 -5 20 -11 0
-5 15 -16 34 -24 38 -16 96 -62 96 -76 0 -14 -21 -11 -39 5 -9 8 -28 18 -43
21 -22 6 -28 4 -28 -9 0 -9 -7 -19 -15 -22 -20 -8 -19 -30 3 -39 16 -6 16 -7
0 -19 -23 -17 -23 -32 -1 -45 10 -5 15 -13 11 -17 -4 -4 -22 4 -40 18 -18 14
-43 28 -55 32 -13 4 -23 11 -23 17 0 11 -32 49 -42 49 -13 0 -9 -24 12 -65 11
-21 17 -41 13 -44 -3 -3 -8 0 -10 7 -3 6 -11 12 -19 12 -8 0 -19 10 -24 23 -5
12 -24 38 -41 57 l-31 35 6 -29 c4 -16 16 -48 27 -70 10 -22 17 -41 15 -43 -2
-3 -23 7 -46 22 -23 15 -44 24 -46 22 -3 -2 4 -46 14 -97 11 -51 17 -101 14
-112 -2 -10 1 -30 8 -42 14 -27 11 -57 -7 -63 -7 -3 -15 7 -19 21 -3 14 -10
26 -15 26 -14 0 -10 -33 6 -54 8 -11 15 -30 15 -43 0 -29 7 -29 31 0 l18 22 1
-32 c0 -18 -4 -33 -10 -33 -14 0 -12 -34 4 -67 41 -80 56 -173 41 -256 -10
-52 -21 -54 -28 -4 -15 108 -176 338 -218 311 -8 -4 -9 0 -4 15 5 18 3 21 -17
19 -18 -3 -23 1 -21 20 2 13 -3 22 -11 22 -13 0 -86 81 -86 95 0 3 -29 33 -64
66 -43 40 -76 82 -99 127 -24 47 -39 66 -50 64 -21 -4 -22 23 -3 60 11 21 13
43 7 90 -7 61 -8 62 -20 34 -6 -16 -9 -37 -6 -46 3 -10 3 -31 -1 -46 -7 -26
-8 -26 -20 -9 -8 11 -14 35 -14 56 0 20 -6 52 -14 71 -11 26 -14 81 -14 234 1
165 -2 206 -15 238 -10 21 -17 60 -17 86 0 39 -5 54 -30 80 -16 18 -30 35 -30
39 0 3 11 19 25 34 24 26 25 27 5 27 -11 0 -20 -3 -20 -7 0 -5 -12 -14 -27
-20 -54 -25 -57 -12 -10 39 23 26 42 37 67 40 32 3 35 0 45 -32 5 -19 22 -59
38 -88 19 -38 27 -69 27 -105 0 -30 7 -60 15 -71 22 -29 21 -178 -1 -212 -21
-30 -14 -109 16 -198 11 -33 20 -81 20 -108 0 -41 3 -51 20 -55 11 -3 20 -9
20 -14 0 -5 5 -9 12 -9 9 0 9 3 0 12 -18 18 -15 98 5 121 15 16 17 35 15 118
-2 60 0 99 6 99 15 0 22 -26 22 -79 0 -42 5 -53 45 -97 25 -27 45 -52 45 -56
0 -5 5 -8 10 -8 18 0 11 36 -11 56 -20 18 -49 65 -49 79 0 4 9 3 20 0 24 -8
26 11 5 39 -8 11 -15 30 -15 42 0 16 -9 25 -30 33 l-31 10 2 218 c1 195 -1
224 -19 271 -11 29 -24 58 -31 65 -6 6 -11 25 -11 43 0 18 -6 45 -14 61 -8 15
-34 68 -57 117 -37 74 -59 103 -137 180 -50 50 -116 104 -145 120 -49 28 -60
30 -192 34 -123 4 -146 7 -187 28 -26 13 -49 24 -50 23 -2 0 -19 -11 -38 -24z
m697 -387 c34 -39 64 -96 54 -102 -11 -7 -61 43 -61 60 0 6 -7 17 -15 24 -16
13 -20 40 -7 40 5 0 18 -10 29 -22z m-167 -68 c0 -5 -11 -12 -25 -16 -13 -3
-29 -12 -36 -20 -14 -17 -49 -18 -49 -1 0 6 12 19 28 29 30 18 82 23 82 8z m0
-65 c0 -8 -7 -15 -15 -15 -16 0 -20 12 -8 23 11 12 23 8 23 -8z m87 -16 c6 -6
9 -18 6 -28 -5 -19 -75 -66 -113 -74 -24 -6 -25 -4 -25 42 0 39 3 47 16 44 8
-3 21 3 28 11 15 18 72 21 88 5z m232 -465 c1 -111 -2 -143 -13 -147 -8 -3
-16 -30 -20 -68 -6 -47 -10 -59 -19 -50 -15 15 -14 120 1 216 6 39 17 131 24
205 l13 135 6 -75 c4 -41 7 -139 8 -216z m1061 -54 c0 -5 -9 -10 -21 -10 -11
0 -17 5 -14 10 3 6 13 10 21 10 8 0 14 -4 14 -10z m55 -36 c14 -9 25 -21 25
-27 0 -5 -8 -3 -18 6 -10 10 -24 17 -30 17 -7 0 -12 5 -12 10 0 14 7 13 35 -6z
m-1610 -174 c3 -5 -1 -10 -9 -10 -9 0 -16 -6 -16 -14 0 -21 -17 -28 -50 -21
-34 7 -31 35 4 35 11 0 28 5 36 10 19 12 27 12 35 0z m1480 -120 c3 -5 -1 -10
-9 -10 -8 0 -18 5 -21 10 -3 6 1 10 9 10 8 0 18 -4 21 -10z m-1547 -76 c12 -4
22 -11 22 -16 0 -14 -73 -5 -78 10 -4 13 19 16 56 6z m-3931 -50 c-3 -3 -12
-4 -19 -1 -8 3 -5 6 6 6 11 1 17 -2 13 -5z m3927 -10 c24 -9 9 -24 -25 -24
-19 0 -29 5 -29 15 0 15 26 20 54 9z m-3814 -76 c0 -16 -22 -7 -45 20 -37 41
-30 55 10 19 19 -17 35 -34 35 -39z m5157 36 c-3 -3 -12 -4 -19 -1 -8 3 -5 6
6 6 11 1 17 -2 13 -5z m-5255 -26 c-9 -9 -15 -9 -24 0 -9 9 -7 12 12 12 19 0
21 -3 12 -12z m58 -33 c0 -13 -4 -14 -20 -5 -11 6 -20 13 -20 15 0 3 9 5 20 5
11 0 20 -7 20 -15z m5185 -5 c3 -5 -3 -10 -14 -10 -12 0 -21 5 -21 10 0 6 6
10 14 10 8 0 18 -4 21 -10z m-145 -60 c0 -5 -2 -10 -4 -10 -3 0 -8 5 -11 10
-3 6 -1 10 4 10 6 0 11 -4 11 -10z m-1260 -380 c12 -8 9 -10 -13 -10 -16 0
-26 4 -22 10 8 12 16 12 35 0z m-3896 -29 c8 -12 -26 -20 -59 -13 -19 3 -23 7
-13 13 17 11 65 11 72 0z m492 -21 c5 0 19 -11 31 -23 12 -13 50 -41 85 -62
35 -21 65 -42 68 -45 3 -4 15 -12 27 -19 28 -14 116 -128 111 -143 -3 -7 -9
-5 -19 4 -28 29 -80 51 -92 39 -8 -8 -7 -11 4 -11 7 0 23 -19 33 -42 11 -22
44 -67 75 -98 31 -32 65 -68 76 -80 l20 -23 -30 7 c-31 7 -155 121 -155 142 0
6 -7 18 -16 25 -9 7 -20 23 -25 36 -6 17 -16 23 -38 23 -16 0 -31 5 -33 11 -6
17 -68 1 -68 -18 0 -17 29 -50 119 -137 100 -96 133 -126 138 -126 7 0 32 -33
33 -42 0 -10 -46 8 -75 29 -14 10 -25 24 -25 31 0 6 -6 12 -14 12 -8 0 -50 35
-93 78 -74 72 -113 127 -113 159 0 20 -21 15 -27 -7 -7 -25 -21 -26 -30 -2 -8
22 -63 101 -88 128 -36 37 -46 61 -30 74 20 16 68 -16 60 -40 -7 -21 5 -32 23
-21 14 8 0 70 -19 82 -15 9 -1 71 14 66 7 -2 13 -16 15 -30 2 -15 8 -27 13
-27 5 0 9 -6 9 -14 0 -7 11 -21 24 -29 13 -9 38 -29 56 -46 19 -16 38 -27 43
-24 6 3 3 11 -6 18 -10 7 -17 16 -17 20 0 13 -68 75 -82 75 -9 0 -14 14 -14
42 -1 36 0 39 11 25 7 -9 16 -17 21 -17z m3536 -15 c-4 -13 -63 -8 -77 6 -7 7
4 9 35 7 25 -2 44 -7 42 -13z m-29 -62 c-7 -2 -19 -2 -25 0 -7 3 -2 5 12 5 14
0 19 -2 13 -5z m-3668 -113 c3 -5 1 -10 -4 -10 -6 0 -11 5 -11 10 0 6 2 10 4
10 3 0 8 -4 11 -10z m292 -100 c17 -26 1 -34 -20 -9 -20 23 -21 29 -4 29 7 0
18 -9 24 -20z m303 12 c0 -14 -11 -21 -26 -15 -8 3 -11 9 -8 14 7 11 34 12 34
1z m35 -32 c3 -5 1 -10 -4 -10 -6 0 -11 5 -11 10 0 6 2 10 4 10 3 0 8 -4 11
-10z m-490 -40 c8 0 15 -4 15 -9 0 -17 117 -127 153 -145 21 -9 37 -21 37 -25
0 -4 10 -13 23 -19 20 -10 19 -11 -8 -5 -16 3 -39 12 -51 20 -11 7 -23 10 -27
7 -8 -8 -97 65 -97 80 -1 14 -36 56 -47 56 -11 0 -33 44 -33 63 0 7 5 4 11 -5
5 -10 17 -18 24 -18z m490 -50 c3 -5 1 -10 -4 -10 -6 0 -11 5 -11 10 0 6 2 10
4 10 3 0 8 -4 11 -10z m-475 -61 c0 -5 -4 -9 -10 -9 -5 0 -10 7 -10 16 0 8 5
12 10 9 6 -3 10 -10 10 -16z m364 -44 c32 -32 36 -33 51 -19 20 21 33 10 14
-12 -11 -14 -10 -17 4 -25 21 -12 22 -29 2 -29 -8 0 -15 4 -15 9 0 5 -8 12
-17 15 -42 15 -103 66 -103 86 0 21 31 9 64 -25z m3046 5 c0 -5 -2 -10 -4 -10
-3 0 -8 5 -11 10 -3 6 -1 10 4 10 6 0 11 -4 11 -10z m350 -42 c0 -13 -7 -32
-15 -42 -8 -11 -15 -25 -15 -32 0 -15 -63 -113 -72 -114 -5 0 -8 9 -8 20 0 11
5 20 10 20 6 0 10 6 10 14 0 14 26 75 56 129 18 33 34 35 34 5z m-605 -17 c-6
-5 -28 -11 -50 -15 -37 -6 -39 -5 -21 9 21 16 87 22 71 6z m150 -14 c11 0 28
3 39 8 18 8 18 7 0 -21 -18 -30 -202 -213 -216 -215 -4 -1 -11 -2 -15 -3 -5 0
-22 -11 -40 -24 -39 -27 -38 -27 -40 4 0 15 -7 30 -14 35 -11 6 -8 13 10 33
23 24 25 63 3 59 -15 -4 -15 -2 4 35 13 27 18 30 35 22 10 -6 19 -16 19 -22 0
-7 5 -6 15 2 8 7 15 25 15 41 0 15 6 31 13 36 16 10 118 21 137 15 8 -3 24 -5
35 -5z m-4027 -36 c3 -8 -1 -12 -9 -9 -7 2 -15 10 -17 17 -3 8 1 12 9 9 7 -2
15 -10 17 -17z m1202 -1 c0 -5 -7 -10 -15 -10 -8 0 -15 5 -15 10 0 6 7 10 15
10 8 0 15 -4 15 -10z m115 -128 c-3 -3 -11 0 -18 7 -9 10 -8 11 6 5 10 -3 15
-9 12 -12z m2761 -44 c-3 -18 -10 -34 -15 -36 -6 -2 -11 -7 -11 -12 0 -5 -30
-40 -67 -78 -60 -62 -73 -71 -116 -77 -26 -4 -49 -11 -52 -14 -2 -4 -30 -8
-62 -9 -42 -2 -54 0 -43 8 8 5 22 10 31 10 8 0 30 11 49 25 19 14 46 25 61 25
15 0 31 5 34 10 3 6 13 10 22 10 8 0 32 14 53 30 21 17 43 30 49 30 12 0 16
20 4 20 -5 0 -15 5 -23 10 -12 8 -8 16 25 45 52 44 68 45 61 3z m-626 -68 c0
-5 -6 -10 -14 -10 -8 0 -18 5 -21 10 -3 6 3 10 14 10 12 0 21 -4 21 -10z m520
5 c0 -9 -40 -45 -51 -45 -6 0 -17 -7 -25 -15 -16 -16 -34 -20 -33 -7 1 19 109
86 109 67z m-2070 -75 c0 -5 -4 -10 -10 -10 -5 0 -10 5 -10 10 0 6 5 10 10 10
6 0 10 -4 10 -10z m-600 -70 c0 -5 -12 -17 -26 -26 -20 -14 -25 -24 -22 -46 4
-28 -5 -38 -17 -18 -10 15 -71 12 -85 -5 -7 -8 -18 -15 -25 -15 -6 0 -31 -13
-53 -30 -39 -28 -82 -40 -82 -22 1 9 47 62 56 62 9 0 122 51 179 82 54 28 75
34 75 18z m275 -15 c27 -22 28 -25 9 -25 -11 0 -29 -7 -40 -15 -28 -21 -34
-18 -34 18 0 55 18 60 65 22z m475 -100 c-7 -8 -17 -15 -22 -15 -6 0 -5 7 2
15 7 8 17 15 22 15 6 0 5 -7 -2 -15z m2337 -41 c-3 -3 -12 -4 -19 -1 -8 3 -5
6 6 6 11 1 17 -2 13 -5z m213 -65 c0 -5 -7 -9 -15 -9 -9 0 -12 6 -9 15 6 15
24 11 24 -6z m-2846 -18 c7 -11 -17 -21 -50 -21 -23 0 -31 10 -17 23 10 10 61
8 67 -2z m2729 -66 c-16 -32 -33 -46 -33 -26 0 9 39 61 46 61 2 0 -4 -16 -13
-35z m-4361 -33 c5 -11 81 -68 101 -75 21 -8 22 -27 1 -27 -45 0 -124 62 -124
96 0 15 16 19 22 6z m1833 -152 c3 -6 -2 -13 -12 -16 -52 -17 -152 -64 -159
-75 -7 -13 -24 -11 -24 2 0 6 9 13 20 16 11 3 20 8 20 12 0 7 57 34 98 46 12
3 22 11 22 16 0 12 27 12 35 -1z m-1272 -34 c29 -13 62 -27 75 -31 27 -8 30
-35 3 -35 -10 0 -45 13 -77 29 -33 15 -77 32 -99 36 -33 6 -37 9 -20 15 35 14
65 11 118 -14z m291 -52 c23 -23 235 -23 248 0 11 19 72 23 66 4 -3 -7 -15
-15 -29 -18 -17 -5 -23 -12 -22 -28 2 -16 -3 -22 -16 -22 -11 0 -21 5 -23 11
-3 8 -38 13 -98 14 -74 2 -102 7 -127 22 -18 11 -30 23 -26 26 9 9 9 9 27 -9z
m190 -83 c7 -11 -17 -21 -54 -21 -16 0 -35 3 -44 6 -29 11 -5 24 44 24 27 0
51 -4 54 -9z m2426 -220 c0 -5 -29 -38 -63 -73 -35 -35 -73 -79 -83 -98 -10
-19 -25 -39 -31 -43 -7 -4 -13 -15 -13 -23 0 -17 -40 -74 -52 -74 -4 0 -13 10
-19 22 -9 17 -9 24 3 32 9 6 25 33 37 59 12 26 26 47 31 47 6 0 10 8 10 18 0
20 81 105 120 126 30 17 60 20 60 7z"></path>
<path d="M1355 2169 c-4 -6 -4 -13 -1 -16 8 -8 36 5 36 17 0 13 -27 13 -35 -1z"></path>
<path d="M1350 2133 c0 -5 4 -13 9 -18 5 -6 11 -21 13 -34 4 -28 23 -39 31
-17 4 9 -6 28 -24 47 -16 17 -29 27 -29 22z"></path>
<path d="M1510 2130 c0 -5 5 -10 10 -10 6 0 10 5 10 10 0 6 -4 10 -10 10 -5 0
-10 -4 -10 -10z"></path>
<path d="M1430 2110 c0 -5 5 -10 11 -10 5 0 7 5 4 10 -3 6 -8 10 -11 10 -2 0
-4 -4 -4 -10z"></path>
<path d="M1573 2103 c-18 -6 -16 -23 1 -23 17 0 30 16 19 23 -5 2 -14 2 -20 0z"></path>
<path d="M1450 2075 c-20 -24 -5 -28 21 -6 19 16 20 20 8 21 -9 0 -22 -7 -29
-15z"></path>
<path d="M4700 1505 c-10 -12 -10 -15 4 -15 9 0 16 7 16 15 0 8 -2 15 -4 15
-2 0 -9 -7 -16 -15z"></path>
<path d="M4150 360 c0 -5 5 -10 11 -10 5 0 7 5 4 10 -3 6 -8 10 -11 10 -2 0
-4 -4 -4 -10z"></path>
<path d="M2475 4339 c-30 -15 -51 -67 -36 -90 6 -10 11 -35 11 -55 0 -30 -8
-43 -51 -84 -49 -46 -54 -49 -135 -60 -46 -7 -90 -10 -98 -7 -17 7 -82 -36
-96 -63 -13 -24 -13 -190 0 -190 6 0 10 4 10 9 0 12 47 61 60 61 15 0 12 -20
-5 -26 -8 -4 -15 -13 -15 -20 0 -8 -7 -17 -15 -20 -8 -4 -15 -14 -15 -25 0
-10 -11 -31 -25 -46 -20 -22 -26 -25 -34 -14 -9 14 -31 7 -31 -11 0 -6 -33
-54 -74 -107 -76 -100 -98 -141 -74 -141 22 0 362 351 377 390 16 39 49 86 98
140 87 97 173 208 184 242 9 30 9 43 -1 69 -12 28 -12 33 5 45 18 14 18 14 -1
13 -10 0 -28 -5 -39 -10z"></path>
<path d="M2810 4329 c0 -5 5 -7 10 -4 6 3 10 8 10 11 0 2 -4 4 -10 4 -5 0 -10
-5 -10 -11z"></path>
<path d="M2730 4222 c-14 -15 -55 -52 -90 -82 -36 -30 -67 -59 -69 -63 -1 -4
-12 -16 -23 -27 -20 -18 -20 -18 1 -39 23 -23 41 -27 41 -10 0 6 34 47 75 91
41 44 75 88 75 98 0 9 7 23 15 30 16 13 20 30 8 29 -5 0 -19 -12 -33 -27z"></path>
<path d="M2260 4164 c-8 -8 -33 -30 -55 -49 -29 -25 -35 -35 -22 -35 9 0 17 4
17 9 0 5 10 13 22 17 33 10 78 46 78 61 0 17 -21 15 -40 -3z"></path>
<path d="M3828 4173 c6 -2 18 -2 25 0 6 3 1 5 -13 5 -14 0 -19 -2 -12 -5z"></path>
<path d="M3980 4171 c0 -19 20 -22 47 -7 l28 15 -37 1 c-21 0 -38 -4 -38 -9z"></path>
<path d="M3842 4093 c-62 -6 -41 -23 28 -23 68 0 99 8 78 21 -13 9 -26 9 -106
2z"></path>
<path d="M3981 4091 c-11 -7 -6 -11 21 -16 43 -8 83 -3 83 10 0 13 -86 18
-104 6z"></path>
<path d="M4153 4053 c9 -2 25 -2 35 0 9 3 1 5 -18 5 -19 0 -27 -2 -17 -5z"></path>
<path d="M2748 3896 c-81 -89 -93 -107 -77 -117 19 -12 29 -11 29 1 0 6 6 9
12 8 7 -2 14 7 16 20 2 12 10 22 17 22 8 0 17 9 20 20 3 11 11 20 16 20 5 0 9
9 9 20 0 13 5 18 15 14 18 -7 20 19 3 33 -10 8 -26 -4 -60 -41z"></path>
<path d="M3515 3849 c-9 -14 -2 -20 14 -10 8 6 9 11 3 15 -6 3 -14 1 -17 -5z"></path>
<path d="M3755 3840 c3 -5 8 -10 11 -10 2 0 4 5 4 10 0 6 -5 10 -11 10 -5 0
-7 -4 -4 -10z"></path>
<path d="M3898 3843 c6 -2 18 -2 25 0 6 3 1 5 -13 5 -14 0 -19 -2 -12 -5z"></path>
<path d="M4095 3840 c3 -5 13 -10 21 -10 8 0 14 5 14 10 0 6 -9 10 -21 10 -11
0 -17 -4 -14 -10z"></path>
<path d="M5800 3840 c0 -5 11 -10 25 -10 14 0 25 5 25 10 0 6 -11 10 -25 10
-14 0 -25 -4 -25 -10z"></path>
<path d="M3455 3804 c-22 -18 -37 -23 -59 -19 -25 4 -27 3 -16 -10 21 -25 2
-30 -23 -7 -13 12 -31 22 -40 22 -9 0 -46 -30 -83 -67 -88 -90 -94 -97 -94
-115 0 -8 -11 -20 -25 -26 -14 -7 -28 -19 -31 -27 -3 -8 -25 -24 -47 -35 -85
-43 -120 -74 -150 -133 -18 -36 -39 -62 -54 -68 -12 -4 -23 -13 -23 -18 0 -5
-14 -11 -32 -13 -39 -4 -48 -23 -14 -32 18 -4 23 -11 19 -27 -4 -15 6 -32 38
-65 23 -24 39 -47 35 -51 -5 -5 -11 -2 -13 5 -6 17 -49 33 -68 26 -19 -8 -20
-24 -2 -24 8 0 35 -20 61 -45 51 -48 66 -55 66 -30 0 8 5 15 10 15 6 0 10 -6
10 -13 0 -6 13 -18 28 -25 34 -15 134 -114 163 -161 11 -18 19 -41 17 -50 -4
-22 19 -66 54 -105 20 -21 25 -36 22 -56 -4 -16 0 -31 9 -38 17 -15 11 -52 -9
-52 -32 0 -21 -26 38 -93 34 -40 74 -85 88 -100 28 -33 99 -77 122 -77 9 0 21
-7 28 -15 7 -8 21 -15 31 -15 10 0 44 -13 74 -30 45 -25 67 -30 118 -29 61 0
131 17 80 18 -33 1 -37 18 -6 26 14 3 38 15 51 26 14 10 30 19 37 19 24 0 65
49 65 78 0 16 9 37 20 47 25 23 25 35 1 35 -25 0 -51 10 -51 20 0 4 14 13 31
19 18 6 29 16 26 23 -5 17 -74 12 -101 -8 -31 -21 -42 -17 -15 6 21 17 22 21
9 30 -8 5 -22 10 -31 10 -9 0 -22 7 -29 15 -7 8 -29 15 -50 15 -21 0 -43 7
-50 15 -7 8 -26 15 -43 15 -16 0 -44 10 -61 23 -40 30 -116 69 -116 59 1 -4 7
-18 15 -32 18 -32 20 -59 3 -42 -7 7 -20 12 -30 12 -31 0 -148 94 -148 119 0
6 -6 11 -12 11 -17 1 -50 47 -39 54 5 3 11 -1 15 -9 3 -8 12 -15 21 -15 8 0
15 -4 15 -10 0 -5 7 -10 15 -10 17 0 20 16 5 25 -6 4 -8 11 -4 16 3 6 12 5 22
-3 12 -10 16 -10 19 0 6 16 42 15 77 -3 20 -10 33 -12 39 -6 7 7 5 12 -6 17
-9 3 -17 12 -17 20 0 23 28 16 45 -10 9 -14 28 -32 41 -41 l25 -16 -7 36 c-6
34 -5 37 13 31 11 -4 33 0 49 9 16 8 38 15 48 15 11 0 27 6 35 14 44 40 218
146 248 152 21 4 49 0 76 -10 67 -25 104 -21 138 15 33 35 34 38 17 70 -15 27
-82 99 -94 99 -4 0 -13 8 -20 18 -20 25 -18 -3 2 -34 9 -13 14 -27 11 -30 -7
-7 -57 48 -57 64 0 7 -7 15 -15 18 -8 4 -15 15 -15 26 0 11 -11 34 -25 52 -14
18 -25 40 -25 49 0 10 -8 17 -20 17 -10 0 -23 8 -29 17 -5 10 -12 15 -16 11
-3 -3 -2 -14 4 -25 14 -24 51 -134 51 -150 0 -7 -4 -13 -10 -13 -14 0 -103 92
-120 124 -8 16 -25 36 -38 44 -32 21 -151 61 -183 62 -14 0 -34 7 -45 15 -10
8 -30 15 -44 15 -41 1 -52 13 -34 38 11 15 25 22 50 22 47 0 43 18 -6 26 -52
8 -43 20 21 27 28 4 54 9 58 12 11 12 -25 25 -72 25 -28 0 -54 6 -63 14 -7 8
-18 16 -24 18 -13 4 -1 48 14 48 6 0 22 12 35 25 20 22 21 27 10 42 -11 13
-11 17 -1 20 13 5 17 33 5 33 -5 -1 -21 -12 -38 -26z m-10 -194 c-3 -5 -10
-10 -16 -10 -5 0 -9 5 -9 10 0 6 7 10 16 10 8 0 12 -4 9 -10z m295 -240 c0 -5
-4 -10 -10 -10 -5 0 -10 5 -10 10 0 6 5 10 10 10 6 0 10 -4 10 -10z m-113 -96
c21 -14 48 -30 61 -35 12 -5 22 -13 22 -18 0 -5 11 -12 25 -15 29 -7 34 -26 6
-26 -23 0 -55 16 -102 53 -45 34 -78 34 -130 2 -22 -14 -44 -23 -49 -20 -20
13 -9 37 24 50 19 8 37 19 41 25 11 18 64 10 102 -16z m-197 -44 c0 -42 -14
-54 -25 -20 -5 17 9 60 20 60 3 0 5 -18 5 -40z m20 -195 c0 -8 -4 -15 -10 -15
-5 0 -10 7 -10 15 0 8 5 15 10 15 6 0 10 -7 10 -15z m70 -56 c0 -14 -46 -11
-59 4 -6 8 -8 16 -5 20 8 8 64 -13 64 -24z m-250 -359 c0 -5 -2 -10 -4 -10 -3
0 -8 5 -11 10 -3 6 -1 10 4 10 6 0 11 -4 11 -10z m260 -20 c0 -5 -4 -10 -10
-10 -5 0 -10 5 -10 10 0 6 5 10 10 10 6 0 10 -4 10 -10z m-274 -67 c24 -32 16
-49 -11 -23 -14 13 -25 27 -25 32 0 14 22 9 36 -9z m52 -62 c3 -8 -1 -12 -9
-9 -7 2 -15 10 -17 17 -3 8 1 12 9 9 7 -2 15 -10 17 -17z"></path>
<path d="M3560 3820 c0 -5 16 -10 35 -10 19 0 35 5 35 10 0 6 -16 10 -35 10
-19 0 -35 -4 -35 -10z"></path>
<path d="M3520 3790 c0 -5 7 -10 15 -10 8 0 15 5 15 10 0 6 -7 10 -15 10 -8 0
-15 -4 -15 -10z"></path>
<path d="M4020 3793 c0 -10 71 -73 82 -73 17 0 7 17 -28 48 -35 31 -54 40 -54
25z"></path>
<path d="M5815 3790 c-3 -5 3 -10 15 -10 12 0 18 5 15 10 -3 6 -10 10 -15 10
-5 0 -12 -4 -15 -10z"></path>
<path d="M5983 3783 c9 -2 25 -2 35 0 9 3 1 5 -18 5 -19 0 -27 -2 -17 -5z"></path>
<path d="M2034 3765 c-8 -21 6 -41 17 -24 12 19 11 39 -1 39 -6 0 -13 -7 -16
-15z"></path>
<path d="M3585 3750 c3 -5 15 -10 26 -10 10 0 19 5 19 10 0 6 -12 10 -26 10
-14 0 -23 -4 -19 -10z"></path>
<path d="M5908 3753 c6 -2 18 -2 25 0 6 3 1 5 -13 5 -14 0 -19 -2 -12 -5z"></path>
<path d="M6085 3750 c3 -5 12 -10 20 -10 8 0 17 5 20 10 4 6 -5 10 -20 10 -15
0 -24 -4 -20 -10z"></path>
<path d="M3835 3710 c-3 -5 -1 -10 4 -10 6 0 11 5 11 10 0 6 -2 10 -4 10 -3 0
-8 -4 -11 -10z"></path>
<path d="M3578 3703 c7 -3 16 -2 19 1 4 3 -2 6 -13 5 -11 0 -14 -3 -6 -6z"></path>
<path d="M4032 3698 c7 -19 38 -22 38 -4 0 10 -9 16 -21 16 -12 0 -19 -5 -17
-12z"></path>
<path d="M4130 3700 c0 -5 5 -10 10 -10 6 0 10 5 10 10 0 6 -4 10 -10 10 -5 0
-10 -4 -10 -10z"></path>
<path d="M4220 3700 c0 -5 5 -10 11 -10 5 0 7 5 4 10 -3 6 -8 10 -11 10 -2 0
-4 -4 -4 -10z"></path>
<path d="M4385 3700 c3 -5 11 -10 16 -10 6 0 7 5 4 10 -3 6 -11 10 -16 10 -6
0 -7 -4 -4 -10z"></path>
<path d="M6197 3703 c-13 -12 -7 -23 13 -23 11 0 20 7 20 15 0 15 -21 21 -33
8z"></path>
<path d="M3870 3685 c0 -19 87 -78 95 -65 7 11 -29 46 -57 55 -10 4 -18 11
-18 16 0 5 -4 9 -10 9 -5 0 -10 -7 -10 -15z"></path>
<path d="M3672 3678 c2 -6 10 -14 16 -16 7 -2 10 2 6 12 -7 18 -28 22 -22 4z"></path>
<path d="M3620 3670 c0 -5 5 -10 10 -10 6 0 10 5 10 10 0 6 -4 10 -10 10 -5 0
-10 -4 -10 -10z"></path>
<path d="M4080 3656 c0 -13 29 -26 60 -26 10 0 7 7 -10 20 -29 23 -50 26 -50
6z"></path>
<path d="M4278 3663 c6 -2 18 -2 25 0 6 3 1 5 -13 5 -14 0 -19 -2 -12 -5z"></path>
<path d="M4330 3640 c0 -5 7 -10 16 -10 8 0 12 5 9 10 -3 6 -10 10 -16 10 -5
0 -9 -4 -9 -10z"></path>
<path d="M6200 3645 c0 -23 24 -45 49 -45 16 0 34 -7 41 -15 7 -8 18 -15 25
-15 7 0 16 -7 19 -16 4 -9 9 -14 13 -10 8 8 -45 64 -77 81 -34 17 -70 28 -70
20z"></path>
<path d="M4170 3609 c0 -7 -8 -18 -17 -25 -17 -13 -17 -13 0 -14 9 0 17 5 17
10 0 6 6 10 14 10 7 0 19 7 26 15 11 13 8 15 -14 15 -14 0 -26 -5 -26 -11z"></path>
<path d="M4270 3605 c0 -8 5 -15 10 -15 6 0 10 7 10 15 0 8 -4 15 -10 15 -5 0
-10 -7 -10 -15z"></path>
<path d="M4390 3610 c0 -5 9 -10 21 -10 11 0 17 5 14 10 -3 6 -13 10 -21 10
-8 0 -14 -4 -14 -10z"></path>
<path d="M3680 3599 c0 -5 5 -7 10 -4 6 3 10 8 10 11 0 2 -4 4 -10 4 -5 0 -10
-5 -10 -11z"></path>
<path d="M3720 3574 c0 -10 58 -64 68 -64 6 0 12 -6 15 -12 2 -7 8 -10 12 -6
5 5 -11 26 -34 48 -38 36 -61 49 -61 34z"></path>
<path d="M4180 3544 c0 -10 7 -14 22 -12 32 5 35 28 4 28 -17 0 -26 -5 -26
-16z"></path>
<path d="M6223 3546 c-23 -11 -32 -36 -13 -36 6 0 19 9 30 20 32 32 25 38 -17
16z"></path>
<path d="M4378 3543 c7 -3 16 -2 19 1 4 3 -2 6 -13 5 -11 0 -14 -3 -6 -6z"></path>
<path d="M4588 3543 c7 -3 16 -2 19 1 4 3 -2 6 -13 5 -11 0 -14 -3 -6 -6z"></path>
<path d="M5527 3528 c-10 -36 -8 -201 2 -217 11 -17 16 1 26 89 8 81 6 123 -9
138 -11 11 -14 10 -19 -10z"></path>
<path d="M6398 3543 c6 -2 18 -2 25 0 6 3 1 5 -13 5 -14 0 -19 -2 -12 -5z"></path>
<path d="M6020 3530 c0 -5 5 -10 10 -10 6 0 10 5 10 10 0 6 -4 10 -10 10 -5 0
-10 -4 -10 -10z"></path>
<path d="M4243 3518 c2 -7 12 -13 22 -13 10 0 20 6 23 13 2 7 -6 12 -23 12
-17 0 -25 -5 -22 -12z"></path>
<path d="M4660 3519 c0 -5 5 -7 10 -4 6 3 10 8 10 11 0 2 -4 4 -10 4 -5 0 -10
-5 -10 -11z"></path>
<path d="M6290 3522 c0 -12 39 -42 55 -42 8 0 15 5 15 10 0 6 -9 10 -20 10
-11 0 -20 7 -20 15 0 8 -7 15 -15 15 -8 0 -15 -3 -15 -8z"></path>
<path d="M4521 3513 c-1 -13 50 -65 57 -59 7 7 -23 46 -35 46 -6 0 -14 6 -16
13 -4 9 -6 9 -6 0z"></path>
<path d="M4305 3490 c3 -5 8 -10 11 -10 2 0 4 5 4 10 0 6 -5 10 -11 10 -5 0
-7 -4 -4 -10z"></path>
<path d="M6383 3485 c-19 -20 -16 -35 6 -35 22 0 45 25 36 40 -9 14 -28 12
-42 -5z"></path>
<path d="M3830 3471 c0 -5 5 -13 10 -16 6 -3 10 -2 10 4 0 5 -4 13 -10 16 -5
3 -10 2 -10 -4z"></path>
<path d="M4230 3460 c0 -5 5 -10 11 -10 5 0 7 5 4 10 -3 6 -8 10 -11 10 -2 0
-4 -4 -4 -10z"></path>
<path d="M4360 3460 c0 -5 5 -10 11 -10 5 0 7 5 4 10 -3 6 -8 10 -11 10 -2 0
-4 -4 -4 -10z"></path>
<path d="M6120 3460 c0 -5 5 -10 10 -10 6 0 10 5 10 10 0 6 -4 10 -10 10 -5 0
-10 -4 -10 -10z"></path>
<path d="M6195 3460 c-3 -5 3 -10 15 -10 12 0 18 5 15 10 -3 6 -10 10 -15 10
-5 0 -12 -4 -15 -10z"></path>
<path d="M6290 3460 c0 -9 29 -42 67 -74 19 -15 25 -16 38 -6 18 15 20 30 4
30 -7 0 -34 13 -60 30 -27 16 -49 26 -49 20z"></path>
<path d="M4621 3444 c-20 -23 -9 -25 18 -3 13 11 17 19 10 19 -8 -1 -20 -8
-28 -16z"></path>
<path d="M4688 3453 c12 -2 22 -9 22 -14 0 -5 7 -9 15 -9 9 0 12 6 9 15 -4 9
-18 14 -38 14 -23 -1 -25 -3 -8 -6z"></path>
<path d="M3855 3430 c3 -5 8 -10 11 -10 2 0 4 5 4 10 0 6 -5 10 -11 10 -5 0
-7 -4 -4 -10z"></path>
<path d="M4480 3430 c0 -5 7 -10 15 -10 8 0 15 5 15 10 0 6 -7 10 -15 10 -8 0
-15 -4 -15 -10z"></path>
<path d="M4544 3401 c3 -5 15 -7 26 -4 28 7 25 13 -6 13 -14 0 -23 -4 -20 -9z"></path>
<path d="M4643 3393 c-13 -8 -23 -19 -23 -24 0 -16 48 -10 54 7 14 37 4 42
-31 17z"></path>
<path d="M4870 3375 c0 -9 9 -15 24 -15 13 0 29 -7 36 -15 7 -8 23 -15 37 -15
13 0 26 -7 29 -15 4 -8 15 -15 25 -15 10 0 19 7 19 15 0 8 -9 15 -20 15 -11 0
-20 4 -20 9 0 5 -13 12 -29 16 -16 3 -35 13 -42 21 -15 19 -59 18 -59 -1z"></path>
<path d="M1675 3370 c-4 -6 7 -10 25 -10 18 0 29 4 25 10 -3 6 -15 10 -25 10
-10 0 -22 -4 -25 -10z"></path>
<path d="M4480 3370 c0 -5 9 -10 20 -10 11 0 20 5 20 10 0 6 -9 10 -20 10 -11
0 -20 -4 -20 -10z"></path>
<path d="M5760 3370 c0 -5 5 -10 10 -10 6 0 10 5 10 10 0 6 -4 10 -10 10 -5 0
-10 -4 -10 -10z"></path>
<path d="M6240 3370 c0 -5 4 -10 9 -10 6 0 13 5 16 10 3 6 -1 10 -9 10 -9 0
-16 -4 -16 -10z"></path>
<path d="M6180 3347 c0 -17 69 -60 86 -53 18 7 18 26 -1 26 -8 0 -30 9 -50 20
-24 13 -35 16 -35 7z"></path>
<path d="M6080 3340 c0 -5 7 -10 15 -10 8 0 15 5 15 10 0 6 -7 10 -15 10 -8 0
-15 -4 -15 -10z"></path>
<path d="M1498 3333 c12 -2 30 -2 40 0 9 3 -1 5 -23 4 -22 0 -30 -2 -17 -4z"></path>
<path d="M6117 3323 c-14 -13 -6 -33 13 -33 11 0 20 -7 20 -15 0 -8 9 -15 20
-15 17 0 19 -4 14 -27 l-7 -28 22 19 c20 18 20 20 4 40 -24 27 -67 65 -74 66
-3 0 -9 -3 -12 -7z"></path>
<path d="M4320 3309 c0 -5 5 -7 10 -4 6 3 10 8 10 11 0 2 -4 4 -10 4 -5 0 -10
-5 -10 -11z"></path>
<path d="M4620 3300 c0 -5 -11 -10 -24 -10 -28 0 -44 -18 -23 -25 21 -8 67 12
67 30 0 8 -4 15 -10 15 -5 0 -10 -4 -10 -10z"></path>
<path d="M4370 3280 c0 -5 6 -10 14 -10 8 0 18 5 21 10 3 6 -3 10 -14 10 -12
0 -21 -4 -21 -10z"></path>
<path d="M6290 3280 c0 -5 7 -10 16 -10 8 0 12 5 9 10 -3 6 -10 10 -16 10 -5
0 -9 -4 -9 -10z"></path>
<path d="M1673 3223 c9 -2 25 -2 35 0 9 3 1 5 -18 5 -19 0 -27 -2 -17 -5z"></path>
<path d="M6350 3220 c0 -5 5 -10 10 -10 6 0 10 5 10 10 0 6 -4 10 -10 10 -5 0
-10 -4 -10 -10z"></path>
<path d="M6385 3190 c3 -5 13 -10 21 -10 8 0 14 5 14 10 0 6 -9 10 -21 10 -11
0 -17 -4 -14 -10z"></path>
<path d="M4635 3149 c-21 -13 -40 -17 -62 -13 -47 9 -42 -13 6 -27 31 -9 47
-9 70 0 30 13 46 35 35 52 -7 12 -14 11 -49 -12z"></path>
<path d="M6237 3144 c-8 -8 1 -24 14 -24 5 0 9 7 9 15 0 15 -12 20 -23 9z"></path>
<path d="M6295 3100 c3 -5 8 -10 11 -10 2 0 4 5 4 10 0 6 -5 10 -11 10 -5 0
-7 -4 -4 -10z"></path>
<path d="M5485 3078 c-4 -10 2 -32 14 -51 12 -19 21 -40 21 -46 0 -13 62 -100
71 -101 4 0 10 7 13 16 6 16 -47 116 -93 174 -17 22 -21 23 -26 8z"></path>
<path d="M4322 3070 c21 -4 46 -14 55 -22 10 -8 37 -18 60 -22 39 -6 42 -4 57
24 16 34 7 38 -29 14 -23 -15 -28 -15 -65 0 -22 9 -57 15 -78 15 l-37 -1 37
-8z"></path>
<path d="M5681 3024 c0 -11 3 -14 6 -6 3 7 2 16 -1 19 -3 4 -6 -2 -5 -13z"></path>
<path d="M5754 3029 c-3 -6 -1 -16 5 -22 8 -8 11 -5 11 11 0 24 -5 28 -16 11z"></path>
<path d="M5610 3014 c0 -3 9 -17 20 -31 15 -19 20 -21 20 -9 0 9 -4 16 -10 16
-5 0 -10 7 -10 15 0 8 -4 15 -10 15 -5 0 -10 -3 -10 -6z"></path>
<path d="M6078 2943 c-19 -5 -25 -23 -8 -23 6 0 15 -12 20 -26 l10 -25 29 23
c34 27 30 42 -11 36 -21 -4 -27 -1 -24 9 3 7 4 12 3 12 -1 -1 -10 -3 -19 -6z"></path>
<path d="M5815 2920 c3 -5 8 -10 11 -10 2 0 4 5 4 10 0 6 -5 10 -11 10 -5 0
-7 -4 -4 -10z"></path>
<path d="M5970 2905 c0 -8 5 -15 10 -15 6 0 10 7 10 15 0 8 -4 15 -10 15 -5 0
-10 -7 -10 -15z"></path>
<path d="M5400 2866 c0 -9 5 -16 10 -16 6 0 10 4 10 9 0 6 -4 13 -10 16 -5 3
-10 -1 -10 -9z"></path>
<path d="M4460 2855 c-7 -8 -31 -16 -54 -16 -50 -2 -114 -16 -78 -18 31 -1 27
-16 -8 -31 -17 -7 -29 -18 -27 -24 3 -6 -2 -19 -10 -28 -25 -29 -6 -38 78 -38
60 0 81 4 85 14 3 8 20 18 37 22 18 3 39 12 47 19 8 8 33 15 55 18 23 2 7 4
-38 5 -73 2 -78 3 -87 28 -12 32 -12 37 -1 29 5 -3 12 -1 16 5 3 5 17 10 31
10 13 0 24 5 24 10 0 16 -56 12 -70 -5z"></path>
<path d="M2960 2840 c0 -5 5 -10 10 -10 6 0 10 5 10 10 0 6 -4 10 -10 10 -5 0
-10 -4 -10 -10z"></path>
<path d="M5430 2821 c0 -21 116 -179 133 -180 19 -2 2 30 -48 92 -30 37 -55
71 -55 76 0 5 -7 14 -15 21 -13 10 -15 9 -15 -9z"></path>
<path d="M6110 2829 c0 -5 5 -7 10 -4 6 3 10 8 10 11 0 2 -4 4 -10 4 -5 0 -10
-5 -10 -11z"></path>
<path d="M1740 2812 c0 -5 9 -12 21 -15 13 -3 19 -1 16 6 -5 15 -37 22 -37 9z"></path>
<path d="M3380 2780 c0 -5 5 -10 11 -10 5 0 7 5 4 10 -3 6 -8 10 -11 10 -2 0
-4 -4 -4 -10z"></path>
<path d="M3345 2751 c-3 -5 -1 -12 5 -16 5 -3 10 1 10 9 0 18 -6 21 -15 7z"></path>
<path d="M3591 2744 c0 -11 3 -14 6 -6 3 7 2 16 -1 19 -3 4 -6 -2 -5 -13z"></path>
<path d="M3520 2740 c0 -5 5 -10 10 -10 6 0 10 5 10 10 0 6 -4 10 -10 10 -5 0
-10 -4 -10 -10z"></path>
<path d="M3850 2740 c0 -5 4 -10 9 -10 6 0 13 5 16 10 3 6 -1 10 -9 10 -9 0
-16 -4 -16 -10z"></path>
<path d="M4656 2743 c-4 -5 -22 -13 -39 -19 l-32 -12 28 -7 c32 -9 81 9 75 27
-5 15 -22 21 -32 11z"></path>
<path d="M3885 2680 c-3 -5 1 -10 9 -10 9 0 16 5 16 10 0 6 -4 10 -9 10 -6 0
-13 -4 -16 -10z"></path>
<path d="M4457 2672 c-21 -23 -22 -42 -2 -42 8 0 15 6 15 14 0 8 10 22 22 30
22 16 22 16 2 16 -12 0 -28 -8 -37 -18z"></path>
<path d="M1680 2666 c0 -9 5 -16 10 -16 6 0 10 4 10 9 0 6 -4 13 -10 16 -5 3
-10 -1 -10 -9z"></path>
<path d="M3137 2650 c-6 -23 10 -37 25 -22 12 12 4 42 -11 42 -5 0 -11 -9 -14
-20z"></path>
<path d="M4342 2663 c-6 -2 -10 -9 -6 -14 7 -12 94 -12 94 0 0 18 -56 27 -88
14z"></path>
<path d="M3630 2650 c0 -5 6 -10 14 -10 8 0 18 5 21 10 3 6 -3 10 -14 10 -12
0 -21 -4 -21 -10z"></path>
<path d="M5740 2656 c0 -2 7 -7 16 -10 8 -3 12 -2 9 4 -6 10 -25 14 -25 6z"></path>
<path d="M3736 2621 c14 -15 94 -26 94 -14 0 11 -46 23 -83 23 -13 0 -17 -4
-11 -9z"></path>
<path d="M3170 2595 c0 -15 4 -24 10 -20 6 3 10 12 10 20 0 8 -4 17 -10 20 -6
4 -10 -5 -10 -20z"></path>
<path d="M4490 2599 c0 -5 5 -7 10 -4 6 3 10 8 10 11 0 2 -4 4 -10 4 -5 0 -10
-5 -10 -11z"></path>
<path d="M3870 2564 c0 -12 6 -15 23 -10 12 3 26 6 30 6 5 0 5 5 2 10 -10 17
-55 12 -55 -6z"></path>
<path d="M4573 2559 c11 -7 23 -7 35 0 14 9 11 10 -18 10 -29 0 -32 -1 -17
-10z"></path>
<path d="M4678 2533 c6 -2 18 -2 25 0 6 3 1 5 -13 5 -14 0 -19 -2 -12 -5z"></path>
<path d="M4386 2512 c-3 -6 11 -13 35 -17 38 -7 59 -2 47 10 -11 12 -76 17
-82 7z"></path>
<path d="M1520 2480 c0 -5 5 -10 10 -10 6 0 10 5 10 10 0 6 -4 10 -10 10 -5 0
-10 -4 -10 -10z"></path>
<path d="M4670 2470 c20 -13 50 -13 50 0 0 6 -15 10 -32 10 -25 0 -29 -3 -18
-10z"></path>
<path d="M1470 2365 c0 -8 5 -15 10 -15 6 0 10 7 10 15 0 8 -4 15 -10 15 -5 0
-10 -7 -10 -15z"></path>
<path d="M2876 2324 c6 -34 6 -35 -14 -23 -26 16 -40 5 -21 -17 7 -9 14 -23
15 -31 3 -20 34 -53 49 -53 7 0 15 -7 19 -15 7 -18 52 -20 59 -2 3 9 8 9 17 1
8 -8 9 -14 1 -18 -19 -12 -12 -26 12 -26 12 0 31 -7 41 -15 11 -8 27 -15 35
-15 9 0 29 -7 45 -15 15 -8 32 -15 37 -15 8 0 140 -58 179 -79 56 -29 88 -48
105 -62 51 -42 235 -147 275 -158 99 -27 126 -82 99 -198 -13 -53 -40 -113
-51 -113 -3 0 -9 -8 -13 -18 -3 -11 -27 -33 -53 -50 -65 -44 -117 -90 -109
-98 13 -13 100 49 176 125 63 63 81 89 95 132 9 30 24 68 33 86 16 29 16 34
-1 72 -21 46 -122 131 -156 131 -16 0 -20 4 -16 15 7 20 -21 32 -37 16 -16
-16 -47 -14 -53 4 -3 8 -15 17 -25 20 -14 5 -18 12 -14 25 3 10 1 21 -5 25 -5
3 -10 1 -10 -4 0 -16 -37 -13 -43 3 -6 15 -62 46 -84 46 -7 0 -13 7 -13 15 0
9 -8 19 -17 22 -10 4 -47 28 -82 55 -35 26 -88 59 -117 73 -30 14 -54 30 -54
35 0 6 -7 10 -15 10 -8 0 -15 7 -15 15 0 8 -7 15 -16 15 -9 0 -24 10 -35 23
-16 19 -18 19 -19 5 0 -24 -9 -23 -61 7 -24 14 -52 28 -61 31 -10 4 -18 10
-18 14 0 4 -11 11 -25 14 -14 4 -25 11 -25 16 0 6 -5 10 -10 10 -7 0 -8 -13
-4 -36z"></path>
<path d="M1500 2330 c0 -5 5 -10 10 -10 6 0 10 5 10 10 0 6 -4 10 -10 10 -5 0
-10 -4 -10 -10z"></path>
<path d="M3028 2323 c6 -2 12 -11 12 -19 0 -8 7 -14 15 -14 8 0 15 2 15 4 0
10 -32 36 -43 35 -9 0 -8 -2 1 -6z"></path>
<path d="M4208 2263 c7 -3 16 -2 19 1 4 3 -2 6 -13 5 -11 0 -14 -3 -6 -6z"></path>
<path d="M4697 2254 c-8 -8 1 -24 14 -24 5 0 9 7 9 15 0 15 -12 20 -23 9z"></path>
<path d="M4758 2213 c6 -2 18 -2 25 0 6 3 1 5 -13 5 -14 0 -19 -2 -12 -5z"></path>
<path d="M3940 2180 c0 -6 37 -10 90 -10 53 0 90 4 90 10 0 6 -37 10 -90 10
-53 0 -90 -4 -90 -10z"></path>
<path d="M1936 2150 c16 -17 30 -21 65 -18 41 3 42 4 19 14 -14 6 -43 14 -65
18 l-40 7 21 -21z"></path>
<path d="M4788 2143 c7 -3 16 -2 19 1 4 3 -2 6 -13 5 -11 0 -14 -3 -6 -6z"></path>
<path d="M2056 2131 c-7 -11 18 -21 55 -21 34 0 39 15 7 24 -33 8 -56 7 -62
-3z"></path>
<path d="M4660 2129 c-50 -6 -41 -13 38 -27 46 -8 52 -7 52 8 0 21 -28 27 -90
19z"></path>
<path d="M4043 2123 c-26 -5 -31 -23 -8 -23 8 0 15 -4 15 -9 0 -4 -40 -14 -89
-21 -83 -12 -89 -14 -78 -31 10 -17 138 -67 217 -86 14 -3 29 -12 33 -19 12
-20 30 -17 45 7 12 19 15 20 37 5 13 -9 37 -16 52 -16 l28 0 -30 25 c-16 13
-36 24 -43 25 -7 0 -15 7 -18 15 -4 8 -17 15 -30 15 -13 0 -29 9 -36 20 -7 11
-21 20 -30 20 -10 0 -18 5 -18 10 0 6 9 10 19 10 11 0 23 -4 26 -10 3 -5 19
-10 36 -10 19 0 29 -5 29 -15 0 -9 9 -15 25 -15 29 0 34 20 6 27 -11 3 -21 13
-24 24 -3 11 -14 19 -26 19 -14 0 -21 6 -21 20 0 17 -6 20 -47 19 -27 -1 -58
-4 -70 -6z"></path>
<path d="M4380 2120 c0 -5 5 -10 10 -10 6 0 10 5 10 10 0 6 -4 10 -10 10 -5 0
-10 -4 -10 -10z"></path>
<path d="M2160 2090 c0 -5 12 -10 26 -10 14 0 23 4 19 10 -3 6 -15 10 -26 10
-10 0 -19 -4 -19 -10z"></path>
<path d="M4225 2090 c-4 -6 12 -10 39 -10 25 0 46 5 46 10 0 6 -18 10 -39 10
-22 0 -43 -4 -46 -10z"></path>
<path d="M4470 2090 c-12 -8 -10 -10 8 -10 13 0 20 4 17 10 -7 12 -6 12 -25 0z"></path>
<path d="M5318 2088 c-2 -7 -2 -43 0 -80 3 -57 7 -68 22 -68 15 0 18 11 22 68
4 53 2 70 -10 80 -9 6 -19 12 -23 12 -4 0 -9 -6 -11 -12z"></path>
<path d="M2230 2060 c0 -5 6 -10 14 -10 7 0 19 -7 26 -15 14 -17 35 -21 25 -5
-10 16 -65 42 -65 30z"></path>
<path d="M4836 2053 c-4 -4 -80 -6 -169 -5 -99 2 -168 -1 -177 -8 -30 -20 13
-30 135 -29 127 0 236 17 243 37 4 13 -20 17 -32 5z"></path>
<path d="M5240 2015 c-8 -17 -14 -87 -16 -167 -2 -110 0 -139 11 -148 8 -7 15
-26 15 -42 0 -19 4 -28 13 -26 16 6 22 47 8 61 -16 16 -13 77 4 110 12 23 12
43 4 114 -6 48 -15 96 -19 107 -7 20 -9 19 -20 -9z"></path>
<path d="M5407 2003 c-4 -20 -2 -43 3 -52 8 -13 9 -13 10 5 0 12 3 36 6 53 4
18 2 31 -3 31 -6 0 -13 -16 -16 -37z"></path>
<path d="M2325 2000 c3 -5 15 -10 25 -10 10 0 22 5 25 10 4 6 -7 10 -25 10
-18 0 -29 -4 -25 -10z"></path>
<path d="M2042 1969 c5 -16 123 -99 141 -99 7 0 22 -11 35 -25 24 -25 22 -45
-4 -45 -19 0 -18 -19 2 -27 9 -3 20 0 25 8 7 12 9 11 9 -2 0 -14 56 -39 89
-39 21 0 11 22 -24 56 -19 18 -35 38 -35 44 0 6 -6 10 -12 8 -15 -5 -39 57
-31 78 6 17 -9 18 -26 2 -10 -11 -15 -9 -29 8 -10 13 -33 24 -57 27 -22 3 -51
9 -64 13 -18 5 -23 4 -19 -7z"></path>
<path d="M5580 1970 c0 -5 5 -10 10 -10 6 0 10 5 10 10 0 6 -4 10 -10 10 -5 0
-10 -4 -10 -10z"></path>
<path d="M2481 1951 c-17 -11 -6 -31 17 -31 9 0 30 -7 46 -15 31 -17 76 -20
76 -6 0 11 -64 45 -100 54 -14 3 -31 2 -39 -2z"></path>
<path d="M5880 1940 c0 -5 5 -10 11 -10 5 0 7 5 4 10 -3 6 -8 10 -11 10 -2 0
-4 -4 -4 -10z"></path>
<path d="M5374 1915 c-4 -9 0 -23 8 -33 9 -9 20 -30 26 -47 6 -16 11 -23 11
-14 1 9 10 24 21 34 13 12 20 29 18 44 -4 31 -28 40 -35 12 -6 -24 -23 -29
-23 -7 0 22 -19 30 -26 11z"></path>
<path d="M5992 1918 c-18 -18 -14 -28 8 -28 11 0 20 6 20 14 0 21 -15 27 -28
14z"></path>
<path d="M5907 1903 c-13 -12 -7 -33 8 -33 9 0 19 -8 22 -17 4 -10 24 -36 45
-58 21 -22 49 -55 61 -72 12 -18 27 -33 32 -33 15 0 38 -54 25 -58 -13 -5 -13
-62 0 -62 6 0 10 -3 10 -8 0 -10 143 -162 153 -162 14 0 6 17 -33 70 -22 29
-40 63 -40 75 0 11 -5 26 -11 32 -7 7 -15 29 -18 50 -5 28 -11 37 -24 35 -12
-2 -17 4 -17 23 0 14 -5 24 -12 22 -6 -1 -14 7 -16 18 -2 11 -10 23 -17 27 -7
5 -11 17 -8 28 3 11 -1 28 -9 38 -8 9 -18 25 -21 34 -5 15 -10 16 -32 6 -23
-10 -28 -8 -54 20 -29 34 -34 36 -44 25z"></path>
<path d="M5730 1890 c0 -5 5 -10 10 -10 6 0 10 5 10 10 0 6 -4 10 -10 10 -5 0
-10 -4 -10 -10z"></path>
<path d="M385 1880 c3 -5 8 -10 11 -10 2 0 4 5 4 10 0 6 -5 10 -11 10 -5 0 -7
-4 -4 -10z"></path>
<path d="M2290 1880 c0 -5 7 -10 15 -10 8 0 15 5 15 10 0 6 -7 10 -15 10 -8 0
-15 -4 -15 -10z"></path>
<path d="M2660 1874 c0 -8 5 -12 10 -9 6 3 10 10 10 16 0 5 -4 9 -10 9 -5 0
-10 -7 -10 -16z"></path>
<path d="M4230 1880 c0 -5 9 -10 21 -10 11 0 17 5 14 10 -3 6 -13 10 -21 10
-8 0 -14 -4 -14 -10z"></path>
<path d="M4370 1880 c0 -5 4 -10 9 -10 6 0 13 5 16 10 3 6 -1 10 -9 10 -9 0
-16 -4 -16 -10z"></path>
<path d="M5512 1879 c2 -6 8 -10 13 -10 5 0 11 4 13 10 2 6 -4 11 -13 11 -9 0
-15 -5 -13 -11z"></path>
<path d="M410 1850 c0 -6 7 -10 15 -10 8 0 15 2 15 4 0 2 -7 6 -15 10 -8 3
-15 1 -15 -4z"></path>
<path d="M2350 1850 c0 -5 5 -10 12 -10 6 0 19 -7 29 -16 11 -10 25 -14 35
-10 14 5 9 11 -22 26 -43 22 -54 24 -54 10z"></path>
<path d="M5880 1850 c0 -5 5 -10 10 -10 6 0 10 5 10 10 0 6 -4 10 -10 10 -5 0
-10 -4 -10 -10z"></path>
<path d="M2092 1843 c-6 -2 -10 -9 -7 -13 3 -5 12 -7 20 -4 7 3 25 -2 40 -12
18 -12 29 -14 36 -7 7 7 1 16 -22 27 -33 16 -45 18 -67 9z"></path>
<path d="M4298 1843 c6 -2 18 -2 25 0 6 3 1 5 -13 5 -14 0 -19 -2 -12 -5z"></path>
<path d="M5460 1837 c0 -9 -9 -26 -20 -37 -29 -29 -27 -65 4 -65 22 0 26 6 31
48 5 31 3 53 -4 60 -8 8 -11 6 -11 -6z"></path>
<path d="M5340 1795 c1 -26 2 -28 11 -12 8 14 8 22 0 30 -8 8 -11 3 -11 -18z"></path>
<path d="M5670 1800 c0 -19 3 -21 12 -12 9 9 9 15 0 24 -9 9 -12 7 -12 -12z"></path>
<path d="M4390 1795 c0 -17 27 -38 39 -31 6 4 8 13 5 20 -7 19 -44 28 -44 11z"></path>
<path d="M2480 1790 c0 -5 5 -10 10 -10 6 0 10 5 10 10 0 6 -4 10 -10 10 -5 0
-10 -4 -10 -10z"></path>
<path d="M5412 1700 c0 -14 2 -19 5 -12 2 6 2 18 0 25 -3 6 -5 1 -5 -13z"></path>
<path d="M5672 1704 c4 -21 22 -23 26 -1 2 10 -3 17 -13 17 -10 0 -15 -6 -13
-16z"></path>
<path d="M2395 1700 c3 -5 8 -10 11 -10 2 0 4 5 4 10 0 6 -5 10 -11 10 -5 0
-7 -4 -4 -10z"></path>
<path d="M5920 1700 c0 -5 5 -10 10 -10 6 0 10 5 10 10 0 6 -4 10 -10 10 -5 0
-10 -4 -10 -10z"></path>
<path d="M2300 1690 c0 -5 7 -10 15 -10 8 0 15 -7 15 -15 0 -8 4 -15 9 -15 4
0 6 11 3 25 -3 16 -11 25 -23 25 -11 0 -19 -4 -19 -10z"></path>
<path d="M5175 1634 c-14 -31 -25 -62 -25 -70 0 -7 -4 -16 -10 -19 -5 -3 -10
-14 -10 -23 0 -26 49 38 50 65 0 12 9 27 20 33 11 6 20 21 20 35 0 45 -20 36
-45 -21z"></path>
<path d="M5580 1655 c0 -19 4 -35 9 -35 12 0 19 29 13 53 -7 30 -22 18 -22
-18z"></path>
<path d="M5955 1670 c3 -5 13 -10 21 -10 8 0 12 5 9 10 -3 6 -13 10 -21 10 -8
0 -12 -4 -9 -10z"></path>
<path d="M2486 1641 c-4 -7 -5 -15 -2 -18 9 -9 19 4 14 18 -4 11 -6 11 -12 0z"></path>
<path d="M5982 1638 c-14 -14 -16 -38 -4 -38 4 0 13 5 20 12 8 8 15 8 27 -2
10 -8 15 -9 15 -1 0 6 -4 11 -10 11 -5 0 -10 7 -10 15 0 18 -21 20 -38 3z"></path>
<path d="M6053 1638 c2 -7 10 -13 17 -13 7 0 15 6 18 13 2 7 -5 12 -18 12 -13
0 -20 -5 -17 -12z"></path>
<path d="M5619 1570 c-4 -8 -10 -28 -15 -45 -5 -16 -16 -30 -24 -30 -12 0 -16
-19 -20 -79 -4 -49 -11 -81 -18 -84 -7 -2 -12 -11 -12 -19 0 -26 27 4 40 43 9
28 16 34 31 29 12 -4 21 -1 24 8 8 19 1 195 -6 177z"></path>
<path d="M5525 1560 c-7 -12 2 -30 16 -30 12 0 12 27 0 35 -5 3 -12 1 -16 -5z"></path>
<path d="M5677 1554 c-10 -11 -9 -142 2 -148 5 -3 11 25 13 62 5 65 -1 100
-15 86z"></path>
<path d="M5197 1525 c-4 -8 -2 -17 3 -20 6 -4 10 3 10 14 0 25 -6 27 -13 6z"></path>
<path d="M5424 1475 c-4 -8 -3 -27 0 -41 6 -21 9 -24 21 -14 20 17 20 70 0 70
-9 0 -18 -7 -21 -15z"></path>
<path d="M5105 1469 c-10 -15 3 -25 16 -12 7 7 7 13 1 17 -6 3 -14 1 -17 -5z"></path>
<path d="M6290 1390 c0 -5 5 -10 10 -10 6 0 10 5 10 10 0 6 -4 10 -10 10 -5 0
-10 -4 -10 -10z"></path>
<path d="M5275 1380 c-3 -5 1 -10 9 -10 9 0 16 5 16 10 0 6 -4 10 -9 10 -6 0
-13 -4 -16 -10z"></path>
<path d="M5195 1259 c-10 -15 3 -25 16 -12 7 7 7 13 1 17 -6 3 -14 1 -17 -5z"></path>
<path d="M120 1230 c0 -5 9 -10 21 -10 11 0 17 5 14 10 -3 6 -13 10 -21 10 -8
0 -14 -4 -14 -10z"></path>
<path d="M4505 1220 c-4 -6 7 -10 24 -10 17 0 31 5 31 10 0 6 -11 10 -24 10
-14 0 -28 -4 -31 -10z"></path>
<path d="M220 1200 c0 -5 9 -10 20 -10 10 0 23 -6 27 -14 11 -18 45 -28 62
-16 12 7 8 10 -15 16 -16 4 -38 13 -49 20 -23 16 -45 18 -45 4z"></path>
<path d="M5430 1185 c0 -8 5 -15 10 -15 6 0 10 7 10 15 0 8 -4 15 -10 15 -5 0
-10 -7 -10 -15z"></path>
<path d="M356 1141 c-3 -5 1 -12 10 -15 24 -9 64 -7 64 3 0 19 -64 29 -74 12z"></path>
<path d="M455 1110 c3 -5 16 -10 28 -9 21 0 21 1 2 9 -28 12 -37 12 -30 0z"></path>
<path d="M6385 1100 c3 -5 13 -10 21 -10 8 0 14 5 14 10 0 6 -9 10 -21 10 -11
0 -17 -4 -14 -10z"></path>
<path d="M530 1080 c0 -5 9 -10 21 -10 11 0 17 5 14 10 -3 6 -13 10 -21 10 -8
0 -14 -4 -14 -10z"></path>
<path d="M0 1066 c0 -9 5 -16 10 -16 6 0 10 4 10 9 0 6 -4 13 -10 16 -5 3 -10
-1 -10 -9z"></path>
<path d="M267 1074 c-11 -11 3 -24 24 -24 12 0 19 5 17 13 -5 14 -31 21 -41
11z"></path>
<path d="M6460 1070 c19 -13 30 -13 30 0 0 6 -10 10 -22 10 -19 0 -20 -2 -8
-10z"></path>
<path d="M348 1033 c6 -2 18 -2 25 0 6 3 1 5 -13 5 -14 0 -19 -2 -12 -5z"></path>
<path d="M6435 1033 c-54 -3 -75 -9 -93 -25 -15 -15 -19 -25 -12 -32 6 -6 17
-2 33 12 19 18 35 22 94 22 57 0 73 -4 88 -20 10 -11 24 -20 32 -20 7 0 13 -4
13 -10 0 -5 7 -10 15 -10 8 0 19 -9 25 -20 6 -11 17 -20 25 -20 21 0 19 19 -2
27 -10 4 -29 18 -43 32 -39 40 -82 71 -94 69 -6 -1 -42 -4 -81 -5z"></path>
<path d="M420 1010 c0 -5 12 -10 26 -10 14 0 23 4 19 10 -3 6 -15 10 -26 10
-10 0 -19 -4 -19 -10z"></path>
<path d="M1050 990 c0 -5 7 -10 15 -10 9 0 18 -7 21 -15 7 -17 64 -21 64 -5 0
6 -8 10 -19 10 -10 0 -24 7 -31 15 -14 17 -50 20 -50 5z"></path>
<path d="M21 971 c-9 -6 2 -11 33 -15 25 -4 46 -11 46 -16 0 -13 33 -21 43
-11 7 7 2 14 -15 20 -15 5 -29 15 -33 20 -7 13 -54 14 -74 2z"></path>
<path d="M6130 926 c0 -11 9 -16 26 -16 31 0 28 23 -4 28 -15 2 -22 -2 -22
-12z"></path>
<path d="M4128 923 c12 -2 32 -2 45 0 12 2 2 4 -23 4 -25 0 -35 -2 -22 -4z"></path>
<path d="M6488 918 c9 -9 15 -9 24 0 9 9 7 12 -12 12 -19 0 -21 -3 -12 -12z"></path>
<path d="M6685 890 c3 -5 8 -10 11 -10 2 0 4 5 4 10 0 6 -5 10 -11 10 -5 0 -7
-4 -4 -10z"></path>
<path d="M50 860 c-12 -8 -9 -10 13 -10 16 0 26 4 22 10 -8 12 -16 12 -35 0z"></path>
<path d="M6278 863 c7 -3 16 -2 19 1 4 3 -2 6 -13 5 -11 0 -14 -3 -6 -6z"></path>
<path d="M6110 836 c0 -11 9 -16 26 -16 31 0 28 23 -4 28 -15 2 -22 -2 -22
-12z"></path>
<path d="M6340 834 c0 -9 7 -14 17 -12 25 5 28 28 4 28 -12 0 -21 -6 -21 -16z"></path>
<path d="M6566 843 c-11 -11 -6 -23 9 -23 8 0 15 4 15 9 0 13 -16 22 -24 14z"></path>
<path d="M6660 842 c0 -14 39 -46 47 -39 3 4 -2 16 -12 27 -19 21 -35 26 -35
12z"></path>
<path d="M6180 805 c0 -8 6 -15 14 -15 8 0 16 -5 18 -11 2 -6 11 -10 19 -8 12
3 6 10 -17 26 -26 17 -34 19 -34 8z"></path>
<path d="M0 789 c0 -5 9 -9 20 -9 11 0 20 2 20 4 0 2 -9 6 -20 9 -11 3 -20 1
-20 -4z"></path>
<path d="M6770 787 c0 -20 -4 -21 -30 -5 -10 7 -23 9 -27 4 -4 -4 0 -12 10
-17 9 -6 17 -15 17 -22 1 -7 28 -39 60 -72 33 -33 60 -65 60 -71 0 -7 12 -20
28 -30 15 -9 33 -26 40 -36 13 -18 72 -54 72 -43 0 2 -40 45 -90 95 -49 50
-90 93 -90 97 0 3 -11 16 -25 29 -27 25 -32 50 -12 57 10 4 10 7 0 18 -11 11
-13 10 -13 -4z"></path>
<path d="M6463 777 c-4 -8 -17 -19 -28 -25 -19 -11 -19 -11 3 -12 12 0 22 4
22 9 0 5 9 11 21 14 12 3 18 10 14 16 -9 15 -22 14 -32 -2z"></path>
<path d="M60 760 c0 -5 9 -10 20 -10 11 0 20 5 20 10 0 6 -9 10 -20 10 -11 0
-20 -4 -20 -10z"></path>
<path d="M6300 740 c0 -5 7 -10 15 -10 8 0 15 5 15 10 0 6 -7 10 -15 10 -8 0
-15 -4 -15 -10z"></path>
<path d="M6550 741 c0 -5 8 -12 19 -16 10 -3 26 -14 36 -25 19 -21 45 -27 45
-10 0 6 -6 10 -14 10 -7 0 -25 11 -40 25 -28 26 -46 32 -46 16z"></path>
<path d="M3435 730 c-18 -8 -17 -9 8 -9 16 -1 26 3 22 9 -3 6 -7 10 -8 9 -1 0
-11 -4 -22 -9z"></path>
<path d="M6180 724 c0 -11 32 -44 43 -44 4 0 7 5 7 10 0 6 -5 10 -11 10 -7 0
-18 8 -25 18 -7 9 -14 12 -14 6z"></path>
<path d="M4715 701 c-3 -5 -1 -12 5 -16 5 -3 10 1 10 9 0 18 -6 21 -15 7z"></path>
<path d="M4900 680 c0 -19 3 -21 12 -12 9 9 9 15 0 24 -9 9 -12 7 -12 -12z"></path>
<path d="M6865 690 c3 -5 11 -10 16 -10 6 0 7 5 4 10 -3 6 -11 10 -16 10 -6 0
-7 -4 -4 -10z"></path>
<path d="M6128 668 c-3 -7 -1 -24 3 -38 6 -22 7 -20 8 13 1 38 -3 47 -11 25z"></path>
<path d="M4620 654 c0 -9 5 -14 12 -12 18 6 21 28 4 28 -9 0 -16 -7 -16 -16z"></path>
<path d="M6665 660 c-4 -6 5 -10 20 -10 15 0 24 4 20 10 -3 6 -12 10 -20 10
-8 0 -17 -4 -20 -10z"></path>
<path d="M6900 662 c0 -12 79 -92 91 -92 5 0 9 9 9 20 0 11 -4 20 -10 20 -5 0
-25 14 -43 30 -36 31 -47 36 -47 22z"></path>
<path d="M6000 630 c0 -16 5 -30 10 -30 6 0 10 14 10 30 0 17 -4 30 -10 30 -5
0 -10 -13 -10 -30z"></path>
<path d="M6618 610 c26 -27 49 -45 50 -40 2 6 10 10 17 10 7 0 16 7 19 16 5
13 1 15 -19 12 -14 -3 -30 1 -36 8 -9 12 -65 44 -75 44 -2 0 18 -22 44 -50z"></path>
<path d="M6360 641 c0 -5 5 -13 10 -16 6 -3 10 -2 10 4 0 5 -4 13 -10 16 -5 3
-10 2 -10 -4z"></path>
<path d="M6715 630 c3 -5 10 -10 16 -10 5 0 9 5 9 10 0 6 -7 10 -16 10 -8 0
-12 -4 -9 -10z"></path>
<path d="M6392 611 c4 -13 18 -16 19 -4 0 4 -5 9 -11 12 -7 2 -11 -2 -8 -8z"></path>
<path d="M6757 613 c-21 -21 11 -73 45 -73 9 0 18 -5 20 -12 3 -7 12 -9 22 -5
15 6 12 13 -21 52 -36 43 -52 53 -66 38z"></path>
<path d="M4720 600 c0 -5 5 -10 11 -10 5 0 7 5 4 10 -3 6 -8 10 -11 10 -2 0
-4 -4 -4 -10z"></path>
<path d="M5380 600 c0 -5 5 -10 10 -10 6 0 10 5 10 10 0 6 -4 10 -10 10 -5 0
-10 -4 -10 -10z"></path>
<path d="M6330 596 c0 -16 77 -127 93 -134 4 -2 7 -12 7 -23 0 -10 5 -19 10
-19 6 0 17 -13 23 -29 13 -31 67 -80 67 -62 0 6 7 11 15 11 26 0 17 19 -30 63
-25 24 -45 48 -45 53 0 5 -8 17 -17 25 -10 9 -27 27 -39 40 -23 27 -84 81 -84
75z"></path>
<path d="M5670 570 c0 -5 5 -10 11 -10 5 0 7 5 4 10 -3 6 -8 10 -11 10 -2 0
-4 -4 -4 -10z"></path>
<path d="M6470 566 c0 -14 58 -76 71 -76 3 0 41 -35 85 -77 99 -98 122 -116
140 -109 20 7 -133 159 -186 183 -8 4 -34 26 -57 50 -48 47 -53 50 -53 29z"></path>
<path d="M6702 510 c12 -16 30 -32 40 -36 10 -3 18 -9 18 -14 0 -5 14 -15 30
-24 17 -8 30 -11 30 -7 0 10 -79 81 -90 81 -4 0 -13 7 -20 15 -23 28 -31 15
-8 -15z"></path>
<path d="M5619 503 c-14 -16 -38 -59 -54 -96 -15 -38 -34 -71 -42 -74 -7 -3
-13 -10 -12 -17 3 -25 -2 -36 -16 -36 -8 0 -15 5 -15 11 0 5 -5 7 -10 4 -8 -5
-7 -12 2 -22 11 -14 10 -15 -7 -10 -15 5 -27 -2 -50 -31 -47 -58 -69 -94 -83
-135 -12 -32 -11 -39 3 -53 9 -9 19 -13 23 -9 4 4 1 10 -5 12 -24 9 -15 34 10
28 17 -4 33 5 70 40 26 25 47 42 47 38 0 -13 -24 -76 -39 -101 -7 -13 -10 -26
-7 -29 8 -8 26 7 26 23 0 8 3 14 8 14 4 0 18 17 32 38 14 20 31 43 37 50 7 7
13 18 13 23 0 11 71 79 83 79 15 0 6 -19 -28 -62 -19 -23 -39 -47 -43 -53 -4
-5 -11 -17 -15 -25 -4 -8 -12 -23 -19 -32 -7 -9 -9 -20 -5 -24 4 -5 28 13 54
39 46 47 63 57 63 36 0 -6 38 25 85 67 47 43 85 85 85 94 0 9 9 23 20 33 22
19 27 47 7 47 -7 0 -20 -8 -28 -17 -44 -50 -89 -76 -89 -53 0 6 -5 10 -11 10
-5 0 -9 -10 -7 -22 4 -31 -23 -33 -44 -4 -16 22 -16 25 0 47 9 13 22 44 29 69
10 37 9 48 -3 60 -12 12 -14 10 -14 -17 0 -18 -6 -36 -12 -40 -18 -11 -48 -71
-48 -93 0 -10 -9 -22 -20 -25 -11 -3 -20 -12 -20 -18 0 -7 -12 -23 -25 -36
-14 -13 -25 -18 -25 -13 0 6 4 13 9 17 16 9 41 66 41 91 0 13 4 25 9 29 6 3
26 40 46 81 40 82 37 113 -6 67z m-109 -308 c0 -8 -4 -15 -10 -15 -5 0 -7 7
-4 15 4 8 8 15 10 15 2 0 4 -7 4 -15z"></path>
<path d="M192 508 c4 -12 84 -66 101 -67 19 -2 4 19 -17 25 -13 3 -34 17 -47
30 -24 26 -43 32 -37 12z"></path>
<path d="M5010 500 c0 -5 4 -10 9 -10 6 0 13 5 16 10 3 6 -1 10 -9 10 -9 0
-16 -4 -16 -10z"></path>
<path d="M6223 495 c-13 -9 -23 -24 -23 -34 0 -18 -18 -41 -32 -41 -4 0 -8 8
-8 19 0 10 -7 24 -15 31 -12 10 -16 8 -25 -15 -5 -14 -10 -35 -10 -46 0 -20
-15 -26 -25 -9 -9 15 -25 12 -32 -5 -3 -9 2 -24 11 -34 10 -11 22 -49 27 -87
6 -44 17 -76 29 -89 13 -14 20 -36 20 -61 1 -30 6 -43 26 -57 27 -20 44 -16
27 5 -6 7 -10 41 -10 76 0 42 3 58 9 48 5 -9 16 -16 23 -16 8 0 15 -5 15 -12
0 -6 7 -18 15 -27 30 -30 65 -76 65 -83 0 -5 7 -8 15 -8 8 0 15 5 15 10 0 6
-4 10 -10 10 -5 0 -10 7 -10 16 0 9 -10 26 -22 38 -53 51 -79 116 -47 116 5 0
9 6 9 14 0 8 5 18 10 21 7 4 8 -8 4 -34 -4 -28 -3 -41 5 -41 6 0 11 5 11 10 0
6 7 10 15 10 17 0 20 -16 5 -25 -15 -9 -12 -25 4 -25 8 0 22 -7 31 -16 9 -9
19 -13 23 -10 3 4 1 11 -6 15 -10 6 -11 20 -4 57 6 27 10 41 11 32 0 -10 8
-18 16 -18 9 0 18 -7 21 -15 7 -16 34 -21 34 -6 0 5 -6 14 -14 20 -8 7 -18 26
-21 42 -4 16 -11 29 -16 29 -15 0 -10 40 6 46 22 9 18 30 -7 49 -20 13 -21 18
-10 35 11 18 10 20 -9 20 -20 0 -21 -4 -16 -45 4 -26 3 -45 -3 -45 -15 0 -28
63 -18 83 12 23 3 47 -17 47 -22 0 -35 -41 -36 -113 l-2 -62 -8 55 c-23 148
-21 142 -46 125z m-53 -135 c0 -36 -28 -110 -42 -110 -11 0 -8 19 12 103 12
51 30 55 30 7z m64 -9 c6 -40 0 -71 -14 -71 -13 0 -17 22 -12 68 5 53 17 54
26 3z"></path>
<path d="M5827 464 c-4 -4 -7 -14 -7 -23 0 -11 3 -12 11 -4 6 6 10 16 7 23 -2
6 -7 8 -11 4z"></path>
<path d="M4925 449 c-10 -15 1 -23 20 -15 9 3 13 10 10 16 -8 13 -22 13 -30
-1z"></path>
<path d="M6008 454 c-5 -4 -8 -21 -8 -38 0 -20 -7 -36 -20 -44 -11 -7 -20 -21
-20 -32 0 -11 -4 -20 -9 -20 -5 0 -12 -13 -16 -30 -4 -16 -13 -30 -21 -30 -8
0 -14 -9 -14 -20 0 -12 -10 -34 -22 -50 -12 -16 -19 -33 -15 -36 9 -10 76 38
83 59 7 21 18 22 35 1 10 -12 10 -22 1 -48 -7 -18 -11 -64 -11 -102 l1 -69 9
54 c5 30 15 62 23 70 7 9 16 24 19 33 14 41 37 6 37 -57 0 -25 2 -27 14 -15 8
8 16 33 18 55 2 33 -1 42 -18 49 -18 8 -23 21 -28 80 -4 38 -11 74 -16 81 -5
6 -10 35 -12 64 -2 29 -6 49 -10 45z m2 -183 c5 -11 7 -27 3 -37 -6 -16 -7
-16 -20 2 -15 21 -17 54 -3 54 5 0 14 -9 20 -19z"></path>
<path d="M6945 449 c-4 -6 2 -13 14 -16 12 -3 21 -12 21 -19 0 -8 5 -14 10
-14 15 0 12 29 -4 46 -17 17 -32 18 -41 3z"></path>
<path d="M6530 420 c0 -13 5 -20 13 -17 6 2 12 10 12 17 0 7 -6 15 -12 18 -8
2 -13 -5 -13 -18z"></path>
<path d="M5797 424 c-4 -4 -7 -14 -7 -23 0 -11 3 -12 11 -4 6 6 10 16 7 23 -2
6 -7 8 -11 4z"></path>
<path d="M4856 399 c-26 -26 0 -26 34 1 23 18 23 20 5 19 -11 0 -29 -9 -39
-20z"></path>
<path d="M5887 351 c-20 -27 -39 -62 -43 -78 -4 -15 -11 -34 -16 -40 -6 -7 -7
-21 -4 -30 6 -15 12 -12 42 22 19 22 34 47 34 56 0 9 6 22 14 28 18 15 31 70
19 82 -5 5 -24 -11 -46 -40z"></path>
<path d="M6955 370 c-3 -5 1 -13 10 -16 22 -9 29 1 11 15 -10 8 -16 9 -21 1z"></path>
<path d="M4795 359 c-4 -6 -4 -13 -1 -16 8 -8 36 5 36 17 0 13 -27 13 -35 -1z"></path>
<path d="M5760 360 c0 -5 5 -10 10 -10 6 0 10 5 10 10 0 6 -4 10 -10 10 -5 0
-10 -4 -10 -10z"></path>
<path d="M2071 344 c0 -11 3 -14 6 -6 3 7 2 16 -1 19 -3 4 -6 -2 -5 -13z"></path>
<path d="M4738 313 c-29 -15 -37 -33 -15 -33 6 0 20 12 30 25 10 14 17 25 15
24 -2 -1 -15 -8 -30 -16z"></path>
<path d="M2037 304 c-10 -11 -9 -54 2 -54 14 0 22 30 13 46 -4 8 -11 11 -15 8z"></path>
<path d="M6530 300 c0 -5 7 -10 15 -10 8 0 15 5 15 10 0 6 -7 10 -15 10 -8 0
-15 -4 -15 -10z"></path>
<path d="M6790 302 c0 -13 35 -42 49 -42 8 0 3 10 -10 25 -25 25 -39 32 -39
17z"></path>
<path d="M2485 290 c-3 -5 -1 -10 4 -10 6 0 11 5 11 10 0 6 -2 10 -4 10 -3 0
-8 -4 -11 -10z"></path>
<path d="M6445 270 c3 -5 8 -10 11 -10 2 0 4 5 4 10 0 6 -5 10 -11 10 -5 0 -7
-4 -4 -10z"></path>
<path d="M6560 274 c0 -28 159 -169 183 -161 13 4 -60 80 -129 135 -41 31 -54
38 -54 26z"></path>
<path d="M6855 250 c-3 -5 5 -14 17 -21 13 -6 34 -22 48 -34 14 -12 37 -30 53
-40 l27 -17 0 40 c0 37 -2 40 -32 44 -18 3 -50 12 -70 21 -22 10 -39 13 -43 7z"></path>
<path d="M5190 205 c0 -8 7 -15 15 -15 8 0 15 7 15 15 0 8 -7 15 -15 15 -8 0
-15 -7 -15 -15z"></path>
<path d="M5302 174 c-12 -8 -22 -21 -22 -28 0 -8 -7 -16 -15 -20 -15 -5 -22
-66 -7 -66 8 0 74 121 69 126 -2 2 -13 -3 -25 -12z"></path>
<path d="M6484 165 c15 -14 31 -25 35 -25 5 0 11 -7 15 -15 6 -16 46 -21 46
-6 0 11 -95 71 -112 71 -6 0 1 -11 16 -25z"></path>
<path d="M5225 165 c-5 -11 -14 -24 -22 -28 -7 -4 -13 -16 -13 -26 0 -10 -7
-24 -15 -31 -8 -7 -15 -18 -15 -25 0 -7 -7 -18 -15 -25 -22 -18 -18 -30 10
-30 15 0 25 6 25 15 0 8 9 20 20 27 15 10 20 24 20 55 0 23 5 43 11 45 6 2 9
13 7 23 -5 20 -5 20 -13 0z"></path>
<path d="M2511 154 c0 -11 3 -14 6 -6 3 7 2 16 -1 19 -3 4 -6 -2 -5 -13z"></path>
<path d="M5166 161 c-4 -7 -5 -15 -2 -18 9 -9 19 4 14 18 -4 11 -6 11 -12 0z"></path>
<path d="M6802 151 c4 -13 18 -16 19 -4 0 4 -5 9 -11 12 -7 2 -11 -2 -8 -8z"></path>
<path d="M6200 110 c0 -11 7 -20 15 -20 8 0 15 9 15 20 0 11 -7 20 -15 20 -8
0 -15 -9 -15 -20z"></path>
<path d="M6380 114 c0 -9 5 -14 12 -12 18 6 21 28 4 28 -9 0 -16 -7 -16 -16z"></path>
<path d="M6620 122 c0 -13 158 -122 177 -122 14 0 12 5 -12 25 -16 13 -43 31
-60 40 -49 26 -70 39 -78 53 -9 13 -27 16 -27 4z"></path>
<path d="M6854 119 c-8 -14 18 -31 30 -19 9 9 0 30 -14 30 -5 0 -12 -5 -16
-11z"></path>
<path d="M5020 109 c0 -5 5 -7 10 -4 6 3 10 8 10 11 0 2 -4 4 -10 4 -5 0 -10
-5 -10 -11z"></path>
<path d="M5910 68 c0 -24 5 -50 10 -58 7 -11 10 2 10 43 0 31 -4 57 -10 57 -5
0 -10 -19 -10 -42z"></path>
<path d="M6240 67 c0 -10 7 -17 15 -17 8 0 15 -7 15 -15 0 -8 7 -15 15 -15 8
0 15 7 15 15 0 8 -5 15 -12 15 -6 0 -20 7 -30 17 -17 15 -18 15 -18 0z"></path>
<path d="M6900 70 c0 -5 5 -10 10 -10 6 0 10 5 10 10 0 6 -4 10 -10 10 -5 0
-10 -4 -10 -10z"></path>
<path d="M5287 43 c-12 -11 -8 -23 8 -23 8 0 15 7 15 15 0 16 -12 20 -23 8z"></path>
<path d="M5587 44 c-4 -4 -7 -14 -7 -23 0 -11 3 -12 11 -4 6 6 10 16 7 23 -2
6 -7 8 -11 4z"></path>
<path d="M5490 30 c0 -5 5 -10 10 -10 6 0 10 5 10 10 0 6 -4 10 -10 10 -5 0
-10 -4 -10 -10z"></path>
<path d="M6090 30 c0 -5 5 -10 10 -10 6 0 10 5 10 10 0 6 -4 10 -10 10 -5 0
-10 -4 -10 -10z"></path>
<path d="M6210 30 c0 -5 5 -10 11 -10 5 0 7 5 4 10 -3 6 -8 10 -11 10 -2 0 -4
-4 -4 -10z"></path>
<path d="M6560 30 c0 -5 9 -10 19 -10 11 0 21 -5 23 -11 2 -6 13 -10 23 -7 17
3 14 7 -14 21 -39 19 -51 21 -51 7z"></path>
<path d="M5696 21 c-4 -7 -5 -15 -2 -18 9 -9 19 4 14 18 -4 11 -6 11 -12 0z"></path>
<path d="M6505 10 c-3 -5 -1 -10 4 -10 6 0 11 5 11 10 0 6 -2 10 -4 10 -3 0
-8 -4 -11 -10z"></path>
</g>
</svg>